<?xml version="1.0" encoding="UTF-8"?>
<svg id="Layer_1" data-name="Layer 1" xmlns="http://www.w3.org/2000/svg" xmlns:xlink="http://www.w3.org/1999/xlink" viewBox="0 0 1000 1000">
  <defs>
    <style>
      .cls-1 {
        fill: #d1d1d1;
      }

      .cls-1, .cls-2, .cls-3, .cls-4, .cls-5, .cls-6, .cls-7, .cls-8, .cls-9, .cls-10, .cls-11, .cls-12, .cls-13 {
        stroke-width: 0px;
      }

      .cls-2 {
        fill: #5c5c5c;
      }

      .cls-14 {
        clip-path: url(#clippath);
      }

      .cls-3 {
        fill: none;
      }

      .cls-4 {
        fill: url(#linear-gradient);
      }

      .cls-15 {
        filter: url(#drop-shadow-1);
      }

      .cls-5 {
        fill: #575757;
      }

      .cls-6 {
        fill: #5d5d5d;
      }

      .cls-7 {
        fill: #acacac;
      }

      .cls-8 {
        fill: #bebebe;
      }

      .cls-9 {
        fill: #3f3f3f;
      }

      .cls-10 {
        fill: #ededed;
      }

      .cls-11 {
        fill: #181818;
      }

      .cls-12, .cls-13 {
        fill: #373737;
      }

      .cls-16 {
        fill: #fff;
        font-family: Montserrat-Bold, Montserrat;
        font-size: 35.07px;
        font-weight: 700;
      }

      .cls-13 {
        opacity: .22;
      }
    </style>
    <linearGradient id="linear-gradient" x1="-21.59" y1="987.88" x2="590.5" y2="413.89" gradientUnits="userSpaceOnUse">
      <stop offset="0" stop-color="#575757"/>
      <stop offset=".81" stop-color="#dadada"/>
      <stop offset="1" stop-color="#dadada"/>
    </linearGradient>
    <clipPath id="clippath">
      <circle class="cls-3" cx="496.54" cy="500" r="420.7"/>
    </clipPath>
    <filter id="drop-shadow-1" filterUnits="userSpaceOnUse">
      <feOffset dx="21.66" dy="21.66"/>
      <feGaussianBlur result="blur" stdDeviation="30.94"/>
      <feFlood flood-color="#e3e3e3" flood-opacity=".4"/>
      <feComposite in2="blur" operator="in"/>
      <feComposite in="SourceGraphic"/>
    </filter>
  </defs>
  <circle class="cls-4" cx="497.68" cy="500.93" r="419.56"/>
  <path class="cls-5" d="M500,27.75c63.77,0,125.61,12.48,183.81,37.1,56.23,23.78,106.74,57.84,150.12,101.22,43.38,43.38,77.43,93.89,101.22,150.12,24.62,58.2,37.1,120.05,37.1,183.81s-12.48,125.61-37.1,183.81c-23.78,56.23-57.84,106.74-101.22,150.12-43.38,43.38-93.89,77.43-150.12,101.22-58.2,24.62-120.05,37.1-183.81,37.1s-125.61-12.48-183.81-37.1c-56.23-23.78-106.74-57.84-150.12-101.22-43.38-43.38-77.43-93.89-101.22-150.12-24.62-58.2-37.1-120.05-37.1-183.81s12.48-125.61,37.1-183.81c23.78-56.23,57.84-106.74,101.22-150.12,43.38-43.38,93.89-77.43,150.12-101.22,58.2-24.62,120.05-37.1,183.81-37.1M500,0C223.86,0,0,223.86,0,500s223.86,500,500,500,500-223.86,500-500S776.14,0,500,0h0Z"/>
  <g class="cls-14">
    <g>
      <g>
        <path class="cls-2" d="M669.92,752.62c-2.3,5.46-10.49,14.88-17.55,26.76-14.5,24.4-31.68,55.29-35.49,56.4-8.4,2.44-50.37-30.41-49.15-38.65,1.87-12.64,20.32-42.55,39.58-69.8,0,0,67.08,14.67,62.6,25.29Z"/>
        <path class="cls-6" d="M573.16,782.25c7.21-14.9,20.47-35.58,34.15-54.92,0,0,35.2-.27,31.36,19.31-3.85,19.58-44.21,12.12-65.51,35.61Z"/>
        <path class="cls-12" d="M626.6,822.69c-4.45,7.63-7.76,12.51-9.73,13.09-8.4,2.44-50.37-30.41-49.15-38.65.49-3.3,2.11-7.77,4.57-13.07,0,0,42.27,33.15,54.3,38.63Z"/>
        <path class="cls-2" d="M571.65,746.37s-11.19-27.31-20.07-30.6c-8.88-3.29-31.26,11.19-34.22,14.81-2.96,3.62,18.1,25.34,30.93,26.65,12.83,1.32,23.36-10.86,23.36-10.86Z"/>
        <path class="cls-2" d="M615.08,757.22c-21.92-4.92-82.9-20.57-95.42-25.01-12.28-4.35-11.14-37.23,0-55.28,8.94-14.48,26.87-15.55,30.27-13.82,14.58,7.39,47.89,19.68,74.81,24.5,4.94.88,28.5.07,41.03,16.01,13.6,17.31,13.25,45.48-3.31,57.75-11.85,8.77-47.38-4.17-47.38-4.17Z"/>
      </g>
      <path class="cls-2" d="M206.94,817.82c2.58-2.38,5.28-4.57,8.12-6.72,0,0,0,0,0,.01,24.03-15.04,35.52-26.82,57.32-16.11,11.05-9.19,4.24-70.45,66.11-75.54,68.61,12.98,73.78,145.06-38.76,136.64-51.7,5.41-37.2-4.55-75.43,23.51-12.33,3.24-22.44-62.47-17.36-61.8Z"/>
      <g>
        <path class="cls-2" d="M313.34,703.02c2.1-13.27.84-38.62-13.12-46.28-19.99-10.96-43.2-2.88-51.95-12.18-4.45-4.72-5.56,43.04,18.53,57.31,21.31,12.62,46.54,1.14,46.54,1.14Z"/>
        <path class="cls-13" d="M313.34,703.02c1.02-6.41,1.25-15.64-.36-24.33-1.16-1.16-7.65,2.5-13.42,7.78-20.65-.19-33.06-18.53-34.2-17.24,9.11,19.35,28.36,23.58,27.49,24.93-1.21,1.87-2.11,3.77-2.5,5.59-33.81-7.96-41.65-30.25-42.07-55.17-4.45-4.72-5.56,43.04,18.53,57.31,21.31,12.62,46.54,1.14,46.54,1.14Z"/>
      </g>
      <path class="cls-2" d="M580.54,605.97c-9.84-4.73-66.63,18.1-100.99,25.95-56.6,53.01-131.5,15.35-175.36,62.45-22.46,24.11-41.18,80.19,6.79,128.93,10.48,11.34,20.26,16.8,31.43,22.48,20.86,10.62,185.92-24.07,215.53-55.39,44.46-47.04,35.46-178.25,22.61-184.44Z"/>
      <path class="cls-13" d="M304.19,694.38s-25.27,83.94,58.19,105.62c101.34,26.32,163.86-23.69,188.47-55.28,8.39-10.77,20.3-18.49,30.32-27.77,2.4-2.22,4.83-4.49,7.22-6.82-4.07,31.28-13.26,62.08-30.46,80.27-29.61,31.32-194.66,66.01-215.53,55.39-11.17-5.68-20.95-11.15-31.43-22.48-47.96-48.74-29.24-104.82-6.79-128.93Z"/>
      <path class="cls-13" d="M526.68,675.41c-28.52-3.95-59.66-10.09-78.15-23.09,10.72-4.66,21.15-11.14,31.02-20.39,34.36-7.85,91.15-30.69,100.99-25.95,5.94,2.86,11.06,32.47,10.45,68.12,0,0-35.8,5.26-64.31,1.31Z"/>
      <path class="cls-10" d="M555.19,736.82c11.19-48.7,5.92-113.84-11.19-125.03l34.88-9.21c10.44-2.72,36.85,132.93-20.95,187.83-42.88,39.86-194.66,66.01-215.53,55.39,37.91-.72,192.44-20.4,212.79-108.97Z"/>
      <path class="cls-8" d="M561.06,676.93c-.53-31.17-6.57-58.28-17.05-65.14l34.88-9.21c5.03-1.31,13.76,29.46,15,67.84-6.12,5.2-32.83,6.51-32.83,6.51Z"/>
      <path class="cls-8" d="M555.19,736.82c1.94-8.43,3.38-17.35,4.35-26.4,10.97.1,21.91,0,32.82-1.16-3.59,30.7-13.47,61.24-34.44,81.15-42.88,39.86-194.66,66.01-215.53,55.39,37.91-.72,192.44-20.4,212.79-108.97Z"/>
      <path class="cls-13" d="M383.16,839.88s18.97-13.17,23.39-20.94c4.42-7.78.83-27.74-1.29-31.32-2.12-3.58-18.02,13.41-24.63,21.03-6.61,7.62-2.8,30.68,2.53,31.23Z"/>
      <path class="cls-2" d="M274.85,816.76c14.5-4.68,3.03-71.41,71.2-81.7,27.6-4.17,55.87,38,50.34,72.42-9.51,59.22-86.41,65.02-94.48,68.05l-27.06-58.76Z"/>
      <path class="cls-2" d="M310.59,872.42c-10.27,6.47-42.32,5.75-48.88,8.01-19.7,6.77-32.09,26.11-38.32,23.63-8.13-3.23-21.09-54.93-15.06-60.68,15.46-14.77,39.89-28.04,48.08-30.41,11.38-3.29,24.97,5.78,32.79,6.17l21.4,53.27Z"/>
      <path class="cls-13" d="M287.58,825.01c-5.04,2.43-14.24-1.67-22.37-4.17-8.73-2.68-17.11-2.41-28.76,1.88,8.51-5.03,16.06-8.62,19.95-9.74,6.59-1.9,13.91.33,20.43,2.63,4.38-3.79,6.08-14.83,10.01-27.63,2.5-11.89,9.38-26.08,18.88-34.12-12.65,19.6-12.21,68.29-18.13,71.15Z"/>
      <path class="cls-13" d="M264.77,864.49c8.99-2.84,32.9-1.75,63.17-10.09,18.27-5.03,49.14-9.65,66.93-39.86-12.95,47.88-72.88,56.71-89.41,60.1-13.19,4.11-38.06,3.84-43.76,5.8-9.85,3.39-17.87,9.91-24.21,15.28,0,0,18.94-28.6,27.27-31.23Z"/>
      <path class="cls-12" d="M235.2,897.11c-5.11,4.66-8.89,8.12-11.81,6.96-8.13-3.23-21.09-54.93-15.06-60.68,2.47-2.36,5.36-4.84,8.5-7.33,4.28,29.85,18.38,61.06,18.38,61.06Z"/>
      <path class="cls-2" d="M640.3,768.41c-2.3,5.46-10.49,14.88-17.55,26.76-14.5,24.4-31.68,55.29-35.49,56.4-8.4,2.44-50.37-30.41-49.15-38.65,1.87-12.64,20.32-42.55,39.58-69.8,0,0,67.08,14.67,62.6,25.29Z"/>
      <path class="cls-13" d="M543.55,798.05c7.21-14.9,20.47-35.58,34.15-54.92,0,0,35.2-.27,31.36,19.31-3.85,19.58-44.21,12.12-65.51,35.61Z"/>
      <path class="cls-12" d="M596.99,838.48c-4.45,7.63-7.76,12.51-9.73,13.09-8.4,2.44-50.37-30.41-49.15-38.65.49-3.3,2.11-7.77,4.57-13.07,0,0,42.27,33.15,54.3,38.63Z"/>
      <path class="cls-13" d="M542.03,762.16s-11.19-27.31-20.07-30.6c-8.88-3.29-31.26,11.19-34.22,14.81-2.96,3.62,18.1,25.34,30.93,26.65,12.83,1.32,23.36-10.86,23.36-10.86Z"/>
      <path class="cls-2" d="M585.46,773.02c-21.92-4.92-82.9-20.57-95.42-25.01-12.28-4.35-11.14-37.23,0-55.28,8.94-14.48,26.87-15.55,30.27-13.82,14.58,7.39,47.89,19.68,74.81,24.5,4.94.88,28.5.07,41.03,16.01,13.6,17.31,13.25,45.48-3.31,57.75-11.85,8.77-47.38-4.17-47.38-4.17Z"/>
      <path class="cls-2" d="M363.26,281.67c12.35-8.28,167.38,11.55,158.79,74.51-2.22,16.3-29.05,73.81-71.48,75.66-78.08-11.62-98.83-142.45-87.31-150.17Z"/>
      <path class="cls-12" d="M659.52,153.5c-9.51-2.52-18.25,2.83-19.51,11.95-.98,7.09-4.89,13.19-12.27,19.09-7.79,6.23-14.99-3.42-16.35-5.11-6.5-8.07-12.72-13.62-18.53-16.55-8.98-4.52-19.01-1.46-22.4,6.84-3.32,8.12.94,18.24,9.53,22.91,2.32,1.77,6.71,6.3,9.37,11.1,4.9,8.83-6.57,21.2-8.63,24.14-2.65,3.79-7.47,8.43-15.5,4.62-3.87-1.84-6.89-4.61-9.76-6.35-8.64-5.25-19.03-3.12-23.21,4.74-4.18,7.86-.56,18.49,8.08,23.74,15.25,9.26,22.3,13.94,26.6,24.37,1.13,9.17,3.84,18.68,7.64,28.96,5.31,9.25,37.62,5.47,34.4-2.68-10.78-27.25-10.53-38.65,1.24-55.44,7.48-10.68,17.92-18.75,28.02-26.55,16.23-12.55,33.02-25.52,36.22-48.72,1.26-9.11-5.44-18.54-14.95-21.05Z"/>
      <path class="cls-2" d="M651.77,643.41c134.43-27.25,101.75-103.89,96.04-190.83-4.66-70.95-44.52-142.54-116.31-161.25-54.49-14.21-103.52-9.45-145.54-.08-81.19,18.1-136.12,72.32-153.24,132.31-23.38,81.9,57.67,272.84,319.05,219.86Z"/>
      <path class="cls-13" d="M469.57,637.13c47.09,16.62,107.22,21.48,182.2,6.28,31.58-6.4,53.94-15.53,69.59-26.88-1.85.41-3.74.81-5.68,1.2-61.03,12.37-112.23,11.44-154.55,1.71-138.98-31.94-182.41-158.78-164.49-221.56,11.76-41.22,41.39-79.72,85.12-105.65-37.77,6.96-68.22,22.76-91.81,45.44-28.51,24.02-48.16,54.15-57.22,85.89-16.67,58.41,19.77,172.28,136.85,213.57Z"/>
      <path class="cls-8" d="M651.77,643.41c28.31-5.74,49.21-13.67,64.51-23.43,1.13-.13,2.26-.32,3.39-.56-15.29,10.51-36.66,19.01-66.3,25.02-74.97,15.19-140.14,11.44-183.8-7.31,47.09,16.62,107.22,21.48,182.2,6.28Z"/>
      <ellipse class="cls-11" cx="627.16" cy="469.39" rx="24.31" ry="32.71" transform="translate(-83.29 139.35) rotate(-11.9)"/>
      <path class="cls-12" d="M633.59,411.79s-.62-15.11-4.66-19.83c-4.04-4.72-38.68,9.43-45.34,16.98,0,0-.19,14.16,2.22,17.94,2.41,3.78,43.66-14.15,47.78-15.1Z"/>
      <path class="cls-10" d="M634.54,557.09c11.34-7.5,22.58-15.31,34.78-21.48,26.85-13.58,55.19-19.64,84.29-25.75,6.13,61.97,3.6,113.52-100.24,134.57-75.06,15.22-140.31,11.43-183.97-7.37,108.34,6.92,154.37-72.86,165.13-79.97Z"/>
      <path class="cls-8" d="M469.4,637.06c.06.02.11.05.17.07,47.09,16.62,107.22,21.48,182.2,6.28,31.58-6.4,53.94-15.53,69.59-26.88-1.85.41-4.26-19.65-5.99-18.74-55.12,28.79-111.91,31.38-154.23,21.65-23.77,11.91-53.96,20.03-91.73,17.62Z"/>
      <path class="cls-10" d="M744.18,617.62c71.99-23.29,61.25-117.78.98-126.37-7.84-1.12-15.38-1.61-22.59-1.56-19.19.14-36.08,4.17-50.11,10.76-23.02,10.8-38.3,28.42-43.19,46.73-8.35,31.25,5.08,105.97,114.92,70.43Z"/>
      <path class="cls-8" d="M728.12,489.76c5.51.17,11.19.66,17.05,1.49,17.9,2.55,31.42,12.68,39.71,26.26,0,0-13.59,13.7-37.82,3.39-24.23-10.31-20.8-31.2-18.93-31.14Z"/>
      <path class="cls-8" d="M788.74,579.05c-7.25,16.67-21.75,31.2-44.56,38.57-41.86,15.65-69.39,11.1-87.39,1.26,85.02-6.02,131.94-39.84,131.94-39.84Z"/>
      <path class="cls-2" d="M736.95,485.03c-2.83,13.07,6.98,25.93,21.91,28.72,14.93,2.79,29.33-5.54,32.16-18.6,2.83-13.07-6.98-25.93-21.91-28.72-14.93-2.79-29.33,5.54-32.16,18.6Z"/>
      <path class="cls-2" d="M744.79,472.37c-.71,1.52-1.26,3.13-1.63,4.82-2.83,13.07,6.38,25.82,20.58,28.47,10.98,2.05,21.72-2.53,27.33-10.76-.02.08-.03.16-.05.24-2.83,13.07-17.23,21.4-32.16,18.6-14.93-2.79-24.74-15.65-21.91-28.72,1.1-5.05,3.93-9.4,7.84-12.66Z"/>
      <path class="cls-7" d="M781.64,492.75c3.04-2,5.16-5.79,5.76-8.57.6-2.78-5.78-12.98-23.31-16.25-3.76-.7-2.64,10.59-1.73,11.57,2.54,2.72,16.23,15.25,19.27,13.25Z"/>
      <path class="cls-9" d="M726.78,533.01c1.42-1.28,3.64-1.22,4.96.12,12.64,12.9,30.71,15.15,55.25,6.86,1.66-.56,3.26-1.18,4.81-1.84,1.81-.55,4.13,5.66,1.26,6.77-1.24.5-2.51.96-3.81,1.4-27.06,9.13-48.14,6.25-62.66-8.57-1.32-1.34-1.23-3.47.19-4.75Z"/>
      <g>
        <path class="cls-2" d="M456.07,350.88c-12.75-62.06-166.93-33.53-175.94-21.95-8.4,10.8,54.85,127.98,133.04,115.15,39.77-14.68,46.2-77.14,42.89-93.2Z"/>
        <path class="cls-2" d="M280.13,328.93c.32-.41,3.94,12.62,60.82,52.75,10.2,7.2,53.42,31,61.13,37.96,1.32,24.13-5.99,25.27-8.34,25.04-20.51-.69-44.53-13.19-58.79-28.17-37.15-32.14-60.09-80.8-54.82-87.58Z"/>
        <path class="cls-7" d="M426.85,360.72c-1.79-9.78-24.17-19.64-44.3-21.71-31.97-3.27-67.72,2.6-71.35,7.28-5.52,7.1,36.06,84.13,87.46,75.7,3.44-43.89,27.82-52.86,28.2-61.27Z"/>
      </g>
      <path class="cls-12" d="M337.14,218.22c7.46-7.04,19.39-7.03,26.65.02,5.65,5.48,13.45,8.62,24.46,9.8,11.62,1.24,12.11-10.64,12.29-12.76.88-10.18,3.15-18.08,6.78-23.56,5.61-8.46,17.27-11.05,26.03-5.79,8.57,5.15,11.21,15.9,6.08,24.29-1.05,2.69-2.25,8.79-1.62,14.22,1.17,10,20.38,14.52,24.32,15.94,5.06,1.83,12.77,3.26,17.94-4.11,2.49-3.55,3.55-7.46,5.14-10.41,4.8-8.9,16.18-12.47,25.42-7.99,9.24,4.49,12.83,15.34,8.02,24.24-8.48,15.7-12.14,23.3-9.32,34.34,5.01,8.33,8.73,17.77,11.91,28.42,1.05,10.56-32.46,24.06-34.78,15.51-7.76-28.6-15.58-38.1-38.03-46.22-14.27-5.16-29.65-6.58-44.53-7.96-23.91-2.22-48.64-4.51-67.12-22.46-7.26-7.05-7.1-18.48.35-25.52Z"/>
    </g>
    <g class="cls-15">
      <path class="cls-7" d="M347,491.91c-1.06-.97-2.49-1.55-4.03-1.55h-151.58c-1.55,0-2.97.58-4.03,1.55-1.24,1.12-2.03,2.73-2.03,4.52v90.95c0,1.79.79,3.4,2.03,4.52,1.06.97,2.49,1.55,4.03,1.55h151.58c1.58,0,3-.58,4.06-1.58,1.24-1.12,2-2.73,2-4.49v-90.95c0-1.79-.79-3.4-2.03-4.52Z"/>
      <path class="cls-1" d="M347,491.91l-65.6,49.99-10.06,7.67c-2.46,1.91-5.85,1.91-8.31,0l-10.06-7.67-65.6-49.99c1.06-.97,2.49-1.55,4.03-1.55h151.58c1.55,0,2.97.58,4.03,1.55Z"/>
      <circle class="cls-5" cx="191.92" cy="490.37" r="40.49"/>
      <text class="cls-16" transform="translate(163.76 503.2)"><tspan x="0" y="0">100</tspan></text>
    </g>
  </g>
</svg>