<?xml version="1.0" encoding="UTF-8"?>
<svg id="Layer_1" data-name="Layer 1" xmlns="http://www.w3.org/2000/svg" xmlns:xlink="http://www.w3.org/1999/xlink" viewBox="0 0 1000 1000">
  <defs>
    <style>
      .cls-1 {
        fill: #5c5c5c;
      }

      .cls-1, .cls-2, .cls-3, .cls-4, .cls-5, .cls-6, .cls-7, .cls-8, .cls-9, .cls-10, .cls-11, .cls-12 {
        stroke-width: 0px;
      }

      .cls-13 {
        clip-path: url(#clippath);
      }

      .cls-2 {
        fill: none;
      }

      .cls-3 {
        fill: url(#linear-gradient);
      }

      .cls-4 {
        fill: #575757;
      }

      .cls-5 {
        fill: #acacac;
      }

      .cls-6 {
        fill: #bebebe;
      }

      .cls-7 {
        fill: #3f3f3f;
      }

      .cls-8 {
        fill: #ededed;
      }

      .cls-9 {
        opacity: .2;
      }

      .cls-9, .cls-11, .cls-12 {
        fill: #373737;
      }

      .cls-10 {
        fill: #181818;
      }

      .cls-12 {
        opacity: .22;
      }
    </style>
    <linearGradient id="linear-gradient" x1="-21.59" y1="987.88" x2="590.5" y2="413.89" gradientUnits="userSpaceOnUse">
      <stop offset="0" stop-color="#575757"/>
      <stop offset=".81" stop-color="#dadada"/>
      <stop offset="1" stop-color="#dadada"/>
    </linearGradient>
    <clipPath id="clippath">
      <ellipse class="cls-2" cx="496.54" cy="501.03" rx="420.7" ry="419.66"/>
    </clipPath>
  </defs>
  <circle class="cls-3" cx="497.68" cy="500.93" r="419.56"/>
  <path class="cls-4" d="M500,27.75c63.77,0,125.61,12.48,183.81,37.1,56.23,23.78,106.74,57.84,150.12,101.22,43.38,43.38,77.43,93.89,101.22,150.12,24.62,58.2,37.1,120.05,37.1,183.81s-12.48,125.61-37.1,183.81c-23.78,56.23-57.84,106.74-101.22,150.12-43.38,43.38-93.89,77.43-150.12,101.22-58.2,24.62-120.05,37.1-183.81,37.1s-125.61-12.48-183.81-37.1c-56.23-23.78-106.74-57.84-150.12-101.22-43.38-43.38-77.43-93.89-101.22-150.12-24.62-58.2-37.1-120.05-37.1-183.81s12.48-125.61,37.1-183.81c23.78-56.23,57.84-106.74,101.22-150.12,43.38-43.38,93.89-77.43,150.12-101.22,58.2-24.62,120.05-37.1,183.81-37.1M500,0C223.86,0,0,223.86,0,500s223.86,500,500,500,500-223.86,500-500S776.14,0,500,0h0Z"/>
  <g class="cls-13">
    <g>
      <path class="cls-1" d="M341.88,908.16c2.61,6.18,11.89,16.83,19.9,30.27,16.44,27.59,35.92,62.54,40.24,63.79,9.52,2.76,57.11-34.4,55.73-43.71-2.12-14.3-23.04-48.12-44.88-78.95,0,0-76.06,16.59-70.98,28.6Z"/>
      <path class="cls-12" d="M451.59,941.68c-8.18-16.85-23.21-40.24-38.72-62.12,0,0-39.92-.31-35.55,21.84,4.36,22.14,50.13,13.71,74.27,40.28Z"/>
      <path class="cls-11" d="M390.99,987.41c5.04,8.63,8.8,14.15,11.03,14.8,9.52,2.76,57.11-34.4,55.73-43.71-.55-3.73-2.39-8.79-5.19-14.78,0,0-47.93,37.5-61.57,43.69Z"/>
      <path class="cls-1" d="M404.06,913.37c24.85-5.56,93.99-23.27,108.19-28.28,13.93-4.92,12.63-42.11,0-62.52-10.14-16.38-30.46-17.58-34.32-15.63-16.53,8.36-54.3,22.26-84.83,27.71-5.6,1-32.32.07-46.52,18.11-15.41,19.58-15.02,51.45,3.76,65.32,13.43,9.92,53.72-4.71,53.72-4.71Z"/>
      <path class="cls-1" d="M595.87,839.5c-35.84,57.65,25.72,119.59,30.38,128.16,18.23,33.51-14.02,60.7-7.81,68.69,6.08,7.82,66.47,5.67,70.84-2.68,11.22-21.43,22.03-61.67,22.03-71.32,0-13.4-15.33-16.47-18.23-24.85-2.89-8.38,50.45-63.26-.29-122.58-20.54-24.01-76.09-8.94-96.92,24.57Z"/>
      <path class="cls-9" d="M670.06,935.12c.2,3.9,6.65,3.8,13.24,9.68,8.21,7.32,16.76,18.19,17.2,20.53,1.4,7.53-7.97,53.93-11.66,68.97.18-.2.33-.41.44-.62,11.22-21.43,22.03-61.67,22.03-71.32,0-13.4-15.33-16.47-18.23-24.85-1.71-4.94,17.01-25.48,21.55-54.12,1.98-12.48,2.61-28.1-5.24-41.57,0,0,1.18,17.23-19.01,59.81-11.38,24-20.52,29.77-20.33,33.49Z"/>
      <path class="cls-1" d="M741.98,810.44c-5.5-14.17-10.17-42.49,3.48-54.29,19.54-16.89,47.19-13.49,54.66-25.86,3.8-6.28,16.46,46.26-6.83,67.78-20.6,19.04-51.32,12.37-51.32,12.37Z"/>
      <path class="cls-12" d="M741.98,810.44c-2.66-6.84-5.12-16.99-5.42-26.98,1.01-1.56,9.08.94,16.73,5.39,22.84-5.14,32.21-28.38,33.78-27.22-5.47,23.57-25.79,32.84-24.5,34.12,1.79,1.78,3.23,3.66,4.11,5.58,35.57-16.87,38.92-43.39,33.44-71.04,3.8-6.28,16.46,46.26-6.83,67.78-20.6,19.04-51.32,12.37-51.32,12.37Z"/>
      <path class="cls-1" d="M414.08,771.5c9.47-7.95,78.28,1.07,118.23,0,77.11,42.14,148.74-20.2,210.2,19.05,31.47,20.09,67.85,76.25,28.93,143.15-8.31,15.37-17.51,24.11-28.17,33.48-19.91,17.51-206.6,14.94-247.95-11.04-62.1-39.01-93.62-174.25-81.25-184.64Z"/>
      <path class="cls-12" d="M780.37,836.56c1.98,112.15-156.32,103.2-182.98,111.07-23.43,6.92-48.4,10.6-73.17,10.09,12.72,9.52,26.83,17.28,40.98,24.59,71.05,4.57,164.48-3.17,178.08-15.13,10.66-9.37,29.08-17.93,36.83-32.37,21.6-37.14,11.34-72.07.26-98.25Z"/>
      <path class="cls-12" d="M478.46,893.53c-.2-14.66,27.36-37.32,35.33-37.87,21.64-1.49,97.75-26.8,112.69-70.74-29.26,3.57-59.74,3.73-91.13-13.42-39.95,1.07-108.76-7.95-118.23,0-12.37,10.39,16.16,146.63,78.27,185.64,6.92,4.35,22,10.36,35.82,12.9-38.94-24.28-52.57-64.34-52.74-76.51Z"/>
      <path class="cls-8" d="M620.31,950.58c-25.14-3.73-52.19-12.33-70.46-32.26-20.49-22.36-29.46-54.21-31.38-84.84-1.27-20.26.87-42.27,7.73-61.89-26.9.09-63.58-3.32-87.8-3.39-12.24-.04-3.67,151.42,58.43,190.43,41.35,25.98,226.54,26.06,246.46,8.55-47.53-2.6-94.59-12.4-122.97-16.6Z"/>
      <path class="cls-6" d="M520.85,853.99c-1.17-6.82-1.95-13.69-2.38-20.51-1.27-20.26.87-42.27,7.73-61.89-26.9.09-63.58-3.32-87.8-3.39-6.56-.02-7.48,46.28,4.46,95.04,32.82,2.49,77.99-9.25,77.99-9.25Z"/>
      <path class="cls-6" d="M620.31,950.58c-19.23-2.85-39.59-8.57-56.27-20.02-4.54,22.11-46.82,28.07-78.16,17.65,29.35,43.67,237.49,36.48,257.4,18.97-47.53-2.6-94.59-12.4-122.97-16.6Z"/>
      <path class="cls-1" d="M669.17,855.13c-29.65,57.65,38.56,119.59,44.15,128.16,21.83,33.51-7.5,60.7-.43,68.69,6.92,7.82,67.08,5.67,70.55-2.68,8.92-21.43,15.41-61.67,14.37-71.32-1.44-13.4-17.1-16.47-20.9-24.85-3.79-8.38,43.65-63.26-13.46-122.58-23.12-24.01-77.05-8.94-94.28,24.57Z"/>
      <path class="cls-12" d="M753.62,950.75c.61,3.9,7.06,3.8,14.28,9.68,9,7.32,18.72,18.19,19.41,20.53,2.21,7.53-2.17,53.93-4.25,68.97.16-.2.29-.41.38-.62,8.92-21.43,15.41-61.67,14.37-71.32-1.44-13.4-17.1-16.47-20.9-24.85-2.24-4.94,14.28-25.48,15.74-54.12.64-12.48-2.34-33.43-13.03-47.45,0,0,5.54,27.51-10.07,70.09-8.8,24-16.51,25.37-15.92,29.09Z"/>
      <path class="cls-12" d="M605.27,923.4s4.48-22.33,7.46-25.31c2.98-2.98,18.41,50.12,18.41,50.12l-21.39-.99-4.48-23.82Z"/>
      <path class="cls-1" d="M538.83,887.52c15.04,62.55-9.97,162.05-3.76,170.04,6.08,7.82,66.47,5.67,70.84-2.68,11.22-21.43,12.13-117.95,8.14-155.08-2.84-26.42-77.49-21.72-75.22-12.29Z"/>
      <path class="cls-1" d="M399.35,789.3c-150.66-38.6-166.12-141.98-154.02-244.36,9.88-83.55,59.73-166.17,142.35-184.83,62.71-14.17,117.99-6.2,165.03,6.86,90.88,25.25,149.65,91.9,165.18,163.54,21.2,97.82-25.6,333.85-318.54,258.79Z"/>
      <path class="cls-12" d="M717.89,530.51c-2.07-9.55-4.92-19-8.5-28.28-.48,1.59-.99,3.17-1.53,4.75.97,3.21,1.84,6.43,2.6,9.67,21.08,89.09-21.5,303.19-301.66,232.41-144.09-36.4-159.75-130.49-149.1-223.42,5.61-48.97,27.14-97.44,62.86-130.02-.39-.77-.78-1.55-1.18-2.32-43.03,36.01-69.19,93.6-76.06,151.64-12.11,102.37,3.36,205.75,154.02,244.36,292.94,75.06,339.74-160.96,318.54-258.79Z"/>
      <path class="cls-1" d="M661.24,451.84c22.47-71.54,192.91-21.05,201.58-6.45,8.08,13.62-78.58,144.39-165.24,120.71-43.02-21.62-42.16-95.75-36.34-114.27Z"/>
      <path class="cls-5" d="M692.97,466.62c3.3-11.3,29.86-20.43,52.86-20.64,36.54-.33,76.15,10.51,79.65,16.4,5.31,8.95-51.66,94.92-108.62,79.35,1.82-51.97-24.55-65.2-23.89-75.11Z"/>
      <path class="cls-1" d="M374.22,396.91c13.69-73.71-160.62-108.64-175.13-99.78-13.53,8.26,1.73,164.29,89.42,183.81,48.16.97,82.17-64.94,85.71-84.03Z"/>
      <path class="cls-5" d="M339.25,395.17c2.39-11.53-16.81-31.99-37.04-42.91-32.14-17.35-72.23-26.25-78.09-22.68-8.89,5.43,1.13,108,58.78,120.83,22.77-46.77,52.28-46.16,56.34-55.24Z"/>
      <path class="cls-11" d="M817.58,315.49c-7.51-9.1-20.99-10.4-30.11-2.91-7.09,5.82-16.32,8.65-28.9,8.82-13.28.18-12.29-13.83-12.23-16.36.33-12.06-1.21-21.6-4.6-28.44-5.24-10.56-18.07-14.89-28.66-9.67-10.35,5.11-14.73,17.46-10.02,27.88.84,3.28,1.4,10.58-.02,16.9-2.62,11.62-24.91,14.83-29.54,16.07-5.95,1.59-14.84,2.43-19.73-6.8-2.35-4.45-3.04-9.16-4.45-12.8-4.27-10.99-16.66-16.44-27.67-12.18-11.01,4.26-16.48,16.62-12.21,27.61,7.53,19.39,10.68,28.72,6.07,41.39-6.74,9.25-12.17,19.93-17.15,32.09-2.56,12.3,33.54,31.85,37.27,22.05,12.48-32.76,22.55-43.07,48.96-50.14,16.79-4.49,34.35-4.48,51.33-4.46,27.3.03,55.53.05,78.74-19.01,9.12-7.49,10.43-20.94,2.92-30.03Z"/>
      <path class="cls-11" d="M270.16,213.74c10.29-5.79,23.33-2.16,29.14,8.1,4.51,7.98,12.1,13.93,23.78,18.62,12.33,4.94,16.46-8.49,17.31-10.87,4.05-11.37,8.93-19.72,14.56-24.88,8.7-7.97,22.23-7.4,30.22,1.28,7.82,8.49,7.44,21.58-.71,29.61-1.97,2.76-5.13,9.37-6.08,15.77-1.76,11.78,17.89,22.78,21.75,25.6,4.98,3.63,12.97,7.6,20.86.74,3.8-3.31,6.14-7.46,8.78-10.34,7.95-8.72,21.48-9.35,30.22-1.42,8.74,7.93,9.38,21.43,1.43,30.14-14.03,15.38-20.34,22.96-20.61,36.43,2.95,11.05,4.16,22.96,4.41,36.1-2.05,12.39-42.79,17.66-42.73,7.18.18-35.05-5.49-48.28-27.57-64.37-14.04-10.22-30.43-16.52-46.27-22.6-25.48-9.78-51.82-19.9-66.59-46.03-5.8-10.26-2.17-23.28,8.12-29.07Z"/>
      <ellipse class="cls-10" cx="597.3" cy="651.95" rx="38.71" ry="33.14" transform="translate(-154.37 1117.56) rotate(-79.28)"/>
      <path class="cls-11" d="M585.04,577.37s4.38-17.36,10.91-21.82c6.53-4.47,49.66,20.59,56.83,31,0,0-3.08,16.46-7.2,20.24-4.12,3.78-55.24-27.3-60.54-29.42Z"/>
      <path class="cls-10" d="M332.91,564.31c-17.74-4.49-36.4,8.66-41.67,29.38-1.51,5.94-1.75,11.86-.92,17.39,7.1-17,23.7-27.11,39.56-23.09,12.65,3.21,21.42,14.52,23.49,28.27.84-2.01,1.55-4.1,2.11-6.29,5.27-20.72-4.83-41.16-22.57-45.65Z"/>
      <path class="cls-11" d="M358.98,537.51s3.32-17.59-.72-24.37c-4.05-6.78-53.74-2.09-64.62,4.36,0,0-4.13,16.23-1.98,21.38,2.15,5.15,61.63-1.67,67.33-1.38Z"/>
      <path class="cls-8" d="M406.11,796.63c-102.87-23.91-99.88-145.83-13.87-157.76,10.93-1.51,21.44-2.21,31.49-2.19,26.47.04,49.72,5.05,68.98,13.24,31,13.15,51.69,34.49,58.8,56.52,11.9,36.83-1.43,123.66-145.41,90.2Z"/>
      <path class="cls-6" d="M499.28,674.19c-3.56,19.08-26.82,30.77-51.93,26.1-25.12-4.67-42.59-23.93-39.02-43.01,1.62-8.68,7.31-15.83,15.41-20.61,26.47.04,49.72,5.05,68.98,13.24,5.58,7.26,8.15,15.78,6.57,24.28Z"/>
      <path class="cls-6" d="M551.52,706.44c-13.23-40.93-73.27-79.49-159.28-67.56-86.01,11.92-89.01,133.85,13.87,157.76,143.98,33.46,157.31-53.38,145.41-90.2ZM413.51,764.4c-96.31-21.61-97.03-116.73-17.43-123.58,79.6-6.85,136.52,24.98,149.99,57.32,12.12,29.09,2.23,96.52-132.56,66.27Z"/>
      <path class="cls-7" d="M435.01,744.69c-2.16-.4-3.59-2.47-3.18-4.63.49-2.61,12.02-64.19,18.15-80.6.77-2.05,3.06-3.1,5.12-2.33,2.06.76,3.11,3.05,2.34,5.11-5.89,15.78-17.67,78.65-17.79,79.29-.4,2.16-2.48,3.58-4.64,3.18Z"/>
      <path class="cls-7" d="M431.73,746.49c-31.65-5.88-50.07-29.5-49.74-50.08.04-2.19,1.85-3.94,4.04-3.91,2.2.04,3.95,1.84,3.92,4.03-.29,17.65,17.73,39.03,47.34,42.78,29.18,3.7,48.7-3.25,59.65-21.23,1.14-1.87,3.59-2.47,5.47-1.33,1.88,1.14,2.48,3.58,1.33,5.45-12.58,20.66-35.28,29.06-67.46,24.99-1.55-.2-3.07-.43-4.56-.71Z"/>
      <ellipse class="cls-1" cx="454.05" cy="659.02" rx="28.51" ry="40.29" transform="translate(-276.56 985.64) rotate(-79.52)"/>
      <path class="cls-11" d="M489.48,648.96c.18,1.98.11,3.99-.27,5.99-2.89,15.48-22.09,24.89-42.89,21.02-16.08-2.99-28.4-13.05-31.82-24.61-.02.1-.05.19-.06.29-2.89,15.48,12.5,31.32,34.38,35.38,21.88,4.07,41.95-5.18,44.84-20.66,1.12-5.99-.51-12.02-4.18-17.42Z"/>
      <path class="cls-5" d="M428.51,653.51c-3.12-3.61-4.07-8.71-3.45-12,.62-3.29,14.63-11.29,40.31-6.52,5.5,1.02-1.87,12.71-3.63,13.33-4.88,1.74-30.1,8.79-33.23,5.18Z"/>
    </g>
  </g>
</svg>