<?xml version="1.0" encoding="UTF-8"?>
<svg id="Layer_1" data-name="Layer 1" xmlns="http://www.w3.org/2000/svg" xmlns:xlink="http://www.w3.org/1999/xlink" viewBox="0 0 1000 1000">
  <defs>
    <style>
      .cls-1 {
        fill: #d1d1d1;
      }

      .cls-1, .cls-2, .cls-3, .cls-4, .cls-5, .cls-6, .cls-7, .cls-8, .cls-9, .cls-10, .cls-11, .cls-12, .cls-13 {
        stroke-width: 0px;
      }

      .cls-2 {
        fill: #5c5c5c;
      }

      .cls-14 {
        clip-path: url(#clippath);
      }

      .cls-3 {
        fill: none;
      }

      .cls-15 {
        opacity: .05;
      }

      .cls-4 {
        fill: #efefef;
      }

      .cls-5 {
        fill: #1a1a1a;
      }

      .cls-6 {
        fill: url(#linear-gradient);
      }

      .cls-7 {
        fill: #bbb;
      }

      .cls-8 {
        fill: #575757;
      }

      .cls-9 {
        fill: #acacac;
      }

      .cls-16 {
        opacity: .35;
      }

      .cls-10 {
        fill: #e8e8e8;
      }

      .cls-11 {
        fill: #a4a4a4;
      }

      .cls-12 {
        fill: #fff;
      }

      .cls-13 {
        fill: #373737;
      }
    </style>
    <linearGradient id="linear-gradient" x1="-21.59" y1="987.88" x2="590.5" y2="413.89" gradientUnits="userSpaceOnUse">
      <stop offset="0" stop-color="#575757"/>
      <stop offset=".81" stop-color="#dadada"/>
      <stop offset="1" stop-color="#dadada"/>
    </linearGradient>
    <clipPath id="clippath">
      <circle class="cls-3" cx="496.54" cy="500" r="420.7"/>
    </clipPath>
  </defs>
  <circle class="cls-6" cx="497.68" cy="500.93" r="419.56"/>
  <path class="cls-8" d="M500,27.75c63.77,0,125.61,12.48,183.81,37.1,56.23,23.78,106.74,57.84,150.12,101.22,43.38,43.38,77.43,93.89,101.22,150.12,24.62,58.2,37.1,120.05,37.1,183.81s-12.48,125.61-37.1,183.81c-23.78,56.23-57.84,106.74-101.22,150.12-43.38,43.38-93.89,77.44-150.12,101.22-58.2,24.62-120.05,37.1-183.81,37.1s-125.61-12.48-183.81-37.1c-56.23-23.78-106.74-57.84-150.12-101.22-43.38-43.38-77.43-93.89-101.22-150.12-24.62-58.2-37.1-120.05-37.1-183.81s12.48-125.61,37.1-183.81c23.78-56.23,57.84-106.74,101.22-150.12,43.38-43.38,93.89-77.44,150.12-101.22,58.2-24.62,120.05-37.1,183.81-37.1M500,0C223.86,0,0,223.86,0,500s223.86,500,500,500,500-223.86,500-500S776.14,0,500,0h0Z"/>
  <g class="cls-14">
    <g>
      <g>
        <circle class="cls-12" cx="318.28" cy="175.7" r="14.4"/>
        <circle class="cls-12" cx="226.6" cy="278.75" r="14.4"/>
        <circle class="cls-12" cx="440.27" cy="227.23" r="14.4"/>
        <circle class="cls-12" cx="461.49" cy="139.71" r="7.2"/>
        <circle class="cls-12" cx="339.11" cy="250.45" r="7.2"/>
      </g>
      <g>
        <circle class="cls-12" cx="529.65" cy="219.26" r="14.4"/>
        <circle class="cls-12" cx="437.96" cy="322.31" r="14.4"/>
        <circle class="cls-12" cx="651.64" cy="270.78" r="14.4"/>
        <circle class="cls-12" cx="672.85" cy="183.27" r="7.2"/>
        <circle class="cls-12" cx="550.48" cy="294" r="7.2"/>
      </g>
      <g>
        <circle class="cls-12" cx="693.76" cy="348.33" r="14.4"/>
        <circle class="cls-12" cx="602.08" cy="451.38" r="14.4"/>
        <circle class="cls-12" cx="815.75" cy="399.86" r="14.4"/>
        <circle class="cls-12" cx="836.97" cy="312.34" r="7.2"/>
        <circle class="cls-12" cx="714.59" cy="423.08" r="7.2"/>
      </g>
      <g>
        <circle class="cls-12" cx="245.23" cy="362.51" r="14.4"/>
        <circle class="cls-12" cx="153.54" cy="465.56" r="14.4"/>
        <circle class="cls-12" cx="367.22" cy="414.03" r="14.4"/>
        <circle class="cls-12" cx="388.43" cy="326.52" r="7.2"/>
        <circle class="cls-12" cx="266.06" cy="437.25" r="7.2"/>
      </g>
      <g>
        <circle class="cls-12" cx="339.44" cy="568.9" r="14.4"/>
        <circle class="cls-12" cx="431.13" cy="465.85" r="14.4"/>
        <circle class="cls-12" cx="217.45" cy="517.37" r="14.4"/>
        <circle class="cls-12" cx="196.24" cy="604.89" r="7.2"/>
        <circle class="cls-12" cx="318.61" cy="494.15" r="7.2"/>
      </g>
      <g>
        <circle class="cls-12" cx="751.63" cy="671.71" r="14.4"/>
        <circle class="cls-12" cx="843.31" cy="568.66" r="14.4"/>
        <circle class="cls-12" cx="629.64" cy="620.19" r="14.4"/>
        <circle class="cls-12" cx="608.42" cy="707.7" r="7.2"/>
        <circle class="cls-12" cx="730.8" cy="596.97" r="7.2"/>
      </g>
    </g>
    <g>
      <polygon class="cls-7" points="935.22 815.82 925.8 834.89 817.08 1055.01 765.69 1070.98 717.76 1085.88 694.54 1093.1 717.86 893.66 785.63 869.38 885.35 833.67 935.22 815.82"/>
      <g>
        <polygon class="cls-4" points="935.22 815.82 717.86 893.66 467.53 834.67 242.16 866.91 63.5 787.74 69.21 784.94 180.36 730.34 752.18 726.77 927.66 812.12 935.22 815.82"/>
        <polygon class="cls-4" points="317.64 1093.1 301.2 1083.58 246.32 1051.83 185.94 1016.89 63.5 787.74 242.16 866.91 317.64 1093.1"/>
        <path class="cls-12" d="M317.64,1096.32c-.55,0-1.11-.14-1.62-.43l-131.71-76.21c-.52-.3-.94-.74-1.23-1.27l-122.43-229.15c-.65-1.22-.45-2.71.48-3.72.94-1.01,2.4-1.31,3.67-.75l178.66,79.16c.83.37,1.46,1.07,1.75,1.93l75.49,226.2c.42,1.27.02,2.67-1.02,3.52-.59.48-1.31.73-2.04.73ZM188.35,1014.56l123.54,71.48-72.34-216.77-168.79-74.79,117.59,220.08Z"/>
        <polygon class="cls-7" points="499.23 1062.5 381.9 1082.26 334.86 1090.2 317.64 1093.1 242.16 866.91 382.52 846.82 466.52 834.82 467.53 834.67 499.23 1062.5"/>
        <path class="cls-12" d="M317.64,1096.32c-1.37,0-2.61-.87-3.06-2.2l-75.49-226.2c-.3-.91-.19-1.9.32-2.71.5-.81,1.34-1.36,2.29-1.5l225.37-32.23c.85-.11,1.71.09,2.4.61s1.14,1.28,1.26,2.13l31.69,227.83c.24,1.73-.94,3.34-2.66,3.62l-181.58,30.6c-.18.03-.36.04-.54.04ZM246.44,869.55l73.39,219.91,175.77-29.62-30.81-221.52-218.35,31.23Z"/>
        <polygon class="cls-4" points="717.86 893.66 694.54 1093.1 642.39 1084.94 499.23 1062.5 467.53 834.67 499.62 842.23 535.73 850.74 717.86 893.66"/>
        <path class="cls-12" d="M694.54,1096.32c-.17,0-.33-.01-.5-.04l-195.32-30.6c-1.4-.22-2.5-1.33-2.69-2.74l-31.69-227.83c-.15-1.05.23-2.11,1.02-2.83.79-.72,1.87-.99,2.91-.76l250.33,59c1.59.38,2.65,1.89,2.46,3.51l-23.31,199.44c-.1.87-.55,1.66-1.25,2.19-.57.43-1.25.66-1.95.66ZM502.09,1059.68l189.64,29.72,22.59-193.26-242.95-57.25,30.72,220.8Z"/>
        <path class="cls-12" d="M694.54,1096.32c-.74,0-1.47-.25-2.06-.74-.84-.7-1.27-1.77-1.14-2.86l23.31-199.44c.14-1.22.96-2.25,2.11-2.66l217.37-77.84c1.23-.44,2.62-.09,3.49.89.87.98,1.07,2.39.48,3.57l-118.14,239.19c-.39.79-1.09,1.39-1.93,1.65l-122.53,38.09c-.31.09-.63.14-.96.14ZM720.83,896.02l-22.51,192.53,116.48-36.21,114-230.8-207.97,74.48Z"/>
        <polygon class="cls-12" points="935.22 815.82 717.86 893.66 467.53 834.67 242.16 866.91 63.5 787.74 69.21 784.94 242.16 848.28 462.77 822.96 711.93 871.94 927.66 812.12 935.22 815.82"/>
        <path class="cls-12" d="M717.86,896.89c-.25,0-.5-.03-.74-.09l-249.73-58.86-224.77,32.15c-.6.09-1.21,0-1.76-.24l-178.66-79.16c-1.15-.51-1.89-1.63-1.92-2.88-.02-1.25.68-2.41,1.8-2.96l116.85-57.41c.44-.21.91-.33,1.4-.33l571.82-3.57c.42,0,.99.11,1.43.32l183.05,89.06c1.17.57,1.87,1.78,1.8,3.07-.07,1.3-.91,2.42-2.13,2.86l-217.36,77.84c-.35.13-.72.19-1.09.19ZM467.53,831.44c.25,0,.5.03.74.09l249.4,58.78,209.27-74.95-.69-.34-174.8-85.03-570.33,3.56-110,54.04,171.5,75.99,224.46-32.11c.15-.02.3-.03.46-.03Z"/>
        <g class="cls-15">
          <ellipse class="cls-2" cx="509.27" cy="790.63" rx="289.81" ry="29.28"/>
        </g>
        <path class="cls-10" d="M283.14,571.45s-52.57,40.89-128.41,32.58c-15.18-1.66-27.19,12.63-22.55,27.18,8.56,26.82,28.53,63.15,75,80.54,78.68,29.46,136.04-14.34,136.04-14.34l-60.07-125.96Z"/>
        <path class="cls-1" d="M329.66,669c-6.96,4.95-61.82,41.28-135.27,13.78-31.22-11.69-50.46-31.91-62.34-52.07.05.16.07.33.12.49,8.56,26.82,28.53,63.15,75,80.54,78.68,29.46,136.04-14.34,136.04-14.34l-13.55-28.41Z"/>
        <path class="cls-10" d="M750.16,638.89s-57.35,155.93-281.37,151.27c-108.02-2.24-158.59-62.38-182.24-117.93-20.66-48.44-20.85-93.42-20.85-93.42,0,0-66.15-39.78-31.01-129.71,35.14-89.91,130.75-123.51,207.23-88.36,39.42,18.11,64.27,49.96,76.36,86.75h.02c7.07,21.6,9.77,44.9,8.41,68.12-.92,15.81,13.24,27.94,28.28,24.99.92-.15,1.82-.38,2.74-.67,20.7-6.53,48.94-11.57,82.34-7.63,0,0-4.25-60.46,33.73-60.84,21.81-.23,33.54,15.27,39.55,28.51,4.62,10.19,15.18,16.37,26.33,15.46,17.34-1.4,42.2-.82,60.34,10.31.06.04.1.08.15.11,4.47,2.74,8.53,6.13,11.98,10.31,27.13,32.94,6.59,94.57-62.01,102.71Z"/>
        <path class="cls-10" d="M409.1,496.34c6.38,11.16,5.81,29.57-10.85,34.16-14.36,3.95-24.54-.73-27.67-2.49-1.56-.88-3.15-1.68-4.8-2.35-13.41-5.41-26.08-3.21-32.55-1.36-4.75,1.35-9.74,1.85-14.6.98-31.05-5.55-23.56-46.4,10.12-59.12,36.95-13.95,60.98,7.23,60.98,7.23,0,0,10.34,7.12,19.38,22.94Z"/>
        <path class="cls-1" d="M750.16,638.89s-57.35,155.93-281.37,151.27c-108.02-2.24-158.59-62.38-182.24-117.93,1.05-2.24,1.69-3.51,1.69-3.51,0,0,37.92,75.44,118.54,82.69,80.62,7.22,65.88-96.64,65.88-96.64,0,0-2.13-12.14-.11-25.74,1.27-8.5,12.1-11.49,17.66-4.94,14.44,17,43.85,42.72,91.35,45.8,71.71,4.64,112.01-40.32,112.01-40.32,0,0,59-1.3,26.98-46.39.9.98,20.47,21.65,58.81,8.03,38.69-13.74,24.59-62.03,20.83-65.35,4.47,2.74,8.53,6.13,11.98,10.31,27.13,32.94,6.59,94.57-62.01,102.71Z"/>
        <path class="cls-1" d="M555,540.61c-15.97,23.98-73.45,31.83-104.3,34.34-2.29.19-2.95-3.05-.78-3.79,84.37-28.53,68.36-123.67,68.36-123.67h.02c7.07,21.6,9.77,44.9,8.41,68.12-.92,15.81,13.24,27.94,28.28,24.99Z"/>
        <path class="cls-12" d="M652.3,533.28s-3.89-72.25,50.09-49.88c0,0-17.14-19.88-39.62-9.41-22.48,10.46-23.06,57.36-23.06,57.36l12.6,1.94Z"/>
        <path class="cls-1" d="M305.49,488.64s-4.65,27.65,15.76,24.03c20.41-3.62,30.88-7.1,50.77.33,19.9,7.42,41.86,4.45,37.21-12.99,0,0,8.93,7.49,1.04,21.57-7.89,14.09-27.4,12.92-40.7,5.69-13.31-7.23-31.26-6.46-41.6-2.2-10.34,4.26-43.41-7.75-22.48-36.43Z"/>
        <ellipse class="cls-9" cx="261.31" cy="499.28" rx="23.58" ry="15.95"/>
        <ellipse class="cls-9" cx="453.97" cy="499.28" rx="25.41" ry="17.19"/>
        <path class="cls-13" d="M389.04,474.17c-9.53-4.91-20.13-8.03-30.8-8.8-7.25-.49-14.63.69-21.63,2.54-1.23.41-4.42,1.52-5.69,1.94-10.81,3.93-20.44,11.85-25.11,22.45-8.65,19.55,5.88,32.85,25.29,28.1,1.31-.38,2.94-.79,4.23-1.09,7.46-1.71,15.18-1.99,22.79-.59,4.56.85,9.14,2.26,13.26,4.41,3.22,1.85,6.73,3.2,10.45,3.77,8.85,1.24,20.51.45,25.59-8.02,3.68-6.48,3.32-14.85.27-21.63-.43-.85-.06-1.9.81-2.29.71-.32,1.54-.11,2.01.47,1.93,2.37,3.39,5.13,4.36,8.07,3.21,9.18,1.03,20.62-6.94,26.85-9.97,7.57-25.52,8.05-36.85,3.17-2.47-1.07-4.91-2.74-7.42-3.68-8.31-3.43-17.65-3.94-26.46-2.06-1.17.29-2.8.67-3.96,1.01-15.94,4.52-35.86-3.16-38.26-21.11-2.52-19.41,12.25-36.68,28.84-44.02,3.16-1.47,7.28-2.59,10.59-3.66,7.93-1.95,16.26-2.95,24.41-2.11,5.95.57,11.83,2,17.25,4.45,5.39,2.5,10.43,5.71,14.33,10.29.76.92-.38,2.18-1.36,1.55h0Z"/>
        <ellipse class="cls-13" cx="329.06" cy="496.73" rx="2.58" ry="3.96" transform="translate(-215.68 255.33) rotate(-32.58)"/>
        <ellipse class="cls-13" cx="363.62" cy="496.73" rx="3.96" ry="2.58" transform="translate(-250.74 535.68) rotate(-57.42)"/>
        <path class="cls-13" d="M392.23,533.48s-1.11,2.45-3.18,5.94c-3.68,6.25-10.39,15.81-19.09,20.41-13.57,7.17-21.52,3.68-26.37-11.82-.36-1.15-.75-2.26-1.17-3.32-5.06-13.09-13.36-18.45-13.36-18.45,7.74-4.52,26.35-7.68,38.02,0,11.67,7.68,25.14,7.24,25.14,7.24Z"/>
        <path class="cls-11" d="M385.75,542.04c-3.16,5.36-8.92,13.57-16.38,17.52-11.65,6.15-18.47,3.16-22.64-10.15-.31-.99-.64-1.94-1-2.85,3.59-4.05,8.7-8,15.64-9.46,10.23-2.17,19.13,1.69,24.38,4.94Z"/>
        <ellipse class="cls-5" cx="420.92" cy="471.77" rx="22.73" ry="26.27"/>
        <ellipse class="cls-12" cx="426.24" cy="468.07" rx="9.04" ry="10.45"/>
        <g class="cls-16">
          <ellipse class="cls-12" cx="414.72" cy="483.83" rx="5.35" ry="6.18" transform="translate(-195.26 299.41) rotate(-32.58)"/>
        </g>
        <ellipse class="cls-5" cx="291.67" cy="471.77" rx="20.99" ry="24.26"/>
        <ellipse class="cls-12" cx="296.58" cy="468.35" rx="8.35" ry="9.65"/>
        <g class="cls-16">
          <ellipse class="cls-12" cx="285.94" cy="482.91" rx="4.94" ry="5.71" transform="translate(-215.02 229.93) rotate(-32.58)"/>
        </g>
        <path class="cls-12" d="M270.85,430.31c-5.15,3.76-11.71-2.41-8.15-7.71,12.96-19.29,36.51-44.1,76.24-56.16,47.78-14.5,88.57,1.08,112.03,14.42,5.4,3.07,2.68,11.32-3.49,10.61-38.67-4.48-115.27-5.95-176.64,38.85Z"/>
      </g>
    </g>
  </g>
</svg>