<?xml version="1.0" encoding="UTF-8"?>
<svg id="Layer_1" data-name="Layer 1" xmlns="http://www.w3.org/2000/svg" xmlns:xlink="http://www.w3.org/1999/xlink" viewBox="0 0 1000 1000">
  <defs>
    <style>
      .cls-1 {
        fill: #eef2e3;
      }

      .cls-1, .cls-2, .cls-3, .cls-4, .cls-5, .cls-6, .cls-7, .cls-8, .cls-9, .cls-10, .cls-11 {
        stroke-width: 0px;
      }

      .cls-12 {
        clip-path: url(#clippath);
      }

      .cls-2 {
        fill: none;
      }

      .cls-3 {
        fill: url(#linear-gradient);
      }

      .cls-4 {
        fill: #008456;
      }

      .cls-13 {
        filter: url(#drop-shadow-1);
      }

      .cls-5 {
        fill: #d1d1d1;
      }

      .cls-6 {
        fill: #004c30;
      }

      .cls-7 {
        fill: #e8e8e8;
      }

      .cls-8 {
        fill: #ff7d7d;
      }

      .cls-9 {
        fill: #ffef02;
      }

      .cls-10 {
        fill: #493800;
      }

      .cls-11 {
        fill: #fff;
      }
    </style>
    <filter id="drop-shadow-1" filterUnits="userSpaceOnUse">
      <feOffset dx="1" dy="1"/>
      <feGaussianBlur result="blur" stdDeviation="8"/>
      <feFlood flood-color="#6bc64a" flood-opacity=".2"/>
      <feComposite in2="blur" operator="in"/>
      <feComposite in="SourceGraphic"/>
    </filter>
    <linearGradient id="linear-gradient" x1="-21.59" y1="987.88" x2="590.5" y2="413.89" gradientUnits="userSpaceOnUse">
      <stop offset="0" stop-color="#008456"/>
      <stop offset=".81" stop-color="#ffef02"/>
      <stop offset="1" stop-color="#ffef02"/>
    </linearGradient>
    <clipPath id="clippath">
      <circle class="cls-2" cx="496.54" cy="500" r="420.7"/>
    </clipPath>
  </defs>
  <g class="cls-13">
    <circle class="cls-3" cx="497.68" cy="500.93" r="419.56"/>
    <path class="cls-4" d="M500,27.75c63.77,0,125.61,12.48,183.81,37.1,56.23,23.78,106.74,57.84,150.12,101.22,43.38,43.38,77.43,93.89,101.22,150.12,24.62,58.2,37.1,120.05,37.1,183.81s-12.48,125.61-37.1,183.81c-23.78,56.23-57.84,106.74-101.22,150.12-43.38,43.38-93.89,77.44-150.12,101.22-58.2,24.62-120.05,37.1-183.81,37.1s-125.61-12.48-183.81-37.1c-56.23-23.78-106.74-57.84-150.12-101.22-43.38-43.38-77.43-93.89-101.22-150.12-24.62-58.2-37.1-120.05-37.1-183.81s12.48-125.61,37.1-183.81c23.78-56.23,57.84-106.74,101.22-150.12,43.38-43.38,93.89-77.44,150.12-101.22,58.2-24.62,120.05-37.1,183.81-37.1M500,0C223.86,0,0,223.86,0,500s223.86,500,500,500,500-223.86,500-500S776.14,0,500,0h0Z"/>
    <g class="cls-12">
      <g>
        <path class="cls-4" d="M705.37,290.07c-4.42-7.24-6.61-15.93-5.67-25.02,2.27-22.06,21.99-38.12,44.05-35.85,22.06,2.27,38.12,21.99,35.85,44.05-2.27,22.06-21.99,38.12-44.05,35.85-6.14-.63-11.81-2.61-16.75-5.62l-18.59,4.17,5.16-17.58Z"/>
        <path class="cls-6" d="M705.15,289.69c11,9.3,26.16,13.38,41.2,9.63,16.69-4.15,28.99-16.86,33.41-32.29.11,2.05.06,4.12-.16,6.22-2.27,22.06-21.99,38.12-44.05,35.85-6.14-.63-11.81-2.61-16.75-5.62l-18.59,4.17,5.16-17.58c-.08-.13-.15-.26-.23-.39Z"/>
        <path class="cls-9" d="M726.81,257.88h0c3.48-3.48,9.11-2.85,12.59.62l.54.54.54-.54c3.48-3.48,9.11-4.1,12.59-.62h0c3.48,3.48,3.48,9.11,0,12.59l-.54.54-10.93,10.93c-.92.92-2.4.92-3.32,0l-10.93-10.93-.54-.54c-3.48-3.48-3.48-9.11,0-12.59Z"/>
        <path class="cls-6" d="M779.33,690.84l-139.19,210.01c-.19.29-.11.67.17.86.28.19.66.11.85-.16l146.78-204.78c3.89-5.78-4.48-11.72-8.61-5.94h0Z"/>
        <path class="cls-6" d="M208.41,642.74l-112.96,225.21c-.15.31-.03.68.28.84.3.15.66.03.83-.26l121.12-220.93c3.17-6.2-5.85-11.1-9.26-4.86h0Z"/>
        <path class="cls-6" d="M193.14,599.29l-82.33,166.84c-.15.31-.03.68.28.83.3.15.66.03.82-.26l90.49-162.55c3.23-6.25-5.88-11.14-9.26-4.86h0Z"/>
        <path class="cls-6" d="M735.39,685.32l-172.95,258.78c-.23.34-.14.8.2,1.03.33.22.78.14,1.01-.19l180.35-253.68c3.85-5.74-4.46-11.7-8.61-5.94h0Z"/>
        <path class="cls-6" d="M589.58,773.71l-172.95,258.78c-.23.34-.14.8.2,1.03.33.22.78.14,1.01-.19l180.35-253.68c3.85-5.74-4.46-11.7-8.61-5.94h0Z"/>
        <path class="cls-7" d="M625.89,536.67s82.05,59.99,166.9,104.01c13.5,7,19.84,23.01,14.4,37.21-11.85,30.89-53.28,71.06-196.06,26.79l14.76-168.01Z"/>
        <path class="cls-5" d="M625.89,536.67s6.11,4.47,16.71,11.85l-6.22,70.78c-3.31,37.72,23.19,71.42,60.58,77.43,56.16,9.03,88.98.17,108.12-13.95-14.33,29.96-58.6,63.88-193.96,21.91l14.76-168.01Z"/>
        <path class="cls-7" d="M243.53,915.47c4.36,6.42,10.42,11.01,17.37,14.22,17.48,8.14,40.69,7.57,57.21,5.65,12.06-1.42,24.03,3.34,31.79,12.69,26.98,32.55,71.9,49.37,88.62,13.27,19.35-41.76,0-84.53,0-84.53,119.91-38.02,176.02-100.97,199.53-164.32.02-.06.04-.08.04-.08,38.16-102.86-9.55-206.76-9.55-206.76,0,0,64.55-31.57,68.63-92.15,4.08-60.59-40.21-82.49-40.21-82.49,0,0-27.89-100.35-160.9-75.35-143.57,26.98-118.12,174.06-118.12,174.06l-.45,2.13c-4.57,21.39-13.2,41.73-25.53,59.79-4.13,6.06-8.78,13.14-13.69,21.11v.02c-19.6,31.79-43.29,77.69-55.79,129.33-23.68,97.74,12.99,190.92,12.99,190.92,0,0-85.55,33.1-51.94,82.49Z"/>
        <path class="cls-5" d="M260.9,929.68c17.48,8.14,40.69,7.57,57.21,5.65,12.06-1.42,24.03,3.34,31.79,12.69,26.98,32.55,71.9,49.37,88.62,13.27,19.35-41.76,0-84.53,0-84.53,119.91-38.02,176.02-100.97,199.53-164.32-1.51,2.89-50.98,95.33-153.95,95.33-104.63,0-190.84-189.41-145.83-295.04-19.6,31.79-43.29,77.69-55.79,129.33-23.68,97.74,12.99,190.92,12.99,190.92,0,0,24.43-6.87,33.98-8.02,9.53-1.13,17.43,10.06-15.16,22.79-28.06,10.95-81.41,31.17-53.39,81.94Z"/>
        <path class="cls-5" d="M696.47,391.52s-13.56,84.05-113.35,102.89c-99.79,18.84-200.2-42.05-205.75-111.91,0,0-14.22,99.99,117.4,138.53,131.62,38.54,223.39-78.14,201.69-129.52Z"/>
        <path class="cls-11" d="M615.8,306.84c4.45,2.21,9.14-2.87,5.84-6.34-12.04-12.63-33.03-28.21-65.83-33.04-39.44-5.81-70.68,9.36-88.26,21.24-4.05,2.73-1.15,8.41,3.72,7.3,30.51-6.97,91.59-15.46,144.54,10.84Z"/>
        <path class="cls-10" d="M517.51,355.31c-10.03-14.88-32.12-20.13-46.86-8.91-4.71,3.43-8.38,7.81-10.77,12.74-.56,1.16-.08,2.56,1.08,3.13.77.37,1.63.29,2.3-.14,8.06-5.03,15.4-9.6,24.75-10.06,8.68-.47,17.6,3.31,25.29,7.39,2.76,1.77,5.98-1.4,4.21-4.15h0Z"/>
        <path class="cls-10" d="M653.03,344.92c-9.5-13.83-29.9-17.38-41.62-4.34-3.56,3.8-5.96,8.22-7.22,12.91-.31,1.15.37,2.34,1.53,2.65.74.2,1.5-.01,2.03-.5,6.18-5.42,11.62-10.83,19.6-12.24,7.27-1.28,15.29,2.12,21.88,5.4,2.54,1.56,5.46-1.42,3.81-3.88h0Z"/>
        <path class="cls-7" d="M510.86,392.8c-5.14,13.33-1.43,33.48,17.66,35.72,16.44,1.93,26.85-4.92,29.99-7.37,1.56-1.22,3.18-2.38,4.89-3.39,13.83-8.2,28.12-7.9,35.55-6.96,5.45.69,11.02.4,16.21-1.37,33.19-11.31,18.11-54.95-21.05-63.28-42.95-9.13-65.8,18.18-65.8,18.18,0,0-10.16,9.56-17.45,28.46Z"/>
        <path class="cls-5" d="M623.43,366.96s9.75,29.6-13.29,29.05c-23.04-.55-35.12-2.62-55.74,8.88-20.62,11.5-45.25,11.92-43.07-8.03,0,0-8.56,9.72,2.48,23.88,11.03,14.16,32.28,9.61,45.69-.58,13.41-10.18,33.27-12.34,45.35-9.39,12.07,2.95,46.4-15.8,18.59-43.81Z"/>
        <path class="cls-10" d="M529.19,365.08c14.53-10.45,31.94-17.12,49.94-16.25,1.44.13,5.23.45,6.63.57,1.42.25,5.12.93,6.57,1.18,12.54,2.51,24.45,9.59,31.37,20.46,10.25,15.89,3.99,31.96-14.87,35-5.94.97-12.11-.7-18.11-.53-10.16,0-20.55,2.52-29.48,7.58-2.85,1.48-5.28,3.63-7.94,5.35-8.68,5.24-21.52,7.39-31.02,3.39-4.65-2.19-7.88-6.47-9.45-11.45-1.79-5.32-1.75-11.3-.25-16.79.33-1.01-.26-2.1-1.28-2.38-.84-.24-1.71.14-2.13.85-1.72,2.92-2.86,6.2-3.44,9.6-1.99,10.63,2.32,22.83,12.13,28.34,12.23,6.64,29.4,4.57,41.02-2.7,2.53-1.59,4.93-3.83,7.54-5.29,8.56-5.16,18.74-7.29,28.74-6.7,1.33.12,3.19.27,4.52.45,18.27,2.29,38.88-9.49,38.51-29.61-.48-21.76-19.62-38.25-39.08-43.54-12.82-3.22-26.57-3.71-39.44-.46-6.44,1.62-12.67,4.18-18.21,7.78-5.5,3.65-10.5,8.03-14.02,13.72-.68,1.14.78,2.33,1.76,1.47h0Z"/>
        <ellipse class="cls-10" cx="598.88" cy="379.8" rx="4.4" ry="2.86" transform="translate(9.04 773.49) rotate(-66.1)"/>
        <ellipse class="cls-10" cx="560.91" cy="385.6" rx="2.86" ry="4.4" transform="translate(-115.04 465.6) rotate(-41.26)"/>
        <path class="cls-10" d="M535.63,430.79s1.63,2.51,4.49,6c5.09,6.25,14.07,15.63,24.4,19.23,16.11,5.6,24.27.43,26.99-17.42.21-1.32.44-2.61.73-3.84,3.36-15.23,11.58-22.52,11.58-22.52-9.27-3.67-30.25-4.02-41.78,6.38-11.54,10.4-26.42,12.18-26.42,12.18Z"/>
        <path class="cls-8" d="M544.19,439.11c4.37,5.36,12.08,13.42,20.95,16.51,13.83,4.81,20.83.37,23.17-14.95.18-1.14.38-2.24.63-3.3-4.62-3.85-10.91-7.33-18.78-7.77-11.61-.67-20.74,5.07-25.97,9.51Z"/>
        <path class="cls-7" d="M171.64,631.24c11.95,26.43,36.78,57.06,88.19,73.44,97.5,31.04,164.03-31.74,170.11-37.74.3-.3.45-.45.45-.45,0,0,6.1-52.94-12.74-78.41-18.82-25.45-64.65-40.72-64.65-40.72,0,0-52.9,30.62-151.29,35.27-15.82.74-28.06,11.71-31.87,25.39h-.02c-2.06,7.34-1.7,15.48,1.81,23.22Z"/>
        <path class="cls-5" d="M171.64,631.24c11.95,26.43,36.78,57.06,88.19,73.44,97.5,31.04,164.03-31.74,170.11-37.74-.26-1.17-.45-1.79-.45-1.79-197.41,59.25-259.64-57.13-259.64-57.13h-.02c-2.06,7.34-1.7,15.48,1.81,23.22Z"/>
        <circle class="cls-1" cx="722.89" cy="538.19" r="25.46"/>
        <ellipse class="cls-11" cx="726.9" cy="530.25" rx="7.8" ry="9.49" transform="translate(19.69 1086.48) rotate(-74.29)"/>
        <circle class="cls-1" cx="273.79" cy="490.7" r="25.46" transform="translate(-105.41 76.03) rotate(-13.28)"/>
        <ellipse class="cls-11" cx="277.8" cy="482.76" rx="7.8" ry="9.49" transform="translate(-262.13 619.52) rotate(-74.3)"/>
        <circle class="cls-1" cx="708.11" cy="949.82" r="38.94"/>
        <ellipse class="cls-11" cx="714.24" cy="937.67" rx="11.94" ry="14.52" transform="translate(-381.76 1371.43) rotate(-74.29)"/>
        <circle class="cls-1" cx="221.38" cy="776.68" r="29.52"/>
        <ellipse class="cls-11" cx="226.03" cy="767.47" rx="9.05" ry="11.01" transform="translate(-573.97 777.32) rotate(-74.3)"/>
        <circle class="cls-1" cx="748.35" cy="817.59" r="20.09"/>
        <ellipse class="cls-11" cx="751.51" cy="811.33" rx="6.16" ry="7.49" transform="translate(-232.95 1315.17) rotate(-74.3)"/>
        <circle class="cls-1" cx="213.04" cy="540.2" r="20.09"/>
        <ellipse class="cls-11" cx="216.21" cy="533.93" rx="6.16" ry="7.49" transform="translate(-356.32 597.54) rotate(-74.29)"/>
        <circle class="cls-1" cx="168.57" cy="964.61" r="20.09"/>
        <ellipse class="cls-11" cx="171.74" cy="958.34" rx="6.16" ry="7.49" transform="translate(-797.32 864.26) rotate(-74.29)"/>
        <circle class="cls-1" cx="177.68" cy="842.48" r="20.09"/>
        <ellipse class="cls-11" cx="180.84" cy="836.22" rx="6.16" ry="7.49" transform="translate(-673.11 783.95) rotate(-74.29)"/>
      </g>
    </g>
  </g>
</svg>