<?xml version="1.0" encoding="UTF-8"?>
<svg id="Layer_1" data-name="Layer 1" xmlns="http://www.w3.org/2000/svg" xmlns:xlink="http://www.w3.org/1999/xlink" viewBox="0 0 1000 1000">
  <defs>
    <style>
      .cls-1 {
        clip-path: url(#clippath);
      }

      .cls-2 {
        fill: none;
      }

      .cls-2, .cls-3, .cls-4, .cls-5, .cls-6, .cls-7, .cls-8, .cls-9, .cls-10 {
        stroke-width: 0px;
      }

      .cls-3 {
        fill: #ff761a;
      }

      .cls-4 {
        fill: url(#linear-gradient);
      }

      .cls-5 {
        fill: #008456;
      }

      .cls-6 {
        fill: #1a1a1a;
      }

      .cls-11 {
        opacity: .2;
      }

      .cls-12 {
        opacity: .3;
      }

      .cls-13 {
        opacity: .6;
      }

      .cls-14 {
        opacity: .7;
      }

      .cls-7 {
        fill: #d0cfe5;
      }

      .cls-8 {
        fill: #493800;
      }

      .cls-9 {
        fill: #fff;
      }

      .cls-10 {
        fill: #650000;
      }
    </style>
    <linearGradient id="linear-gradient" x1="-21.58" y1="987.88" x2="590.5" y2="413.89" gradientUnits="userSpaceOnUse">
      <stop offset="0" stop-color="#008456"/>
      <stop offset=".81" stop-color="#ffef02"/>
      <stop offset="1" stop-color="#ffef02"/>
    </linearGradient>
    <clipPath id="clippath">
      <circle class="cls-2" cx="496.75" cy="500.2" r="420.69"/>
    </clipPath>
  </defs>
  <circle class="cls-4" cx="497.68" cy="500.93" r="419.55"/>
  <path class="cls-5" d="M500,27.75c63.76,0,125.61,12.48,183.81,37.1,56.23,23.78,106.74,57.84,150.12,101.22,43.38,43.38,77.43,93.89,101.22,150.12,24.62,58.2,37.1,120.05,37.1,183.81s-12.48,125.61-37.1,183.81c-23.78,56.23-57.84,106.74-101.22,150.12-43.38,43.38-93.89,77.43-150.12,101.22-58.2,24.62-120.05,37.1-183.81,37.1s-125.61-12.48-183.81-37.1c-56.23-23.78-106.74-57.84-150.12-101.22-43.38-43.38-77.43-93.89-101.22-150.12-24.62-58.2-37.1-120.05-37.1-183.81s12.48-125.61,37.1-183.81c23.78-56.23,57.84-106.74,101.22-150.12,43.38-43.38,93.89-77.43,150.12-101.22,58.2-24.62,120.05-37.1,183.81-37.1M500,0C223.86,0,0,223.86,0,500s223.85,499.99,499.99,499.99,499.99-223.85,499.99-499.99S776.14,0,500,0h0Z"/>
  <g class="cls-1">
    <g>
      <g class="cls-11">
        <ellipse class="cls-10" cx="445.04" cy="885.68" rx="428" ry="40.81" transform="translate(-21.34 11.05) rotate(-1.39)"/>
      </g>
      <path class="cls-3" d="M719.36,843.81c23.31,18.58,60.89,36.17,98.36,1.36,38.89-36.14,48.59-84.55,50.53-114.66.45-7.03,1.4-13.98,2.85-20.83,3.47-16.44,9.79-32.18,18.9-46.43,10.82-16.92,24.56-35.13,38.69-45.29,0,0-75.28-19.72-146.96,49.7-27.52,26.64-54.5,66.42-76.48,125.49-6.76,18.16-1.03,38.58,14.11,50.66Z"/>
      <path class="cls-9" d="M783.64,685.44c1.2-1.26,2.48-2.42,3.74-3.45,1.98-1.62,4.81.45,3.84,2.82-3.59,8.81-4.49,16.57-4.54,21.91-.02,2.39,3.05,3.36,4.45,1.43,3.48-4.78,7.06-8.26,10.11-10.72,2.01-1.62,4.86.6,3.77,2.94-8.33,17.96-7.61,32.4-6.07,40.37.45,2.33,3.62,2.7,4.63.56,7-14.85,15.94-25.56,21.69-31.52,1.68-1.74,4.58-.25,4.18,2.13-1.2,7.17-1.33,13.17-1.09,17.66.13,2.49,3.47,3.2,4.63.99,3.21-6.1,7.88-12.91,11.47-17.86,1.42-1.96,4.53-.89,4.44,1.53-.27,6.72.26,13.19.85,17.94.29,2.35,3.43,2.97,4.58.9,4.85-8.77,11.08-16.81,16.38-22.91.27-.31.44-.67.53-1.06,3.49-16.22,9.77-31.75,18.77-45.82,9.75-15.25,21.87-31.54,34.5-42.05,1.62-1.35.89-3.97-1.19-4.3-18.38-2.95-80.9-7.61-141.04,50.23-.35.34-.61.79-.71,1.27-1.26,5.72-1.85,11.06-2.13,15.18-.15,2.28,2.64,3.51,4.21,1.86Z"/>
      <g class="cls-12">
        <path class="cls-10" d="M781.39,824.67c43.87-29.89,60.73-76.3,67.17-105.77,1.5-6.88,3.49-13.61,5.94-20.17,5.89-15.73,14.51-30.35,25.65-43.06,13.02-14.86,29.02-30.51,44.29-38.56,2.76.48,4.24.87,4.24.87-14.13,10.16-27.87,28.37-38.69,45.29-9.11,14.24-15.43,29.99-18.9,46.43-1.44,6.85-2.4,13.8-2.85,20.83-1.94,30.11-11.64,78.52-50.53,114.66-37.46,34.81-75.05,17.22-98.36-1.36-5.69-4.53-10.05-10.25-12.92-16.57,19.74,12.38,45.46,17.52,74.95-2.57Z"/>
      </g>
      <path class="cls-3" d="M488.15,588.1c-2.75-3.31-7.68-3.68-10.9-.83-13.27,11.79-46.24,39.57-67.39,49.18-26.51,12.05-75.85,32.53-64.13,72.29,11.72,39.76,82.81,44.58,103.89,6.63,13.12-23.62,43.51-45.61,64.59-58.85,11.17-7.02,13.13-22.51,4.13-32.15l-30.2-36.28Z"/>
      <g class="cls-12">
        <path class="cls-10" d="M518.35,624.38l-3.69-4.44c-.41,6.45-3.72,12.67-9.73,16.44-21.08,13.24-51.47,35.23-64.59,58.85-18.17,32.71-73.44,33.62-95.88,7.82.29,1.86.71,3.75,1.29,5.7,11.72,39.76,82.81,44.58,103.89,6.63,13.12-23.62,43.51-45.61,64.59-58.85,11.18-7.02,13.13-22.51,4.13-32.15Z"/>
      </g>
      <g class="cls-14">
        <path class="cls-9" d="M356.58,713.4c-11.72-39.76,37.62-60.25,64.13-72.29,21.15-9.61,54.12-37.39,67.39-49.18.65-.58,1.39-.99,2.15-1.31l-2.1-2.52c-2.75-3.31-7.68-3.68-10.9-.83-13.27,11.79-46.24,39.57-67.39,49.18-26.51,12.05-75.85,32.53-64.13,72.29,4.32,14.64,16.7,24.53,31.65,29.3-9.89-5.49-17.59-13.75-20.81-24.66Z"/>
      </g>
      <path class="cls-10" d="M358.37,731.31c-.45-1.98-.57-3.64-.65-5.45-.06-1.78,0-3.55.2-5.32.38-3.53,1.17-7.05,2.46-10.43,1.33-3.37,3.13-6.61,5.44-9.43,2.36-2.8,5.31-5.09,8.55-6.45.38-.16.81.02.97.4.09.22.07.46-.04.66l-.03.05c-1.71,2.93-3.04,5.66-3.99,8.51-.89,2.89-1.52,5.76-1.96,8.69-.37,2.95-.65,5.9-.83,8.89-.05.75-.11,1.49-.12,2.24-.06.75-.11,1.5-.12,2.24-.11,1.46-.13,3.08-.29,4.36l-.07.55c-.32,2.66-2.74,4.55-5.39,4.23-2.09-.25-3.7-1.8-4.14-3.74Z"/>
      <path class="cls-3" d="M595.08,740.77c-6.71,141.75-118.7,139.75-169.41,131.46-23.93-3.91-43.3-22.02-47.81-45.85-.31-1.61-.56-3.22-.74-4.82-3.8-31.69,14.02-61.72,37.56-61.12,24.9.62,35.04,19.85,35.04,19.85,6.59-8.83,13.14-15.88,19.57-21.45,52.35-45.33,96.99,8,96.99,8l12.49-31.55,15.25-38.51c1.38,16.01,1.67,30.64,1.05,44Z"/>
      <g>
        <ellipse class="cls-9" cx="413.65" cy="831.05" rx="18.75" ry="13.13" transform="translate(-424.85 1229.39) rotate(-88.95)"/>
        <ellipse class="cls-9" cx="400.29" cy="796.71" rx="10.45" ry="7.32" transform="translate(-403.62 1182.32) rotate(-88.95)"/>
        <ellipse class="cls-9" cx="435.62" cy="803.56" rx="10.45" ry="7.32" transform="translate(-375.8 1224.37) rotate(-88.95)"/>
        <ellipse class="cls-9" cx="418.75" cy="789.3" rx="10.45" ry="7.32" transform="translate(-378.09 1193.5) rotate(-88.95)"/>
      </g>
      <g class="cls-12">
        <path class="cls-10" d="M595.08,740.77c-6.71,141.75-118.7,139.75-169.41,131.46-23.93-3.91-43.3-22.02-47.81-45.85-.31-1.61-.56-3.22-.74-4.82,4.17,5.97,41.63,55.09,78.41,10.93,0,0,57.45,37.85,13.76-73.64,52.35-45.33,96.99,8,96.99,8l12.49-31.55c6.21,2,11.76,3.89,16.3,5.49Z"/>
      </g>
      <path class="cls-3" d="M758.39,696.33c.02.5.05.99.06,1.49,7.19,180.15-120.78,176.17-120.78,176.17-48.74,0-84.07-8.91-109.41-23.28h-.02s-.02,0-.03-.02c-6.54-3.72-12.41-7.79-17.68-12.18-27.24-22.64-38.28-53.4-41.28-84.05-.02-.15-.05-.33-.05-.5-.53-5.45-.81-10.91-.87-16.32-.51-43.24,12.21-83.14,14.35-95.77,5.73-33.88,0-55.79,0-55.79,47.2,23.45,128.22,15.78,199.12-2.11,57.65-14.55,108.62-35.87,129.27-52.72,21.21-17.29,38.62-21.52,51.22-21.06,12.97.48,23.94,8.99,28.36,20.78.79,2.12,1.38,4.35,1.72,6.66,11.05,74.01-133.98,158.69-133.98,158.69Z"/>
      <path class="cls-9" d="M704.13,673.11c0,85.82-55.28,155.39-123.46,155.39-49.9,0-92.87-37.25-112.34-90.86-.51-43.24,12.21-83.14,14.35-95.77,5.73-33.88,0-55.79,0-55.79,47.2,23.45,128.22,15.78,199.12-2.11,14.07,25.23,22.33,55.96,22.33,89.14Z"/>
      <g class="cls-12">
        <path class="cls-10" d="M758.39,696.33c.02.5.05.99.06,1.49-5.04,1.05-8.51,2.36-10.09,3.97,0,0-36.63,21.11-16.54,80.23,0,0-47.68,124.1-203.56,68.7h-.02s-.02,0-.03-.02c-.59-.28-8.14-3.84-17.68-12.18-15.47-13.48-36.2-39.44-41.28-84.05-.03-.17-.05-.34-.06-.51,0,0,0,.02.02.02,1.39,1.8,83.56,106.2,191.55,4.8,0,0,42.29-43.72,27.12-148.38,0,0,27.31-9.31,47.57-28.76,0,0,3.74,10.43,8.29,25.83,10.11,34.2,51.98,47.23,79.38,24.41,28.48-23.73,57.69-57.49,67.53-100.89.79,2.12,1.38,4.35,1.72,6.66,11.05,74.01-133.98,158.69-133.98,158.69Z"/>
      </g>
      <ellipse class="cls-9" cx="840.8" cy="573.04" rx="18.75" ry="13.13" transform="translate(-96.75 968.42) rotate(-57.14)"/>
      <ellipse class="cls-9" cx="847.55" cy="536.81" rx="10.45" ry="7.32" transform="translate(-63.23 957.52) rotate(-57.14)"/>
      <ellipse class="cls-9" cx="873.96" cy="561.26" rx="10.45" ry="7.32" transform="translate(-71.68 990.89) rotate(-57.14)"/>
      <ellipse class="cls-9" cx="867.14" cy="540.25" rx="10.45" ry="7.32" transform="translate(-57.15 975.55) rotate(-57.14)"/>
      <g class="cls-12">
        <path class="cls-10" d="M484.74,600.08s27.42,50.26,127.87,43.29c100.45-6.97,137.92-70.32,137.92-70.32,0,0-115.05,97.49-265.79,27.04Z"/>
      </g>
      <path class="cls-3" d="M552.54,266.28s-98.86,15.42-155.84,138.06c0,0-4.66-19.21-6.81-49.8-3.24-45.92-.83-117.47,31.49-188.01,3.67-7.99,10.64-13.46,18.57-15.52,5.85-1.52,12.24-1.19,18.19,1.35,31.05,13.26,81.2,44.9,94.41,113.91Z"/>
      <g class="cls-12">
        <path class="cls-10" d="M552.54,266.28s-98.86,15.42-155.84,138.06c0,0-4.66-19.21-6.81-49.8,15.61-27.04,46.82-71.39,95.97-99.91,19.02-11.04,25.26-35.73,12.99-53.99-11.91-17.73-30.58-37.43-58.9-49.63,5.85-1.52,12.24-1.19,18.19,1.35,31.05,13.26,81.2,44.9,94.41,113.91Z"/>
      </g>
      <g class="cls-14">
        <path class="cls-9" d="M400.92,354.55c-3.24-45.92-.83-117.47,31.49-188.01,3.67-7.99,10.64-13.46,18.57-15.52.52-.14,1.06-.24,1.59-.35-4.25-.85-8.57-.71-12.62.35-7.93,2.06-14.9,7.53-18.57,15.52-32.32,70.54-34.73,142.09-31.49,188.01,2.15,30.58,6.81,49.8,6.81,49.8,2.59-5.57,5.26-10.91,8.01-16.05-1.34-8.45-2.82-19.94-3.79-33.75Z"/>
      </g>
      <path class="cls-9" d="M421.48,360.68s-7.57-144.35,30.86-170.95c0,0,33.07,15.87,60.58,90.4,0,0-46.63,19.17-91.44,80.55Z"/>
      <g class="cls-12">
        <path class="cls-10" d="M465.57,219.62c9.94,8.46,26.63,26.66,42.8,62.65,2.92-1.48,4.54-2.15,4.54-2.15-27.51-74.54-60.58-90.4-60.58-90.4-38.43,26.6-30.86,170.95-30.86,170.95,1.18-1.61,2.36-3.18,3.53-4.73-.03-38.49,2.98-105.93,22.95-134.06,4.1-5.77,12.21-6.85,17.6-2.26Z"/>
      </g>
      <path class="cls-3" d="M642.2,266.28s98.86,15.42,155.84,138.06c0,0,4.66-19.21,6.81-49.8,3.24-45.92.83-117.47-31.49-188.01-3.67-7.99-10.64-13.46-18.57-15.52-5.85-1.52-12.24-1.19-18.19,1.35-31.05,13.26-81.2,44.9-94.41,113.91Z"/>
      <g class="cls-12">
        <path class="cls-10" d="M642.2,266.28s98.86,15.42,155.84,138.06c0,0,4.66-19.21,6.81-49.8-15.61-27.04-46.82-71.39-95.97-99.91-19.02-11.04-25.26-35.73-12.99-53.99,11.91-17.73,30.58-37.43,58.9-49.63-5.85-1.52-12.24-1.19-18.19,1.35-31.05,13.26-81.2,44.9-94.41,113.91Z"/>
      </g>
      <path class="cls-9" d="M773.27,360.68s7.57-144.35-30.86-170.95c0,0-33.07,15.87-60.58,90.4,0,0,46.63,19.17,91.44,80.55Z"/>
      <g class="cls-12">
        <path class="cls-10" d="M729.18,219.62c-9.94,8.46-26.63,26.66-42.8,62.65-2.92-1.48-4.54-2.15-4.54-2.15,27.51-74.54,60.58-90.4,60.58-90.4,38.43,26.6,30.86,170.95,30.86,170.95-1.18-1.61-2.36-3.18-3.53-4.73.03-38.49-2.98-105.93-22.95-134.06-4.1-5.77-12.21-6.85-17.6-2.26Z"/>
      </g>
      <path class="cls-3" d="M824.88,510.43c-28.37,53.8-83.65,65.33-83.65,65.33-47.89,52.61-143.86,50.84-143.86,50.84,0,0-95.96,1.77-143.86-50.84,0,0-55.27-11.53-83.65-65.33,0,0,1.67-8.06,14.3-12.37,0,0-14.75-11.42-15.63-38.46,0,0,14.5-3.23,20.86-24.25.3-1.03.59-2.11.87-3.24,5.77-23.95,29.35-188,207.1-188s201.34,164.05,207.1,188c5.77,23.93,21.73,27.49,21.73,27.49-.88,27.04-15.63,38.46-15.63,38.46,12.64,4.32,14.3,12.37,14.3,12.37Z"/>
      <path class="cls-9" d="M824.88,510.43c-28.37,53.8-83.65,65.33-83.65,65.33-47.89,52.61-143.86,50.84-143.86,50.84,0,0-95.96,1.77-143.86-50.84,0,0-55.27-11.53-83.65-65.33,0,0,1.67-8.06,14.3-12.37,0,0-14.75-11.42-15.63-38.46,0,0,.88-.19,2.29-.81,4.35-1.85,13.77-7.59,18.57-23.44,1.37-.65,46.13-21.46,104.92,23.35,59.7,45.52,75.47,45.52,103.05,45.52s43.35,0,103.05-45.52c58.79-44.82,103.55-24,104.92-23.35,6.36,21.02,20.86,24.25,20.86,24.25-.88,27.04-15.63,38.46-15.63,38.46,12.64,4.32,14.3,12.37,14.3,12.37Z"/>
      <path class="cls-9" d="M518.47,419.53c-5.36-3.2-13.08-7.33-20.33-9.46-3.84-1.13-6.53-4.62-6.48-8.63.07-5.55,2.03-12.3,10.94-12.98,13.06-1,24.2,10.37,23.99,26.5-.05,4.14-4.56,6.7-8.11,4.57Z"/>
      <path class="cls-9" d="M676.28,419.53c5.36-3.2,13.08-7.33,20.33-9.46,3.84-1.13,6.53-4.62,6.48-8.63-.07-5.55-2.03-12.3-10.94-12.98-13.06-1-24.2,10.37-23.99,26.5.05,4.14,4.56,6.7,8.11,4.57Z"/>
      <g class="cls-12">
        <path class="cls-10" d="M597.3,538.07s-15.71,22.83-41.21,0c0,0,7.04,30.15,41.21,18.62,34.17,11.53,41.21-18.62,41.21-18.62-25.49,22.83-41.21,0-41.21,0Z"/>
      </g>
      <g class="cls-12">
        <path class="cls-10" d="M810.57,498.06s14.75-11.42,15.63-38.46c0,0-.88-.19-2.29-.81-7.23,11.7-13.07,30.15-39.68,37.61,0,0,6.17,11.07,22.02,16.4,0,0-16.01,15.83-34.72,11.16-4.07-1.02-8.34.39-10.83,3.76-13.47,18.28-60.73,70.16-163.33,70.16s-149.86-51.88-163.33-70.16c-2.49-3.38-6.76-4.78-10.83-3.76-18.71,4.68-34.72-11.16-34.72-11.16,15.85-5.34,22.02-16.4,22.02-16.4-26.61-7.46-32.45-25.91-39.68-37.61-1.41.62-2.29.81-2.29.81.88,27.04,15.63,38.46,15.63,38.46-12.64,4.32-14.3,12.37-14.3,12.37,28.37,53.8,83.65,65.33,83.65,65.33,47.89,52.61,143.86,50.84,143.86,50.84,0,0,95.96,1.77,143.86-50.84,0,0,55.27-11.53,83.65-65.33,0,0-1.67-8.06-14.3-12.37Z"/>
      </g>
      <path class="cls-8" d="M597.37,499.2s-10.33-.11-17.03,2.43c-2.05.78-3.26,2.93-2.88,5.09,1.08,6.11,5.08,18.34,19.9,18.34s18.83-12.23,19.9-18.34c.38-2.16-.83-4.32-2.88-5.09-6.7-2.54-17.03-2.43-17.03-2.43Z"/>
      <path class="cls-8" d="M601.09,534.99c.11.12.46.49.72.74l.86.85c.59.57,1.22,1.1,1.86,1.62,1.29,1.03,2.63,1.98,4.03,2.79,2.8,1.64,5.8,2.69,8.95,2.98,3.14.28,6.44-.23,9.7-1.48,3.27-1.22,6.51-3.05,9.68-5.2h0c.51-.35,1.21-.22,1.56.3.26.39.25.89,0,1.26-2.22,3.32-5.05,6.35-8.58,8.73-1.76,1.18-3.7,2.21-5.79,2.92-2.08.76-4.32,1.22-6.59,1.34-4.55.31-9.16-.75-13.18-2.65-2.02-.95-3.91-2.1-5.67-3.41-.87-.67-1.72-1.36-2.54-2.1-.41-.37-.82-.75-1.21-1.15-.41-.43-.73-.76-1.24-1.37-1.72-2.04-1.46-5.08.58-6.8,1.99-1.68,4.95-1.47,6.68.45l.16.18Z"/>
      <path class="cls-8" d="M601.09,541.16c-.51.61-.83.94-1.24,1.37-.39.41-.8.78-1.21,1.15-.82.74-1.67,1.43-2.54,2.1-1.76,1.31-3.65,2.47-5.67,3.41-4.01,1.9-8.63,2.96-13.18,2.65-2.27-.12-4.51-.58-6.59-1.34-2.1-.71-4.03-1.74-5.79-2.92-3.53-2.38-6.36-5.41-8.58-8.73-.34-.52-.21-1.21.31-1.56.39-.26.89-.25,1.25,0h0c3.17,2.15,6.41,3.98,9.68,5.2,3.26,1.25,6.56,1.77,9.7,1.48,3.15-.3,6.15-1.35,8.95-2.98,1.4-.82,2.74-1.76,4.03-2.79.64-.52,1.27-1.05,1.86-1.62l.86-.85c.26-.25.6-.62.72-.74l.15-.17c1.79-1.98,4.84-2.13,6.82-.35,1.93,1.75,2.12,4.71.46,6.69Z"/>
      <path class="cls-3" d="M752.62,771.3c-12.16,127.21-113.3,124.42-162.23,116.43-21.11-3.44-38.66-17.93-45.59-37.66-.95-2.65-1.69-5.38-2.22-8.2-6.34-33.4,12.09-66.57,36.82-65.94,24.9.62,35.04,19.85,35.04,19.85,60.27-80.69,116.55-13.45,116.55-13.45l21.42-69.24c1.88,21.91,1.84,41.22.22,58.21Z"/>
      <g class="cls-12">
        <path class="cls-10" d="M620.16,845.84s22-16.35,4.73-64.84c0,0-4.65,8.3-12.29,13.61,0,0,11.79,14.45,7.55,51.22Z"/>
      </g>
      <g class="cls-12">
        <path class="cls-10" d="M752.62,771.3c-12.16,127.21-113.3,124.42-162.23,116.43-21.11-3.44-38.66-17.93-45.59-37.66,3.81,5.96,26,36.1,71.01,9.2,3.95-2.36,8.63-3.23,13.13-2.28,23.18,4.87,98.47,12.52,123.69-85.69Z"/>
      </g>
      <g>
        <ellipse class="cls-9" cx="578.36" cy="846.55" rx="18.75" ry="13.13" transform="translate(-278.65 1409.28) rotate(-88.95)"/>
        <ellipse class="cls-9" cx="565" cy="812.2" rx="10.45" ry="7.32" transform="translate(-257.43 1362.21) rotate(-88.95)"/>
        <ellipse class="cls-9" cx="600.32" cy="819.06" rx="10.45" ry="7.32" transform="translate(-229.6 1404.26) rotate(-88.95)"/>
        <ellipse class="cls-9" cx="583.46" cy="804.79" rx="10.45" ry="7.32" transform="translate(-231.9 1373.4) rotate(-88.95)"/>
      </g>
      <path class="cls-7" d="M426.83,873.86l-50.86-235.99c-3.25-15.1-16.6-25.88-32.05-25.88H26.37c-13.99,0-24.3,13.09-21.03,26.69l56.66,235.18h364.82Z"/>
      <g>
        <path class="cls-8" d="M197.66,755.8c-20.32-1.5-54.4,44.97,2.38,42.37,56.79-2.61,24.35-40.39-2.38-42.37Z"/>
        <circle class="cls-8" cx="162.29" cy="749.41" r="12.9" transform="translate(-603.44 789.56) rotate(-80.78)"/>
        <circle class="cls-8" cx="229.78" cy="747.6" r="12.9"/>
        <circle class="cls-8" cx="193" cy="728.76" r="16.52" transform="translate(-560.61 749.16) rotate(-76.72)"/>
      </g>
      <g class="cls-12">
        <path class="cls-8" d="M358.92,619.27c-.32-1.47-.75-2.88-1.25-4.26,0,0,0,0,0,0-4.21-1.95-8.88-3.03-13.75-3.03h-6.59,0c49.8,195.18-.19,235.53-190.18,235.53H55.66l1.87,7.75h352.26l-50.86-235.99Z"/>
      </g>
      <g class="cls-14">
        <path class="cls-9" d="M371.16,626.58c-5.94-8.9-16.03-14.6-27.25-14.6H26.37c-13.99,0-24.3,13.09-21.03,26.69l56.66,235.18h12.51l-56.69-235.29c-1.74-7.23,3.74-14.19,11.17-14.19h18.19c3.25,0,6.36,1.09,9.09,2.86,5.19,3.37,15.67,5.67,27.77,5.67s22.58-2.3,27.77-5.67c2.73-1.77,5.84-2.86,9.09-2.86h238.51c4.12,0,8.08.79,11.75,2.2Z"/>
      </g>
      <path class="cls-7" d="M611.15,891.88H63.12c-6.96,0-12.6-5.64-12.6-12.6h0c0-6.96,5.64-12.6,12.6-12.6h548.03c6.96,0,12.6,5.64,12.6,12.6h0c0,6.96-5.64,12.6-12.6,12.6Z"/>
      <g class="cls-12">
        <path class="cls-8" d="M607.61,881.03H66.66c-6.42,0-11.95-2.94-14.55-7.17-1.01,1.64-1.59,3.48-1.59,5.42,0,6.96,7.22,12.6,16.14,12.6h540.95c8.91,0,16.14-5.64,16.14-12.6,0-1.94-.58-3.78-1.59-5.42-2.6,4.24-8.13,7.17-14.55,7.17Z"/>
      </g>
      <ellipse class="cls-6" cx="509.11" cy="471.27" rx="36.75" ry="42.44"/>
      <ellipse class="cls-9" cx="516.29" cy="461.67" rx="15.4" ry="17.78"/>
      <g class="cls-13">
        <ellipse class="cls-9" cx="495.75" cy="487.9" rx="7.31" ry="8.45"/>
      </g>
      <ellipse class="cls-6" cx="683.08" cy="471.27" rx="36.75" ry="42.44"/>
      <ellipse class="cls-9" cx="675.9" cy="461.67" rx="15.4" ry="17.78"/>
      <g class="cls-13">
        <ellipse class="cls-9" cx="696.44" cy="487.9" rx="7.31" ry="8.45"/>
      </g>
      <path class="cls-8" d="M763.73,446.78c-.11-1.28-.83-2.44-1.95-3.05-6.79-3.72-13.91-6.24-20.54-7.97-4.26-1.11-8.37-2.69-12.4-4.48-45.07-20.01-79.07-4.95-95.43,5.9-2.83,1.88-6.49,2.09-9.53.56-18.95-9.58-39.63-5.53-51.27-1.78-2.86.92-5.97.47-8.42-1.26-14.58-10.26-49.46-28.12-96.09-7.73-5.73,2.5-11.53,4.87-17.51,6.69-5.92,1.8-12.13,4.27-18.07,7.67-1.11.64-1.81,1.81-1.9,3.09l-.79,12.33c-.11,1.74.95,3.33,2.6,3.87,3,.99,8.2,3.3,14.55,8.55.37,11.39,2.88,24.19,10.22,35.31,9.87,14.98,26.32,23.82,48.89,26.28,1.47.16,2.92.29,4.34.38,19.42,1.24,34.82-3.92,45.83-15.37,17.79-18.5,18.74-48.25,17.96-62.9,8.36-3.17,29.56-9.33,46.22,1.96-.78,13.14-.54,46.08,18.98,65.63,11.22,11.24,26.71,16.12,46.1,14.52,1.42-.12,2.87-.27,4.33-.46,22.52-2.88,38.8-12.02,48.4-27.18,7.13-11.26,9.41-24.1,9.56-35.5,6.25-5.37,11.4-7.77,14.39-8.82,1.64-.58,2.67-2.19,2.53-3.92l-1.02-12.31ZM547.33,507.2c-9.02,9.36-22.43,13.15-39.88,11.24-18.73-2.04-32.16-9.04-39.9-20.79-10.89-16.52-8.54-38.7-6.44-49.58.54-2.78,2.36-5.12,4.87-6.42,47.54-24.59,81.25-4.66,92.72,4.18,1.79,1.38,2.88,3.44,3.04,5.7.8,11.84.85,39.84-14.4,55.67ZM727.81,500.71c-7.53,11.9-20.82,19.14-39.51,21.53-17.41,2.23-30.89-1.31-40.08-10.5-15.54-15.54-16.01-43.54-15.43-55.39.11-2.26,1.17-4.34,2.93-5.75,11.31-9.05,44.64-29.59,92.62-5.89,2.54,1.25,4.4,3.56,4.99,6.33,2.3,10.84,5.06,32.97-5.52,49.69Z"/>
    </g>
  </g>
</svg>