<?xml version="1.0" encoding="UTF-8"?>
<svg id="Layer_1" data-name="Layer 1" xmlns="http://www.w3.org/2000/svg" xmlns:xlink="http://www.w3.org/1999/xlink" viewBox="0 0 1000 1000">
  <defs>
    <style>
      .cls-1 {
        fill: #493800;
      }

      .cls-1, .cls-2, .cls-3, .cls-4, .cls-5, .cls-6, .cls-7, .cls-8, .cls-9, .cls-10, .cls-11, .cls-12, .cls-13, .cls-14, .cls-15, .cls-16, .cls-17, .cls-18, .cls-19, .cls-20 {
        stroke-width: 0px;
      }

      .cls-2 {
        fill: #825a00;
      }

      .cls-2, .cls-9, .cls-10, .cls-13, .cls-16 {
        fill-rule: evenodd;
      }

      .cls-3 {
        fill: #390075;
      }

      .cls-21 {
        clip-path: url(#clippath);
      }

      .cls-4 {
        fill: none;
      }

      .cls-22 {
        opacity: .1;
      }

      .cls-5 {
        fill: url(#linear-gradient);
      }

      .cls-6 {
        fill: #181558;
      }

      .cls-7 {
        fill: #686779;
      }

      .cls-8 {
        fill: #008456;
      }

      .cls-9, .cls-18 {
        fill: #493800;
      }

      .cls-10 {
        fill: #eaad00;
      }

      .cls-11 {
        fill: #1a1a1a;
      }

      .cls-12 {
        fill: #ffa1a8;
      }

      .cls-13 {
        fill: #340069;
      }

      .cls-14 {
        fill: #f9d9c2;
      }

      .cls-23 {
        opacity: .2;
      }

      .cls-15 {
        fill: #825a00;
      }

      .cls-24 {
        opacity: .3;
      }

      .cls-25 {
        opacity: .5;
      }

      .cls-16, .cls-19 {
        fill: #fff;
      }

      .cls-17 {
        fill: #b199c5;
      }

      .cls-20 {
        fill: #eaad00;
      }

      .cls-26 {
        filter: url(#outer-glow-4);
      }

      .cls-27 {
        filter: url(#outer-glow-3);
      }

      .cls-28 {
        filter: url(#outer-glow-6);
      }

      .cls-29 {
        filter: url(#outer-glow-2);
      }

      .cls-30 {
        filter: url(#outer-glow-5);
      }
    </style>
    <linearGradient id="linear-gradient" x1="94.27" y1="879.23" x2="706.36" y2="305.24" gradientUnits="userSpaceOnUse">
      <stop offset="0" stop-color="#008456"/>
      <stop offset=".77" stop-color="#ffef02"/>
      <stop offset="1" stop-color="#ffef02"/>
    </linearGradient>
    <filter id="outer-glow-2" filterUnits="userSpaceOnUse">
      <feOffset dx="0" dy="0"/>
      <feGaussianBlur result="blur" stdDeviation="12.33"/>
      <feFlood flood-color="#2cc416" flood-opacity=".75"/>
      <feComposite in2="blur" operator="in"/>
      <feComposite in="SourceGraphic"/>
    </filter>
    <clipPath id="clippath">
      <circle class="cls-4" cx="497.68" cy="500" r="420.7"/>
    </clipPath>
    <filter id="outer-glow-3" filterUnits="userSpaceOnUse">
      <feOffset dx="0" dy="0"/>
      <feGaussianBlur result="blur-2" stdDeviation="12.33"/>
      <feFlood flood-color="#2cc416" flood-opacity=".75"/>
      <feComposite in2="blur-2" operator="in"/>
      <feComposite in="SourceGraphic"/>
    </filter>
    <filter id="outer-glow-4" filterUnits="userSpaceOnUse">
      <feOffset dx="0" dy="0"/>
      <feGaussianBlur result="blur-3" stdDeviation="12.33"/>
      <feFlood flood-color="#2cc416" flood-opacity=".75"/>
      <feComposite in2="blur-3" operator="in"/>
      <feComposite in="SourceGraphic"/>
    </filter>
    <filter id="outer-glow-5" filterUnits="userSpaceOnUse">
      <feOffset dx="0" dy="0"/>
      <feGaussianBlur result="blur-4" stdDeviation="8.14"/>
      <feFlood flood-color="#2cc416" flood-opacity=".75"/>
      <feComposite in2="blur-4" operator="in"/>
      <feComposite in="SourceGraphic"/>
    </filter>
    <filter id="outer-glow-6" filterUnits="userSpaceOnUse">
      <feOffset dx="0" dy="0"/>
      <feGaussianBlur result="blur-5" stdDeviation="4.3"/>
      <feFlood flood-color="#2cc416" flood-opacity=".75"/>
      <feComposite in2="blur-5" operator="in"/>
      <feComposite in="SourceGraphic"/>
    </filter>
  </defs>
  <circle class="cls-5" cx="497.68" cy="500.93" r="419.56"/>
  <g class="cls-29">
    <path class="cls-8" d="M701.96,476.15c-29.26,0-32.65-27-32.96-36.2-.31,9.2-3.7,36.2-32.96,36.2,29.26,0,32.65,27,32.96,36.2.31-9.2,3.7-36.2,32.96-36.2Z"/>
  </g>
  <path class="cls-8" d="M500,27.75c63.77,0,125.61,12.48,183.81,37.1,56.23,23.78,106.74,57.84,150.12,101.22,43.38,43.38,77.43,93.89,101.22,150.12,24.62,58.2,37.1,120.05,37.1,183.81s-12.48,125.61-37.1,183.81c-23.78,56.23-57.84,106.74-101.22,150.12-43.38,43.38-93.89,77.44-150.12,101.22-58.2,24.62-120.05,37.1-183.81,37.1s-125.61-12.48-183.81-37.1c-56.23-23.78-106.74-57.84-150.12-101.22-43.38-43.38-77.43-93.89-101.22-150.12-24.62-58.2-37.1-120.05-37.1-183.81s12.48-125.61,37.1-183.81c23.78-56.23,57.84-106.74,101.22-150.12,43.38-43.38,93.89-77.44,150.12-101.22,58.2-24.62,120.05-37.1,183.81-37.1M500,0C223.86,0,0,223.86,0,500s223.86,500,500,500,500-223.86,500-500S776.14,0,500,0h0Z"/>
  <g class="cls-21">
    <g>
      <g>
        <path class="cls-16" d="M289.66,470.39c22.19,0,43.29,5.54,62.65,14.89h.01c28.94-261.4,175.94-167.19,156.62-100.02-6.07,21.12-24.74,36.16-46.66,37.61-23.63,41.71-37.75,80.85-42.36,117.42h-.01c27.51,34.04,44.07,74.53,44.07,107,0,69.88-79.2,126.54-176.89,126.54s-176.89-56.66-176.89-126.54c0-33.74,19.07-76.14,49.79-110.97h0c-146.74-199.28-21.92-354.05,72.3-53.72h0c18.09-7.72,37.41-12.2,57.39-12.2Z"/>
        <path class="cls-10" d="M414.62,396.29c8.05,9.89,18.71,17.37,31.96,22.42-17.23,18.98-32.72,49.52-46.47,91.63,0,0-4.31-3.44-12.91-10.33.74-38.64,9.88-73.21,27.42-103.72"/>
        <g class="cls-22">
          <path class="cls-10" d="M400.84,378.38c-1.54,22.01,12.26,40.82,41.37,56.43-24.74,50.94-31.19,85.1-19.35,102.47,7.35-42.93,20.78-80.93,40.31-113.99,14.29-1.86,27.62-9.18,36.87-20.91,13.59-17.23,15.9-40.79,5.92-60.33-1.77,63.05-36.82,75.16-105.13,36.33"/>
        </g>
        <g class="cls-22">
          <path class="cls-10" d="M164.51,534.8l-4.04.97c-101.39-137.7-73.12-254.11-14.89-213.84-60.91-8.99-42.91,75.05,18.93,212.87"/>
        </g>
        <g class="cls-22">
          <path class="cls-10" d="M286.44,772.04c-131.95,0-208.03-83.73-163.12-182.5-24.85,110.71,49.74,136.69,164.5,135.69,137.32-1.19,164.4-25.8,162.15-135.7l.64.65c42.23,98.96-31.54,181.86-164.17,181.86"/>
        </g>
        <path class="cls-10" d="M184.28,514.14c8.46-7.26,17.58-14.03,27.34-20.31-75.83-226.63-136.59-145.61-27.34,20.31"/>
        <path class="cls-16" d="M241.03,611.71c3.15,0,5.7,3.5,5.7,7.81s-2.55,7.81-5.7,7.81-5.7-3.5-5.7-7.81,2.55-7.81,5.7-7.81"/>
        <path class="cls-18" d="M311.05,664.76c-.64,0-1.29-.03-1.94-.08-7.39-.59-13.94-4.49-17.98-10.41-3.62,5.32-9.42,8.96-16,9.77-8.88,1.08-17.59-3.15-22.2-10.81-.88-1.47-.41-3.37,1.06-4.25,1.47-.88,3.37-.41,4.25,1.06,3.35,5.56,9.68,8.65,16.13,7.85,6.45-.79,11.85-5.31,13.76-11.52.4-1.29,1.58-2.17,2.93-2.19.01,0,.02,0,.04,0,1.33,0,2.52.85,2.94,2.12,2.27,6.84,8.39,11.63,15.57,12.2,7.17.57,13.98-3.19,17.31-9.58.79-1.52,2.66-2.11,4.18-1.32,1.52.79,2.11,2.66,1.32,4.18-4.18,8.03-12.43,12.98-21.37,12.98Z"/>
        <path class="cls-18" d="M291.66,685.01c-.09,0-.17,0-.26,0-7.19-.17-13.59-7.66-19.55-22.9-.34-.87-.27-1.85.19-2.66.46-.81,1.27-1.37,2.19-1.53,7-1.15,11.56-4.97,13.92-11.66.43-1.23,1.58-2.05,2.88-2.07.01,0,.03,0,.04,0,1.29,0,2.44.79,2.9,2,2.8,7.34,7.95,11.38,15.75,12.34.98.12,1.84.7,2.32,1.55.48.86.53,1.89.13,2.79-6.68,14.9-13.39,22.14-20.52,22.14ZM278.99,663.17c5.76,13.39,10.29,15.59,12.57,15.64.03,0,.06,0,.09,0,2.31,0,6.89-2.08,13.21-14.92-5.87-1.55-10.46-4.79-13.72-9.69-2.88,4.38-6.94,7.38-12.15,8.97Z"/>
        <path class="cls-9" d="M292.05,631.99c9.05,0,16.38,4.18,16.38,9.34s-7.33,9.34-16.38,9.34-16.38-4.18-16.38-9.34,7.33-9.34,16.38-9.34"/>
        <path class="cls-18" d="M261.02,650.05c-3.4,1.32-6.33,3.61-8.47,6.53-.4.55-1.18.67-1.72.26-.35-.26-.53-.67-.5-1.07l.06-.84c.09-1.22.53-2.26,1.11-3.21.57-.96,1.35-1.78,2.22-2.46.87-.68,1.86-1.23,2.96-1.51,1.08-.29,2.24-.38,3.48,0l.8.24c.57.18.9.78.72,1.36-.1.33-.35.58-.65.7Z"/>
        <path class="cls-18" d="M326.27,647.2c.94-.35,1.81-.36,2.65-.26.42.07.84.15,1.22.3.4.13.78.3,1.14.5.73.4,1.38.95,1.84,1.67.44.74.79,1.57.68,2.7l-.12,1.27c-.06.62-.61,1.07-1.23,1.01-.3-.03-.56-.17-.74-.38-1.69-1.96-3.88-3.48-6.34-4.46-.55-.22-.82-.85-.6-1.4.12-.29.35-.5.62-.61l.87-.33Z"/>
        <path class="cls-16" d="M386.18,752.29h0c-27.43,12.5-60,19.75-94.94,19.75-32.01,0-62.03-6.08-87.93-16.72-24.49,28.43-39.41,60.05-44.77,94.88-19.8-15.21-47.61-14.27-66.33,2.25-18.72,16.52-23.13,43.99-10.5,65.53,10.64,15.85,27.37,26.58,46.21,29.64,18.84,3.06,38.1-1.83,53.21-13.5,74.16,24.8,154.38,24.8,228.54,0,16.44,11.39,37.71,13.16,55.81,4.65,31.71-14.92,50.15-70.74,20.19-95.45-14.55-12-35.31-12.88-50.83-2.16-12.9-48.17-29.12-77.8-48.67-88.87Z"/>
        <path class="cls-10" d="M240.32,948.34c33.74,5.4,64.82,5.83,93.25,1.29,23.01-19.19,31.64-50.68,21.63-78.93-10.01-28.24-36.55-47.27-66.52-47.68-29.96-.41-57.01,17.87-67.8,45.83-10.79,27.95-3.03,59.67,19.44,79.49"/>
        <path class="cls-10" d="M78.65,905.34c4.61,24.81,20.88,37.14,48.8,37,14.49-7.11,22.06-23.36,18.18-39.03-3.89-15.67-18.17-26.5-34.31-26.01-16.13.49-29.74,12.17-32.66,28.04"/>
        <path class="cls-10" d="M453.9,940.09c27.97-5.41,47.05-31.45,43.78-59.75-10.62-8.76-25.21-10.93-37.91-5.62-12.7,5.3-21.42,17.21-22.66,30.91-1.23,13.71,5.23,26.97,16.78,34.46"/>
        <g class="cls-22">
          <path class="cls-10" d="M409.7,934.13c-5.95-5.57-9.31-12.4-10.07-20.5-67.04,32.01-145.02,31.69-211.79-.86,0,8.53-2.22,15.65-6.68,21.36,78.97,28.32,155.28,28.05,228.54,0"/>
        </g>
        <g class="cls-22">
          <path class="cls-10" d="M84.66,866.21c-9.26,18.58-7.62,40.73,4.28,57.73,11.9,17.01,32.01,23.74,52.77,23.81,28.86.1,45.66-13.59,46.13-34.99-16.53,21.18-45.4,28.31-69.89,17.26-24.49-11.05-38.24-37.41-33.29-63.82"/>
        </g>
        <g class="cls-22">
          <path class="cls-10" d="M412.54,935.97c-8.21-6.32-12.51-13.77-12.91-22.34,48.91,31.38,82.45,17.45,100.62-41.77,3.97,22.72-8.85,50.56-27.46,64.17-18.62,13.61-39.8,10.62-60.24-.06"/>
        </g>
        <g class="cls-22">
          <path class="cls-10" d="M162.5,831.27c-1.34,5.59-2,8.38-2,8.38,24.79-1.74,41.79-14.83,50.99-39.25,15.48,6.64,25.17.94,29.06-17.11,12.7,3.34,19.42-1.04,20.16-13.14,22.93-28.23,16.75-42.38-18.56-42.44,13.52,8.34,20.72,14.98,21.6,19.93-2.54,5.2-7.05,6.95-13.53,5.25,4.52,24.99-2.21,28.78-20.18,11.35,1,35-6.8,40.47-23.39,16.41-3.97,28.28-18.68,45.15-44.14,50.61"/>
        </g>
        <path class="cls-16" d="M176.6,826.18c18.84-8.55,27.73-25.87,30.02-45.51,17.91,23.77,25.71,18.3,23.39-16.41,17.37,17.81,24.1,14.02,20.18-11.35,19.77,1.88,18.72-8.96-8.07-25.18-14.5-8.78-32.3,1.49-49.51,22.84-28.48,10.58-45.04,25.47-50.88,44.3-10.51,33.85,1.63,46.39,34.86,31.31Z"/>
        <path class="cls-9" d="M301.4,689.52h107.53c7.34,0,11.86,6,10.05,13.34l-34.32,139.07c-1.81,7.34-9.3,13.34-16.63,13.34h-107.53c-7.34,0-11.86-6-10.05-13.34l34.32-139.07c1.82-7.34,9.3-13.34,16.64-13.34Z"/>
        <g class="cls-24">
          <path class="cls-9" d="M301.4,689.52h107.53c7.34,0,11.86,6,10.05,13.34l-34.32,139.07c-1.81,7.34-9.3,13.34-16.63,13.34h-107.53c-7.34,0-11.86-6-10.05-13.34l34.32-139.07c1.82-7.34,9.3-13.34,16.64-13.34Z"/>
        </g>
        <path class="cls-2" d="M310.6,701.5h97.66c6.66,0,10.77,5.45,9.12,12.11l-31.17,126.3c-1.64,6.66-8.44,12.11-15.11,12.11h-97.65c-6.67,0-10.77-5.45-9.13-12.11l31.17-126.3c1.65-6.66,8.44-12.11,15.11-12.11Z"/>
        <path class="cls-16" d="M346.31,853.66h-52.94l6.55-17.84c1.57-4.26,6.34-7.75,10.6-7.75h37.44c4.26,0,6.47,3.49,4.9,7.75l-6.56,17.84Z"/>
        <g class="cls-24">
          <path class="cls-9" d="M416.19,714.14c-.06.41-.14.82-.24,1.24l-31.17,126.3c-1.64,6.66-8.44,12.11-15.11,12.11h-97.65c-2.47,0-4.58-.75-6.19-2.02-.6-7.26-.34-15.63.77-25.13h0c31.03,8.45,57.69,5.91,79.19-6.23-12.98-7.62-12.66-16.47.97-26.56-26.29-24.98-23.18-37.57,9.36-37.77-10.44-30.14,4.15-36.96,43.74-20.45,2.31-10.09,4.07-20.88,5.23-32.37l11.1,10.87Z"/>
        </g>
        <path class="cls-16" d="M391.61,740.19c14.62,5.35,25.55,15.19,32.28,30.99,51.92,20.46,38.47,70.6-16.14,51.65-14.75,5.54-26.47,3.71-35.18-5.49-1.72-2.85-7.15-.16-15.82-2.26-14.19-3.43-10.32-14.04,8.07-22.28-30.2-22.35-27.72-32.14,7.42-29.37-14.71-26.16-8.44-33.42,19.37-23.24Z"/>
        <path class="cls-10" d="M311.53,713.56c4.44,0,8.04,3.6,8.04,8.04s-3.6,8.04-8.04,8.04-8.04-3.6-8.04-8.04,3.6-8.04,8.04-8.04Z"/>
        <g class="cls-22">
          <path class="cls-10" d="M167.14,816.37c-12.03,5.06-21.36,1.3-27.99-11.3-4.14,21.44,3.85,31,23.36,26.2,4.18-1.03,8.89-2.72,14.12-5.09,6.15-2.79,11.24-6.52,15.39-10.96,8.55-9.15,13.08-21.33,14.63-34.56-15.4,19.2-28.57,31.1-39.5,35.71"/>
        </g>
        <g class="cls-22">
          <path class="cls-10" d="M449.67,788.85c7.63,19.4-.16,27.56-23.37,24.46-2.24-.3-4.63-.71-7.17-1.22-4.17,5.15-7.96,8.73-11.38,10.73,8.79,3.05,16.5,4.31,23.05,4.2,24.8-.44,32.9-20.59,18.86-38.17"/>
        </g>
        <g class="cls-24">
          <path class="cls-13" d="M272.15,661.12c-10.41-5.21-17.3-7-20.68-5.36,3.49,7.36,10.15,11.46,19.98,12.29,12.84,30.78,26.99,30.56,42.45-.65,12.05-.86,18.34-5.64,18.87-14.34-10.73,6.8-18.84,9.62-24.33,8.45-10.78,27.34-22.88,27.21-36.29-.38"/>
        </g>
        <path class="cls-11" d="M347.38,577.48c11.44-2.26,22.49,10.32,24.69,28.09,2.2,17.77-5.29,34.01-16.73,36.26-11.44,2.26-22.49-10.32-24.69-28.09-2.2-17.77,5.29-34.01,16.73-36.26Z"/>
        <path class="cls-19" d="M348.44,586.66c3.71,1.32,5.49,7.28,3.98,13.31-1.52,6.03-5.76,9.84-9.47,8.52-3.71-1.32-5.49-7.28-3.98-13.31,1.52-6.03,5.76-9.84,9.47-8.52Z"/>
        <path class="cls-17" d="M362.05,622.34c1.78,1.23,2.1,4.57.72,7.47-1.38,2.9-3.94,4.25-5.72,3.03-1.78-1.23-2.1-4.57-.72-7.47,1.38-2.9,3.94-4.25,5.72-3.03Z"/>
        <path class="cls-11" d="M240.07,577.49c-11.44-2.26-22.49,10.32-24.69,28.09-2.2,17.77,5.29,34.01,16.73,36.26,11.44,2.26,22.49-10.32,24.69-28.09,2.2-17.77-5.29-34.01-16.73-36.26Z"/>
        <path class="cls-19" d="M239.01,586.67c-3.71,1.32-5.49,7.28-3.98,13.31,1.52,6.03,5.76,9.84,9.47,8.52,3.71-1.32,5.49-7.28,3.98-13.31-1.52-6.03-5.76-9.84-9.47-8.52Z"/>
        <path class="cls-17" d="M225.4,622.35c-1.78,1.23-2.1,4.57-.72,7.47,1.38,2.9,3.94,4.25,5.72,3.03,1.78-1.23,2.1-4.57.72-7.47-1.38-2.9-3.94-4.25-5.72-3.03Z"/>
        <ellipse class="cls-19" cx="292.18" cy="636.02" rx="5.73" ry="1.39"/>
      </g>
      <g>
        <path class="cls-7" d="M638.87,811.23c5.57,50.69,78.87,70.95,131.24,55.69,22.16-6.45,57.44-45.66,26.02-100.21-2.66-4.62-5.8-9.36-9.48-14.19-7.38-9.72-16.89-19.83-28.93-30.27l-1.53,2.81-19.45,35.46s.02.07.03.11c5.91,20.3-6.66,23.96-24.6,23.6-30.89-.58-77.7-13.1-73.3,27Z"/>
        <path class="cls-15" d="M638.87,811.23c5.56,50.69,78.87,70.95,131.24,55.69,9.19-2.68,20.64-10.99,28.65-23.69,11.3-17.92,15.75-44.6-2.64-76.52-3.84-6.67-8.68-13.57-14.66-20.65-6.49-7.71-14.35-15.67-23.75-23.81l-2,3.66-16.58,30.26s-.01,0-.01,0l-2.38,4.35c16.29,55.47-104.83-12.71-97.86,50.71Z"/>
        <path class="cls-15" d="M402.33,683.07c.49,1.82,1.03,3.69,1.64,5.64,3.25,10.41,7.96,19.87,13.74,28.44,26.55,39.36,75.74,59.92,109.79,66.4h.01c4.7.89,9.1,1.51,13.12,1.88,9.53.88,16.88.32,20.75-1.51,27.15-12.87,44.81-24.16,48.4-39.87.11-.51.22-1.02.31-1.54,1.43-8.53-1.18-18.37-8.5-30.42-5.3-8.7-19.94-8.77-39.71-12.39-.09-.02-.19-.03-.28-.05-13.92-2.57-30.36-6.91-47.87-17.26-.39-.23-.78-.46-1.16-.7-.18-.1-.34-.21-.51-.31-27.08-16.79-35.88-41.59-37.86-51.59-2.22-11.31,2.9-41.5-11.57-44.55-16.5-3.5-19.02,28.68-22.03,28.54-4.3-.21-4.9-29.41-19.47-28.59-22.4,1.26-8.86,41.25-11.32,44.54-9.32,12.52-14.93,25.85-7.5,53.35Z"/>
        <g class="cls-23">
          <path class="cls-3" d="M402.32,683.07c.49,1.82,1.03,3.69,1.64,5.64.27.88.56,1.75.86,2.62.03.08.05.17.08.24.18.52.36,1.04.55,1.56.39,1.09.79,2.15,1.21,3.2.25.63.5,1.24.76,1.86.25.62.51,1.22.78,1.83.49,1.11.99,2.19,1.51,3.27.07.17.16.33.24.49.17.35.34.71.52,1.06.26.53.53,1.06.82,1.6.52,1.02,1.08,2.04,1.64,3.03.33.62.69,1.22,1.04,1.82,1.18,2,2.41,3.97,3.71,5.88h.01c26.54,39.36,75.73,59.92,109.78,66.4,4.7.89,9.11,1.51,13.13,1.88l-3.13-28.04s-54.55,2.64-84.3-26.92c-42.69-42.4,2.79-44.39,8.32-70.66,5.26-25-1.64-27.88-1.64-27.88,0,0-23.46,25.42-50.05-2.21-9.32,12.52-14.93,25.85-7.5,53.35Z"/>
        </g>
        <path class="cls-15" d="M777.83,835.18s14.42-23.7,32.72-26.21c20.2-2.77,41.36,13.71,36.94,42.09-5.17,33.23-50.6,28.94-50.6,28.94l-19.07-44.81Z"/>
        <path class="cls-15" d="M777.82,835.18l2.39,5.63c4.82-6.7,16.46-20.77,30.34-22.68,17.16-2.35,35.03,9.19,37.29,30.14,2.66-26.67-17.76-41.98-37.29-39.3-18.31,2.52-32.73,26.22-32.73,26.22Z"/>
        <g class="cls-23">
          <path class="cls-3" d="M847.63,850.08s0,0,0,0c-4.42,34.29-50.74,29.91-50.74,29.91l-19.07-44.81s6.4-10.52,16.09-18.29l10.09,25.16c6.97,17.36,29.6,22.32,42.72,8.98.3-.31.6-.62.9-.95Z"/>
        </g>
        <path class="cls-15" d="M486.05,929.99l163.79,52.34,170.17-52.34c-4.37-25.2-10.74-50.98-18-75.87-1.06-3.65-2.15-7.28-3.26-10.9-2.75-8.99-5.59-17.82-8.47-26.44-8.13-24.25-16.62-46.8-24.33-65.99-.16-.4-.32-.79-.48-1.19-.52-1.33-1.04-2.62-1.57-3.91-2.89-7.13-5.66-13.76-8.22-19.79-.79-1.86-1.57-3.66-2.32-5.41-8.72-20.25-14.59-32.43-14.59-32.43h-171.52s-2,4.14-5.4,11.62c-2.01,4.44-4.52,10.05-7.39,16.66-.58,1.34-1.18,2.72-1.8,4.14-3.26,7.56-6.9,16.23-10.78,25.82-.5,1.26-1.03,2.56-1.55,3.85-4.11,10.26-8.47,21.47-12.86,33.39-3.9,10.57-7.86,21.71-11.71,33.24-4.05,12.09-8.01,24.59-11.72,37.33-7.27,24.89-13.62,50.67-18.01,75.87Z"/>
        <path class="cls-15" d="M555.49,891.59c-15.18-42.99-80.39-54.37-97.47,15.49-13.08,53.53,28.46,65.86,28.46,65.86h340.75s41.54-12.32,28.46-65.86c-17.08-69.86-82.29-58.48-97.47-15.49,0,0-48.94,16.89-101.37,16.89-52.43,0-101.37-16.89-101.37-16.89Z"/>
        <path class="cls-15" d="M410.81,626.83s23.05,7.87,20,21.89c-3.23,14.89-19.27,27.61-29.01,17.85-9.74-9.76-5.75-32.17,9.01-39.74Z"/>
        <path class="cls-1" d="M399.18,663.09c-1.07-7.08.84-15.3,5.42-21.58,3.96-5.44,11.53-6.81,17.32-3.37,3.34,1.99,6.9,4.68,9.18,8-.04-12.41-20.28-19.31-20.28-19.31-13.21,6.77-17.79,25.41-11.63,36.26Z"/>
        <path class="cls-15" d="M483.75,659.07c3.61-10.38-.99-36.78-22.6-34.81-17.71,1.62-24.84,15.95-19.71,21.67,4.1,4.56,16.64,1.46,16.83,1.84.19.38-5.2,11.59,3.22,19.51"/>
        <path class="cls-15" d="M736.73,760.52c14.04,47.79-73.94,3.78-94.1,31.26-3.24,4.41-.76,14.66-.76,14.66,0,0-3.14,5.44-1.24,13.73,1.57,6.83,6.78,9.96,6.78,9.96,0,0,1.86,7.42,3.34,9.24,23.9,29.55,78.12,39.56,119.36,27.55,22.16-6.46,57.44-45.67,26.01-100.22,0,0-6.17-10.04-16.37-10.04"/>
        <g class="cls-23">
          <path class="cls-6" d="M640.63,820.17c1.57,6.83,6.79,9.96,6.79,9.96,0,0,1.86,7.42,3.33,9.25,23.91,29.55,78.12,39.56,119.36,27.54,17.26-5.02,42.46-29.9,37.95-66.42-3.5,27.2-23.42,45.61-37.95,49.51-88.69,23.81-126.2-38.9-128.32-43.42-.49.94-2.87,6.09-1.16,13.58Z"/>
        </g>
        <path class="cls-15" d="M793.45,488.24s19.68-68.48,69.15-64.56c39.87,3.16,67.47,36.48,55.33,74.33-15.62,48.69-65.61,52.35-65.61,52.35l-58.86-62.12Z"/>
        <path class="cls-12" d="M821.08,490.65s10.95-38.12,38.49-35.93c22.19,1.76,37.55,20.31,30.8,41.37-8.69,27.1-36.52,29.14-36.52,29.14"/>
        <path class="cls-20" d="M821.08,490.66l27.41,28.92,5.36,5.65s27.83-2.04,36.52-29.14c6.75-21.07-8.61-39.61-30.8-41.38-7.82-.62-14.31,2.01-19.57,6.1-13.3,10.29-18.91,29.84-18.91,29.84Z"/>
        <g class="cls-23">
          <path class="cls-3" d="M821.08,490.66l27.41,28.92c5.25-4.3,10.07-10.45,12.89-19.25,5.75-17.93-4.52-34.03-21.39-39.52-13.3,10.29-18.91,29.84-18.91,29.84Z"/>
        </g>
        <path class="cls-15" d="M615.93,452.01s8.75-70.71-38.29-86.49c-37.92-12.72-76.37,7.12-80.05,46.69-4.73,50.92,39.83,73.88,39.83,73.88l78.52-34.08Z"/>
        <path class="cls-12" d="M589.57,443.39s4.87-39.36-21.32-48.14c-21.11-7.08-42.51,3.96-44.56,25.99-2.63,28.34,22.17,41.12,22.17,41.12"/>
        <path class="cls-20" d="M589.57,443.4l-36.56,15.86-7.14,3.1s-24.8-12.79-22.17-41.13c2.05-22.03,23.45-33.07,44.56-25.99,7.44,2.5,12.37,7.46,15.61,13.29,8.2,14.68,5.7,34.87,5.7,34.87Z"/>
        <g class="cls-23">
          <path class="cls-3" d="M589.57,443.4l-36.56,15.86c-3.14-6.01-5.17-13.56-4.31-22.76,1.74-18.74,17.51-29.53,35.18-27.97,8.2,14.68,5.7,34.87,5.7,34.87Z"/>
        </g>
        <g class="cls-23">
          <path class="cls-3" d="M512.57,681.67c10.94,11.77,24.71,23.75,41.92,34.67,15.56,9.89,33.94,18.92,55.6,26.15,11.21,3.76,23.3,7.02,36.34,9.69,35.52,7.25,66.35,7.61,92.69,3.98,0,0,.01.01.01,0,9.53-1.32,18.48-3.15,26.84-5.36,5.41-1.44,10.57-3.04,15.49-4.75-6.49-7.71-14.35-15.67-23.75-23.81l-2,3.66c-.79-1.86-1.57-3.66-2.32-5.41-8.72-20.25-14.59-32.43-14.59-32.43h-171.52s-2,4.14-5.4,11.62c-.09-.02-.19-.03-.28-.05-13.92-2.57-30.36-6.91-47.87-17.26-.39-.23-.78-.46-1.16-.7Z"/>
        </g>
        <path class="cls-15" d="M648.16,742.25c-96.76-19.73-141.46-72.97-160.68-106.91-9.58-16.92-12.17-36.86-7.45-55.72,14.15-56.64,36.11-87.32,74.06-125.3,91.13-91.2,245.47-59.7,293.54,59.92,20.02,49.81,28.19,86.64,18.99,144.3-3.06,19.2-13.26,36.53-28.71,48.34-30.99,23.69-92.99,55.15-189.74,35.37Z"/>
        <g class="cls-23">
          <path class="cls-3" d="M487.49,635.33c19.22,33.94,63.92,87.19,160.68,106.92,96.74,19.77,158.75-11.69,189.74-35.38,15.44-11.8,25.64-29.14,28.7-48.34.11-.68.21-1.36.32-2.04-4.36,15.87-13.72,29.97-26.91,40.05-31,23.69-93,55.14-189.74,35.37-96.76-19.73-141.46-72.97-160.68-106.91-8.18-14.45-11.26-31.09-9.06-47.4-.17.67-.34,1.34-.51,2.01-4.72,18.86-2.13,38.81,7.46,55.72Z"/>
        </g>
        <path class="cls-20" d="M618.47,635.59c-4.41,21.6,14.18,43.63,41.53,49.21,27.35,5.58,53.09-7.4,57.5-29,4.41-21.6-15.66-36.36-43.01-41.95-27.35-5.58-51.61.13-56.02,21.73Z"/>
        <g>
          <ellipse class="cls-20" cx="761.57" cy="674.37" rx="11.91" ry="26.99" transform="translate(-51.48 1285.69) rotate(-78.46)"/>
          <ellipse class="cls-20" cx="570.65" cy="635.39" rx="11.91" ry="26.99" transform="translate(-166.03 1067.45) rotate(-78.46)"/>
        </g>
        <path class="cls-15" d="M762.96,427.77s-20.06-45.44-52.81-58.13c-26.99-10.46-7.2,24.85-7.2,24.85,0,0-22.01-25.7-35.82-19.33-13.66,6.31,9.38,24.17.08,31.64"/>
        <path class="cls-1" d="M775.58,636.73c-.08-1.58-.26-2.85-.52-4.25-.24-1.37-.6-2.7-.97-4.05-.81-2.66-1.86-5.29-3.25-7.81-2.75-5.01-6.91-9.74-12.45-12.75-5.52-3-12.1-3.95-17.88-3.01-5.83.87-11.08,3.07-15.54,6.13-1.62,1.11-2.03,3.32-.92,4.94.85,1.23,2.33,1.77,3.71,1.46l.07-.02c4.76-1.08,9.32-1.93,13.59-1.96,1.08-.06,2.1.08,3.13.1,1,.16,2.01.23,2.96.49,1.92.42,3.74,1.05,5.44,1.96,3.4,1.82,6.43,4.68,9.04,8.22,1.31,1.76,2.55,3.67,3.65,5.69.57,1,1.09,2.04,1.62,3.09.51,1.02,1.02,2.18,1.46,3.08l.19.39c.84,1.75,2.94,2.49,4.69,1.65,1.32-.63,2.06-1.98,1.99-3.36Z"/>
        <path class="cls-1" d="M576.86,598.89c.75-.66,1.68-1.52,2.55-2.26.9-.75,1.78-1.51,2.7-2.21,1.81-1.43,3.69-2.7,5.59-3.81,3.79-2.23,7.7-3.68,11.54-4.02,1.93-.17,3.85-.04,5.78.33.97.13,1.93.47,2.91.71.96.38,1.96.65,2.92,1.13,3.91,1.7,7.77,4.27,11.73,7.13l.05.04c1.59,1.15,3.81.79,4.96-.8.88-1.21.87-2.8.12-3.99-2.91-4.56-6.87-8.65-11.89-11.73-4.94-3.14-11.36-4.84-17.62-4.24-6.28.6-11.96,3.32-16.46,6.85-2.26,1.78-4.26,3.78-6.05,5.91-.87,1.09-1.72,2.18-2.48,3.34-.78,1.18-1.44,2.29-2.14,3.7-.86,1.74-.14,3.85,1.61,4.7,1.31.64,2.83.4,3.87-.51l.33-.29Z"/>
        <path class="cls-1" d="M651.51,627.79c-2.18,10.67,16.17,19.42,16.17,19.42,0,0,20.31-.85,22.49-11.52,1.12-5.48-18.22-9.42-18.22-9.42,0,0-19.33-3.95-20.45,1.53Z"/>
        <g class="cls-25">
          <path class="cls-19" d="M662.64,628.94c-.56,2.76,3.97,4.99,7.5,5.71,3.53.72,8.57.46,9.14-2.31.29-1.42-8.03-3.12-8.03-3.12,0,0-8.32-1.7-8.61-.28Z"/>
        </g>
        <g class="cls-23">
          <path class="cls-3" d="M666.16,649.35c-12.03,15.49-27.66,3.15-27.47-5.61l1.91-.89c5.41,8.26,15.45,6.91,23.39,2.24l2.17,4.27Z"/>
        </g>
        <polygon class="cls-14" points="667.67 647.2 667.67 647.21 667.68 647.2 667.67 647.2"/>
        <path class="cls-1" d="M636.6,643.69c-.1,2.11.41,4.1,1.24,5.85.82,1.75,1.93,3.33,3.23,4.71,2.62,2.74,6.11,4.81,10.13,5.49,2,.34,4.1.29,6.11-.14,2.01-.43,3.92-1.23,5.63-2.25,1.73-1.01,3.25-2.26,4.59-3.6,1.39-1.33,2.53-2.79,3.65-4.27,1.33-1.76.98-4.27-.79-5.6-.55-.41-1.16-.66-1.8-.76h-.08s0-.01,0-.01l-.5-.07c-2.17-.33-4.2,1.17-4.52,3.34-.08.52-.05,1.06.07,1.54.45,1.8.92,3.59,1.68,5.36.71,1.76,1.62,3.5,2.81,5.11,1.17,1.61,2.61,3.09,4.3,4.28,1.68,1.19,3.6,2.05,5.57,2.52,3.96.95,7.99.41,11.47-1.08,1.75-.76,3.38-1.78,4.82-3.07,1.44-1.28,2.69-2.91,3.43-4.89.4-1.08-.14-2.28-1.22-2.68-1.01-.38-2.12.07-2.59,1.01l-.06.12c-1.08,2.14-3.62,3.82-6.23,4.63-2.65.81-5.51.81-7.88-.06-2.39-.86-4.24-2.58-5.52-4.83-1.31-2.23-1.99-5.02-2.35-7.87l-4.95,4.81h0s-2.66-6.37-2.66-6.37c-1.45,2.48-3.16,4.78-5.25,6.32-2.06,1.57-4.44,2.43-6.97,2.28-2.52-.13-5.15-1.24-7.27-3.03-2.09-1.77-3.77-4.31-3.92-6.71v-.13c-.08-1.15-1.07-2.02-2.22-1.95-1.07.07-1.9.94-1.95,1.99Z"/>
        <path class="cls-15" d="M736.73,760.52c14.04,47.79-73.94,3.78-94.1,31.26-3.24,4.41-.76,14.66-.76,14.66,0,0-3.14,5.44-1.24,13.73,1.57,6.83,6.78,9.96,6.78,9.96,0,0,1.86,7.42,3.34,9.24,23.9,29.55,78.12,39.56,119.36,27.55,22.16-6.46,57.44-45.67,26.01-100.22,0,0-6.17-10.04-16.37-10.04"/>
        <g class="cls-23">
          <path class="cls-3" d="M640.63,820.17c1.57,6.83,6.79,9.96,6.79,9.96,0,0,1.86,7.42,3.33,9.25,23.91,29.55,78.12,39.56,119.36,27.54,17.26-5.02,42.46-29.9,37.95-66.42-3.5,27.2-23.42,45.61-37.95,49.51-88.69,23.81-126.2-38.9-128.32-43.42-.49.94-2.87,6.09-1.16,13.58Z"/>
        </g>
      </g>
    </g>
    <g class="cls-27">
      <path class="cls-8" d="M722.27,270.69c-29.26,0-32.65-27-32.96-36.2-.31,9.2-3.7,36.2-32.96,36.2,29.26,0,32.65,27,32.96,36.2.31-9.2,3.7-36.2,32.96-36.2Z"/>
    </g>
    <g class="cls-26">
      <path class="cls-8" d="M298.12,307.29c-29.26,0-32.65-27-32.96-36.2-.31,9.2-3.7,36.2-32.96,36.2,29.26,0,32.65,27,32.96,36.2.31-9.2,3.7-36.2,32.96-36.2Z"/>
    </g>
    <g class="cls-30">
      <path class="cls-8" d="M418.02,173.58c-19.3,0-21.54-17.82-21.75-23.89-.2,6.07-2.44,23.89-21.75,23.89,19.3,0,21.54,17.82,21.75,23.89.2-6.07,2.44-23.89,21.75-23.89Z"/>
    </g>
    <g class="cls-28">
      <path class="cls-8" d="M659.03,231.32c-10.2,0-11.39-9.42-11.49-12.63-.11,3.21-1.29,12.63-11.49,12.63,10.2,0,11.39,9.42,11.49,12.63.11-3.21,1.29-12.63,11.49-12.63Z"/>
    </g>
  </g>
</svg>