<?xml version="1.0" encoding="UTF-8"?>
<svg id="Layer_1" data-name="Layer 1" xmlns="http://www.w3.org/2000/svg" xmlns:xlink="http://www.w3.org/1999/xlink" viewBox="0 0 1000 1000">
  <defs>
    <style>
      .cls-1 {
        fill: #000072;
      }

      .cls-1, .cls-2, .cls-3, .cls-4, .cls-5, .cls-6, .cls-7, .cls-8, .cls-9, .cls-10, .cls-11, .cls-12, .cls-13, .cls-14, .cls-15, .cls-16, .cls-17, .cls-18, .cls-19 {
        stroke-width: 0px;
      }

      .cls-2 {
        fill: #f99c28;
      }

      .cls-20 {
        clip-path: url(#clippath);
      }

      .cls-3 {
        fill: none;
      }

      .cls-4 {
        fill: #ff9343;
      }

      .cls-5 {
        fill: url(#linear-gradient);
      }

      .cls-6 {
        fill: #b5cfdd;
      }

      .cls-7 {
        fill: #008456;
      }

      .cls-8 {
        fill: #1a1a1a;
      }

      .cls-9 {
        fill: #ff761a;
      }

      .cls-10 {
        fill: #93b3c1;
      }

      .cls-11 {
        fill: #825a00;
      }

      .cls-12 {
        fill: #fcd21d;
      }

      .cls-21 {
        opacity: .15;
      }

      .cls-22 {
        opacity: .22;
      }

      .cls-23 {
        opacity: .6;
      }

      .cls-24 {
        opacity: .5;
      }

      .cls-25 {
        opacity: .7;
      }

      .cls-13 {
        fill: #fc7d27;
      }

      .cls-14 {
        fill: #ffad40;
      }

      .cls-15 {
        fill: #eaad00;
      }

      .cls-16 {
        fill: #363d56;
      }

      .cls-17 {
        fill: #f9d3b7;
      }

      .cls-18 {
        fill: #493800;
      }

      .cls-19 {
        fill: #fff;
      }

      .cls-26 {
        filter: url(#outer-glow-3);
      }

      .cls-27 {
        filter: url(#outer-glow-1);
      }

      .cls-28 {
        filter: url(#outer-glow-2);
      }
    </style>
    <linearGradient id="linear-gradient" x1="-21.58" y1="987.88" x2="590.5" y2="413.89" gradientUnits="userSpaceOnUse">
      <stop offset="0" stop-color="#008456"/>
      <stop offset=".81" stop-color="#ffef02"/>
      <stop offset="1" stop-color="#ffef02"/>
    </linearGradient>
    <clipPath id="clippath">
      <circle class="cls-3" cx="496.54" cy="500" r="420.69"/>
    </clipPath>
    <filter id="outer-glow-1" filterUnits="userSpaceOnUse">
      <feOffset dx="0" dy="0"/>
      <feGaussianBlur result="blur" stdDeviation="14.66"/>
      <feFlood flood-color="#2cc416" flood-opacity=".75"/>
      <feComposite in2="blur" operator="in"/>
      <feComposite in="SourceGraphic"/>
    </filter>
    <filter id="outer-glow-2" filterUnits="userSpaceOnUse">
      <feOffset dx="0" dy="0"/>
      <feGaussianBlur result="blur-2" stdDeviation="14.66"/>
      <feFlood flood-color="#2cc416" flood-opacity=".75"/>
      <feComposite in2="blur-2" operator="in"/>
      <feComposite in="SourceGraphic"/>
    </filter>
    <filter id="outer-glow-3" filterUnits="userSpaceOnUse">
      <feOffset dx="0" dy="0"/>
      <feGaussianBlur result="blur-3" stdDeviation="7.9"/>
      <feFlood flood-color="#2cc416" flood-opacity=".75"/>
      <feComposite in2="blur-3" operator="in"/>
      <feComposite in="SourceGraphic"/>
    </filter>
  </defs>
  <circle class="cls-5" cx="497.68" cy="500.93" r="419.55"/>
  <path class="cls-7" d="M500,27.75c63.76,0,125.61,12.48,183.81,37.1,56.23,23.78,106.74,57.84,150.12,101.22s77.43,93.89,101.22,150.12c24.62,58.2,37.1,120.05,37.1,183.81s-12.48,125.61-37.1,183.81c-23.78,56.23-57.84,106.74-101.22,150.12-43.38,43.38-93.89,77.43-150.12,101.22-58.2,24.62-120.05,37.1-183.81,37.1s-125.61-12.48-183.81-37.1c-56.23-23.78-106.74-57.84-150.12-101.22-43.38-43.38-77.43-93.89-101.22-150.12-24.62-58.2-37.1-120.05-37.1-183.81s12.48-125.61,37.1-183.81c23.78-56.23,57.84-106.74,101.22-150.12,43.38-43.38,93.89-77.43,150.12-101.22,58.2-24.62,120.05-37.1,183.81-37.1M500,0C223.86,0,0,223.86,0,500s223.85,499.99,499.99,499.99,499.99-223.85,499.99-499.99S776.14,0,500,0h0Z"/>
  <g class="cls-20">
    <g>
      <g class="cls-27">
        <path class="cls-7" d="M181.32,473.33c-34.77,0-38.8-32.09-39.17-43.03-.37,10.94-4.4,43.03-39.17,43.03,34.77,0,38.8,32.09,39.17,43.03.37-10.94,4.4-43.03,39.17-43.03Z"/>
      </g>
      <g class="cls-28">
        <path class="cls-7" d="M880.31,459.41c-34.77,0-38.8-32.09-39.17-43.03-.37,10.94-4.4,43.03-39.17,43.03,34.77,0,38.8,32.09,39.17,43.03.37-10.94,4.4-43.03,39.17-43.03Z"/>
      </g>
      <g class="cls-26">
        <path class="cls-7" d="M208.58,413.1c-18.74,0-20.92-17.3-21.11-23.19-.2,5.89-2.37,23.19-21.11,23.19,18.74,0,20.92,17.3,21.11,23.19.2-5.89,2.37-23.19,21.11-23.19Z"/>
      </g>
      <path class="cls-12" d="M841.14,844.51c-24.12,0-26.92-22.26-27.17-29.85-.25,7.59-3.05,29.85-27.17,29.85,24.12,0,26.92,22.26,27.17,29.85.25-7.59,3.05-29.85,27.17-29.85Z"/>
      <path class="cls-1" d="M813.97,876.7c-1.26,0-2.3-1-2.34-2.26-.28-8.29-3.26-27.58-24.83-27.58-1.29,0-2.34-1.05-2.34-2.34s1.05-2.34,2.34-2.34c21.58,0,24.55-19.29,24.83-27.58.04-1.26,1.08-2.26,2.34-2.26s2.3,1,2.34,2.26c.28,8.29,3.25,27.58,24.83,27.58,1.29,0,2.34,1.05,2.34,2.34s-1.05,2.34-2.34,2.34c-21.58,0-24.55,19.29-24.83,27.58-.04,1.26-1.08,2.26-2.34,2.26ZM799.36,844.51c8.15,3.48,12.4,10.29,14.61,16.73,2.21-6.44,6.46-13.25,14.61-16.73-8.15-3.48-12.4-10.29-14.61-16.73-2.21,6.44-6.46,13.25-14.61,16.73Z"/>
      <path class="cls-14" d="M354.53,851.41c17.04-2.8,56.29-37.72,43.64-97.64-16.86-79.85-135.02-113.62-207.85-11.04-82.64,116.4-18.91,364.61,212.52,318.86,178.76-35.34,79.89-94.76,79.89-94.76,0,0-130.66-18.84-128.2-115.42Z"/>
      <path class="cls-14" d="M402.83,1061.58c-221.07,43.71-289.13-180.84-222.72-302.49h0c3.11-5.71,6.51-11.17,10.21-16.37,63.66-89.64,161.93-75.14,196.93-16.75,5.05,8.41,8.79,17.74,10.91,27.81,12.66,59.92-26.59,94.84-43.64,97.64-2.45,96.58,128.21,115.41,128.21,115.41,0,0,98.87,59.42-79.9,94.75Z"/>
      <path class="cls-14" d="M402.83,1061.58c-221.07,43.71-289.13-180.84-222.72-302.49h0c3.11-5.71,6.51-11.17,10.21-16.37,63.66-89.64,161.93-75.14,196.93-16.75,5.05,8.41,8.79,17.74,10.91,27.81,11.76,55.61-21.2,89.68-39.64,96.53-1.43.54-2.77.91-4,1.11-.15,5.75.18,11.23.93,16.44,11.71,82.31,127.27,98.97,127.27,98.97,0,0,98.87,59.42-79.9,94.75Z"/>
      <path class="cls-14" d="M402.83,1061.58c-85.45,16.9-148.03-6.28-188.83-48.11-64.77-66.39-74.64-179.74-33.9-254.39h0c3.11-5.71,6.51-11.17,10.21-16.37,63.66-89.64,161.93-75.14,196.93-16.75,5.05,8.41,8.79,17.74,10.91,27.81,11.76,55.61-21.2,89.68-39.64,96.53-1.43.54-2.77.91-4,1.11-.15,5.75.18,11.23.93,16.44,1.37,9.68,4.19,18.46,8.09,26.4,29.21,59.6,119.18,72.57,119.18,72.57,0,0,98.87,59.42-79.9,94.75Z"/>
      <path class="cls-4" d="M355.45,867.86c-11.48,26.77-58.68,38.83-96.52,14.53-32.86-21.1-37.06-92.75-26.67-103.51,21.37-16.06,47.05,17.5,69.03,42.73,22.48,25.83,45.23,29.15,57.22,28.7-1.43.54-2.77.91-4,1.11-.15,5.75.18,11.23.93,16.44Z"/>
      <path class="cls-19" d="M387.25,725.97c-1.01,11.55-3.33,22.48-7.4,32.22-21.12,50.56-64.02-13.87-91.27-31.63-48.73-31.78-92.24,11.67-108.46,32.52,3.11-5.7,6.51-11.16,10.21-16.36,63.66-89.64,161.93-75.14,196.93-16.75Z"/>
      <g class="cls-22">
        <path class="cls-18" d="M231.53,779.36c23.13-20.41,50.5,13.62,65.37,29.11,8.45,9.08,16.82,18.44,26.36,26.13,8.8,7.14,19.08,13,30.48,11.87,0,0,1.56,9.89,1.56,9.89-14.32,3.08-28.72-3.93-39.41-12.56-15.57-12.61-26.67-27.92-39.5-42.5-11.2-12.58-26.24-31.18-44.87-21.94h0Z"/>
      </g>
      <path class="cls-14" d="M253.67,843.37c37.06,24.45,95.67,10.4,138.7-4.35,6.12-2.09,11.93-4.21,17.3-6.23l22-78.93,12.12-43.45c-27.07,4.9-50,12.79-71,17.52-12.86,2.89-24.99,4.61-36.89,3.73,0,0-67.37-39.45-80.67-28.97-8.67,20.26-21.33,46.95-25.68,72.8h0c-4.35,25.86-.41,50.89,24.12,67.88Z"/>
      <path class="cls-14" d="M763.18,843.37c-37.06,24.45-95.67,10.4-138.7-4.35-6.12-2.09-11.93-4.21-17.3-6.23l-22-78.93-12.12-43.45c27.07,4.9,50,12.79,71,17.52,12.86,2.89,24.99,4.61,36.89,3.73,0,0,67.37-39.45,80.67-28.97,8.67,20.26,21.33,46.95,25.68,72.8h0c4.35,25.86.41,50.89-24.12,67.88Z"/>
      <path class="cls-14" d="M443.79,710.41l-12.12,43.45-13.17,47.25c-33-8.48-66.05-17.79-83.38-37.91,1.36,21.84-10.94,33.73-11.22,33.56-30.51-40.43-59.46-44.1-80.19-66.75-.04-.04-.08-.09-.12-.14,3.98-9.79,8.13-19.02,11.63-27.19,13.3-10.48,80.67,28.97,80.67,28.97,11.9.88,24.03-.84,36.89-3.73,21-4.73,43.94-12.62,71-17.52Z"/>
      <path class="cls-14" d="M773.62,730.75c-20.65,21.84-49.2,25.99-79.28,65.87-.27.16-12.59-11.71-11.22-33.55-17.56,20.41-51.26,29.71-84.69,38.3h-.01l-13.24-47.52-12.12-43.45c27.07,4.9,50,12.79,71,17.52,12.86,2.89,24.99,4.61,36.89,3.73,0,0,67.37-39.45,80.67-28.97,3.61,8.41,7.9,17.95,11.99,28.07Z"/>
      <path class="cls-13" d="M628.51,793.05c-46.67,14.52-103.31,20.87-119.36,50.96v-2.32s-.01,2.32-.01,2.32c-16.14-30.21-73.22-36.44-120.02-51.07,5.42-10.59,10.16-19.94,13.41-27.66,0,0,13.57-42.67,106.26-42.67s106.26,42.67,106.26,42.67c3.26,7.75,8.02,17.14,13.47,27.77Z"/>
      <g class="cls-22">
        <path class="cls-4" d="M253.67,843.37c37.06,24.45,95.67,10.4,138.7-4.35,5.48-32.5,14.67-74.33,11.55-73.5-5.09,1.32-27.01,49.38-47.95,48.37-15.71-.76-20.07-22.12-20.07-22.12,0,0-11.05,35.71-55.82,31.92-41.55-3.53-50.39-47.5-50.53-48.18-4.35,25.85-.41,50.88,24.12,67.87Z"/>
      </g>
      <path class="cls-4" d="M372.79,727.93c13.44,10.82,33.93,19.83,58.89,25.93l12.12-43.45c-27.07,4.9-50,12.79-71,17.52Z"/>
      <g class="cls-22">
        <path class="cls-18" d="M335.9,790.76s4.55-18.4,3.7-38.45"/>
        <path class="cls-18" d="M335.9,790.76c1.17-12.79.85-25.64-1.3-38.24,0,0,10.01-.43,10.01-.43-1.16,13.2-4.19,26.28-8.7,38.67h0Z"/>
      </g>
      <path class="cls-10" d="M547.06,760.48c-12.34,1.36-25.28,2.08-38.63,2.08s-26.3-.72-38.64-2.08c11.71-4.15,24.57-6.48,38.63-6.48h0c14.07-.01,26.93,2.32,38.64,6.48Z"/>
      <path class="cls-10" d="M607.14,747.33c-26.65,9.51-61.09,15.24-98.71,15.24s-71.48-5.63-98.03-14.98c11.83-22.03,41.47-62.99,98.03-62.99s86.48,40.65,98.71,62.74Z"/>
      <path class="cls-4" d="M763.18,843.37c-37.06,24.45-95.67,10.4-138.7-4.35-5.48-32.5-13.32-74.33-10.2-73.5,5.09,1.32,25.66,49.38,46.6,48.37,15.71-.76,20.07-22.12,20.07-22.12,0,0,11.05,35.71,55.82,31.92,41.55-3.53,50.39-47.5,50.53-48.18,4.35,25.85.41,50.88-24.12,67.87Z"/>
      <path class="cls-4" d="M644.07,727.93c-13.44,10.82-33.93,19.83-58.89,25.93l-12.12-43.45c27.07,4.9,50,12.79,71,17.52Z"/>
      <g>
        <path class="cls-6" d="M615.03,765.29c20.02,47.54,96.76,156.92,38.8,236.06l-63.55,56.02c-16.09,8.14-43.75,16.24-81.5,16.24s-65.42-8.1-81.5-16.24l-63.55-56.02c-57.97-79.15,18.78-188.52,38.8-236.06,0,0,13.57-42.68,106.25-42.68s106.26,42.68,106.26,42.68Z"/>
        <path class="cls-2" d="M674.23,948.97c-2.13,18.22-8.37,35.95-20.41,52.38l-63.55,56.01c-16.09,8.14-43.75,16.25-81.5,16.25s-65.43-8.1-81.51-16.25l-63.55-56.01c-12.02-16.42-18.26-34.17-20.39-52.38-8.14-69.52,43.34-146.02,59.2-183.69,0,0,13.57-42.67,106.26-42.67s106.26,42.67,106.26,42.67c15.86,37.67,67.34,114.17,59.2,183.69Z"/>
        <path class="cls-14" d="M674.23,948.97c-2.13,18.22-8.37,35.95-20.41,52.38l-63.55,56.01c-16.09,8.14-43.75,16.25-81.5,16.25s-65.43-8.1-81.51-16.25l-63.55-56.01c-12.02-16.42-18.26-34.17-20.39-52.38-8.14-69.52,43.34-146.02,59.2-183.69,0,0,13.57-42.67,106.26-42.67s106.26,42.67,106.26,42.67c15.86,37.67,67.34,114.17,59.2,183.69Z"/>
        <path class="cls-4" d="M674.23,948.97c-2.13,18.22-8.37,35.95-20.41,52.38l-63.55,56.01c-16.09,8.14-43.75,16.25-81.5,16.25s-65.43-8.1-81.51-16.25l-63.55-56.01c-12.02-16.42-18.26-34.17-20.39-52.38,24.2,19.4,78.39,44.6,165.46,44.6s141.24-25.2,165.46-44.6Z"/>
      </g>
      <path class="cls-4" d="M607.14,747.33c-26.65,9.51-61.09,15.24-98.71,15.24s-71.48-5.63-98.03-14.98c11.83-22.03,41.47-62.99,98.03-62.99s86.48,40.65,98.71,62.74Z"/>
      <path class="cls-17" d="M589.68,752.71c-23.54,6.24-51.39,9.85-81.24,9.85s-57.2-3.54-80.61-9.68c4.5-12.33,6.36-21.85,3.5-27.84,6.31-25.87,51.74-20.02,77.46-20.02s71.14-5.85,77.45,20.02c-2.85,5.96-1.01,15.42,3.44,27.67Z"/>
      <path class="cls-19" d="M508.78,705.01c25.71,0,71.15-5.84,77.46,20.02-11.54,24.09,53.52,105.58,58.62,195.79,6.6,50.93-30.06,122.83-136.08,126.66-106.02-3.83-142.68-75.73-136.08-126.66,5.1-90.22,70.16-171.71,58.62-195.79,6.31-25.86,51.75-20.02,77.46-20.02Z"/>
      <g class="cls-21">
        <path class="cls-1" d="M589.68,752.71c-23.54,6.24-51.39,9.85-81.24,9.85s-57.2-3.54-80.61-9.68c4.5-12.33,6.36-21.85,3.5-27.84,6.31-25.87,51.74-20.02,77.46-20.02s71.14-5.85,77.45,20.02c-2.85,5.96-1.01,15.42,3.44,27.67Z"/>
      </g>
      <g class="cls-21">
        <path class="cls-1" d="M638.44,969.8c-15.14,38.9-55.38,75-129.66,77.69-74.3-2.69-114.52-38.79-129.66-77.69,29.63,12.94,72.58,23.77,129.66,23.77s100.03-10.83,129.66-23.77Z"/>
      </g>
      <path class="cls-14" d="M765.35,629.46c-33.65,59-118.31,89.27-185.73,96.84,0,0-36.44,4.39-70.84,4.39s-70.86-4.39-70.86-4.39c-67.42-7.57-152.07-37.84-185.71-96.84-22.75-39.91-23.87-78.92-12.16-115.3,3.34-10.4,7.73-20.58,12.96-30.52,6.01-36.05,21.87-98.4,54.11-144.5l33.4-38.28c37.38-33.78,90.95-57.42,168.26-57.42s130.86,23.64,168.24,57.42l33.41,38.28c32.23,46.1,48.11,108.45,54.11,144.5,5.23,9.92,9.61,20.1,12.95,30.49.03.1.07.2.1.3,11.62,36.31,10.46,75.22-12.24,115.03Z"/>
      <path class="cls-9" d="M493.93,303.82l99.42,42.11,134.55,56.98c29.1-37.69,47.83-149.8,20.53-189.71-8.24-12.04-20.67-17.5-38.28-12.35-44.33,12.97-115.19,85.72-216.22,102.98Z"/>
      <g class="cls-24">
        <path class="cls-19" d="M493.93,303.82l17.86,7.57c92.62-21.63,158.37-87.5,200.33-99.76,17.61-5.15,30.04.31,38.28,12.35,4.3,6.29,7.46,14.4,9.63,23.71-1.96-13.88-5.7-25.87-11.6-34.49-8.24-12.04-20.67-17.5-38.28-12.35-44.33,12.97-115.19,85.72-216.22,102.98Z"/>
      </g>
      <path class="cls-9" d="M593.35,345.93l134.55,56.98c29.1-37.69,47.83-149.8,20.53-189.71-6.04-2.34-13.54-1.9-22.43,4.58-22.75,16.57-77.95,106.17-132.65,128.15Z"/>
      <path class="cls-19" d="M723.1,382.37v.02c-1.61,2.88-3.28,5.41-5,7.52l-94.85-92.86c56.69-37.16,94.64-73.14,106.02-67.86,1.79.83,3.59,3.06,5.29,6.63,4.55,9.54,8.23,28.6,8.09,55.41-.17,32.26-8.16,70.63-19.56,91.14Z"/>
      <g class="cls-21">
        <path class="cls-1" d="M723.1,382.37v.02c-1.61,2.88-3.28,5.41-5,7.52l-94.85-92.86c56.69-37.16,94.64-73.14,106.02-67.86,1.79.83,3.59,3.06,5.29,6.63-4.24,1.85-10.05,6.42-17.97,15.82-24.93,29.61-25.75,61.02-15.62,90.46,2.93,8.52,13.15,25.84,22.12,40.28Z"/>
      </g>
      <path class="cls-9" d="M523.61,303.82l-99.42,42.11-134.55,56.98c-29.1-37.69-47.83-149.8-20.53-189.71,8.24-12.04,20.67-17.5,38.28-12.35,44.33,12.97,115.19,85.72,216.22,102.98Z"/>
      <g class="cls-24">
        <path class="cls-19" d="M523.61,303.82l-17.86,7.57c-92.62-21.63-158.37-87.5-200.33-99.76-17.61-5.15-30.04.31-38.28,12.35-4.3,6.29-7.46,14.4-9.63,23.71,1.96-13.88,5.7-25.87,11.6-34.49,8.24-12.04,20.67-17.5,38.28-12.35,44.33,12.97,115.19,85.72,216.22,102.98Z"/>
      </g>
      <path class="cls-9" d="M424.19,345.93l-134.55,56.98c-29.1-37.69-47.83-149.8-20.53-189.71,6.04-2.34,13.54-1.9,22.43,4.58,22.75,16.57,77.95,106.17,132.65,128.15Z"/>
      <path class="cls-19" d="M294.44,382.37v.02c1.61,2.88,3.28,5.41,5,7.52l94.85-92.86c-56.69-37.16-94.64-73.14-106.02-67.86-1.79.83-3.59,3.06-5.29,6.63-4.55,9.54-8.23,28.6-8.09,55.41.17,32.26,8.16,70.63,19.56,91.14Z"/>
      <g class="cls-21">
        <path class="cls-1" d="M294.44,382.37v.02c1.61,2.88,3.28,5.41,5,7.52l94.85-92.86c-56.69-37.16-94.64-73.14-106.02-67.86-1.79.83-3.59,3.06-5.29,6.63,4.24,1.85,10.05,6.42,17.97,15.82,24.93,29.61,25.75,61.02,15.62,90.46-2.93,8.52-13.15,25.84-22.12,40.28Z"/>
      </g>
      <path class="cls-9" d="M579.63,726.29c67.41-7.57,152.07-37.83,185.72-96.83,29.27-51.32,22.73-101.15-.81-145.83-6-36.05-21.87-98.4-54.11-144.5l-15.75-21.56-17.65-16.72c-37.38-33.77-90.94-57.42-168.25-57.42s-130.87,23.64-168.25,57.42l-17.65,16.72-15.75,21.56c-32.24,46.1-48.11,108.45-54.11,144.5-23.54,44.68-30.07,94.5-.81,145.83,33.64,58.99,118.3,89.26,185.72,96.83,0,0,36.45,4.4,70.86,4.4s70.86-4.4,70.86-4.4Z"/>
      <path class="cls-19" d="M765.35,629.46c-33.65,59-118.31,89.27-185.73,96.84,0,0-36.44,4.39-70.84,4.39s-70.86-4.39-70.86-4.39c-67.42-7.57-152.07-37.84-185.71-96.84-22.75-39.91-23.87-78.92-12.16-115.3,27.33-22.75,73.08-33.5,112.63-11.04,18.97,10.81,46.63,19.05,65.07,14.17,27.23-7.22,43.53-44.11,91.05-44.11s63.84,36.89,91.06,44.11c18.44,4.89,46.08-3.36,65.07-14.17,39.52-22.46,85.26-11.71,112.57,11.01.03.1.07.2.1.3,11.62,36.31,10.46,75.22-12.24,115.03Z"/>
      <g class="cls-21">
        <path class="cls-1" d="M754.35,645.63c-38.7,48.42-113.77,73.84-174.73,80.67,0,0-36.44,4.39-70.84,4.39s-70.86-4.39-70.86-4.39c-60.96-6.84-136.01-32.24-174.69-80.66,47.67,28.63,106.86,44.96,158.02,50.7,0,0,45.01,5.42,87.53,5.42s87.51-5.42,87.51-5.42c51.18-5.74,110.38-22.08,158.07-50.72Z"/>
      </g>
      <ellipse class="cls-15" cx="707.28" cy="542.71" rx="64.65" ry="46.28"/>
      <ellipse class="cls-15" cx="310.22" cy="542.71" rx="64.65" ry="46.28"/>
      <g>
        <path class="cls-18" d="M542.59,492.72c-6.4,17.91-33.8,28-33.8,28,0,0-27.41-10.09-33.8-28-4.56-12.81,27.68-14.9,33.8-14.9s38.37,2.09,33.8,14.9Z"/>
        <path class="cls-18" d="M494.88,513.8l13.9-2.63v26.02c-3.05-14.61-9.61-19.92-13.9-23.39Z"/>
        <path class="cls-18" d="M522.7,513.8c-4.29,3.47-10.86,8.79-13.91,23.39v-26.02l13.91,2.63Z"/>
        <path class="cls-18" d="M508.79,537.17v.14s-.01-.04-.01-.07.01-.04.01-.07Z"/>
        <g class="cls-24">
          <path class="cls-18" d="M522.8,484.36c-2.65,4.52-14.01,4.44-14.01,4.44,0,0-11.36.08-14.01-4.44-1.89-3.24,11.48-3.76,14.01-3.76s15.91.53,14.01,3.76Z"/>
        </g>
      </g>
      <path class="cls-19" d="M376.11,332.24c2.68-13.45,26.98-59.13,53.47-41.46,9.34,6.23,8.63,25.22-3.66,29.17-17.91,5.76-21.95,3.62-49.81,12.29Z"/>
      <path class="cls-19" d="M641.47,331.62c-2.73-13.44-27.23-59.02-53.65-41.23-9.31,6.27-8.52,25.26,3.79,29.15,17.94,5.68,21.96,3.53,49.86,12.08Z"/>
      <path class="cls-16" d="M621.7,595.81c-7.43,39.12-51.83,60.37-112.91,60.37s-105.48-21.25-112.9-60.37c-6.46-34.01,8.32-56.89,23.5-63.23,3.02-1.27,5.96-2.16,8.84-2.74,25.38-5.14,45.85,14.03,80.56,14.03s55.19-19.17,80.56-14.03c2.87.58,5.81,1.47,8.84,2.74,15.18,6.34,29.96,29.22,23.51,63.23Z"/>
      <path class="cls-11" d="M621.7,595.81c-3.91,20.58-18.05,36.22-39.48,46.41-19.28,9.2-44.49,13.97-73.44,13.97s-53.7-4.7-72.92-13.72c-21.71-10.18-36.04-25.91-39.98-46.65-6.46-34,8.32-56.88,23.5-63.22,3.02-1.26,5.96-2.16,8.84-2.74,25.37-5.14,45.85,14.02,80.56,14.02s55.19-19.17,80.57-14.02c2.86.57,5.82,1.48,8.84,2.74,15.17,6.35,29.95,29.22,23.5,63.22Z"/>
      <path class="cls-15" d="M556.32,602.29c15.14,6.63,4.47,39.3-47.5,39.3s-62.37-32.66-47.15-39.3c.1-.05.21-.09.31-.13,13.7-5.77,37.3,1.4,47.01,16.64,9.72-15.24,33.31-22.42,47.01-16.64.1.04.21.09.31.13Z"/>
      <path class="cls-19" d="M589.37,530.39c0,44.5-55.36,48.56-80.58,48.56s-80.58-4.06-80.58-48.56c0-.18,0-.36.01-.54,25.38-5.14,45.85,14.03,80.56,14.03s55.19-19.17,80.56-14.03c.01.18.01.36.01.54Z"/>
      <path class="cls-18" d="M508.79,661.19c-66.12,0-110.17-24.09-117.83-64.44-6.66-35.09,8.28-61.17,26.49-68.79,18.68-7.81,34.23-2.69,50.69,2.74,12.2,4.02,24.81,8.17,40.65,8.17s28.45-4.16,40.65-8.17c16.46-5.43,32.01-10.55,50.69-2.74,18.21,7.62,33.15,33.7,26.49,68.79-7.66,40.35-51.71,64.44-117.82,64.44ZM437.08,533.97c-5.09,0-10.25.93-15.75,3.23-11.72,4.9-26.85,24.31-20.52,57.68,6.69,35.25,47.06,56.29,107.99,56.29s101.29-21.04,107.98-56.29c6.33-33.37-8.8-52.78-20.51-57.68-15.22-6.37-27.78-2.23-43.69,3.01-12.34,4.07-26.34,8.68-43.78,8.68s-31.44-4.61-43.78-8.68c-10.15-3.35-18.94-6.24-27.94-6.24Z"/>
      <ellipse class="cls-8" cx="399.63" cy="459.28" rx="52.51" ry="60.64"/>
      <ellipse class="cls-19" cx="409.88" cy="445.58" rx="22" ry="25.4"/>
      <g class="cls-23">
        <ellipse class="cls-19" cx="380.54" cy="483.05" rx="10.45" ry="12.07"/>
      </g>
      <ellipse class="cls-8" cx="617.96" cy="459.28" rx="52.51" ry="60.64"/>
      <ellipse class="cls-19" cx="607.7" cy="445.58" rx="22" ry="25.4"/>
      <g class="cls-23">
        <ellipse class="cls-19" cx="637.05" cy="483.05" rx="10.45" ry="12.07"/>
      </g>
      <path class="cls-14" d="M680.95,790.76s-4.55-18.4-3.7-38.45l70.4.42s7.54,24.3-20.82,38.04c-28.36,13.74-45.88,0-45.88,0Z"/>
      <g class="cls-22">
        <path class="cls-18" d="M680.95,790.76c-3.38-9.21-5.88-18.89-7.47-28.64-.56-3.3-.92-6.64-1.23-10.02.07-2.68,2.28-4.81,4.95-4.8.07-.04,70.41.45,70.49.42,0,0-.06,10.02-.06,10.02l-70.4-.42,5.03-4.8c-2.15,12.6-2.48,25.46-1.31,38.24h0Z"/>
      </g>
      <path class="cls-19" d="M708.3,677.92c-29.78,5.64-36.24-16.43-32.92-27.46,4.51-15,19.29-12.91,32.44-20.51,8.29-4.79,19.22-12,31.07-6.58,13.98,6.39,13.37,24,23.44,30.7,10.96,7.29-45.87,22.65-45.87,22.65l-8.16,1.21Z"/>
      <g class="cls-25">
        <path class="cls-19" d="M760.22,660.38c-9.24-6.23-8.7-22.43-21.6-28.32-10.94-5.01-21.04,1.66-28.7,6.08-12.17,7.02-25.82,5.11-30,18.96-1.32,4.4-.96,10.72,2.11,16.05-7.23-6.27-8.58-16.32-6.66-22.69,4.51-14.99,19.29-12.91,32.44-20.52,8.29-4.78,19.22-11.99,31.07-6.58,13.99,6.39,13.37,24,23.45,30.7,2.63,1.74,1.35,3.96-2.11,6.32Z"/>
      </g>
      <path class="cls-19" d="M751.78,751.77c-18.84,10.27-60.54,21.32-79.29,6.68-8.44-5.38-24.54-32.51-19.05-53.03,2.11-7.87,9.48-16.8,22.74-20.29,8.44-21.41,27.01-25.94,39.25-27.04,4.17-7.35,10.29-13.58,23.97-13.58,21.21,0,40.81,20.14,48.34,37.11,12.43,28.02-5.38,53.47-35.97,70.14Z"/>
      <g class="cls-25">
        <path class="cls-19" d="M787.66,681.47c-9.36-14.55-25.97-28.65-43.72-28.65-13.68,0-19.8,6.23-23.97,13.57-12.24,1.11-30.81,5.63-39.25,27.04-13.26,3.5-20.64,12.43-22.75,20.29-2.9,10.87.24,23.6,5.12,33.96-7.08-11.14-13.4-28.23-9.64-42.25,2.11-7.87,9.48-16.8,22.75-20.29,8.43-21.42,27-25.95,39.25-27.04,4.17-7.36,10.29-13.59,23.97-13.59,21.14,0,40.68,20.02,48.25,36.95Z"/>
      </g>
      <g class="cls-21">
        <path class="cls-1" d="M698.37,754.71c-8.58,0-15.23-1.65-19.24-4.77l-.4-.32-.43-.28c-1.99-1.28-5.81-6.36-9.13-12.97-4.24-8.45,26.4,12.38,68.45-9.77,43.27-22.79,28.01-60.38,36.01-48.26,1.67,2.53,3.1,5.12,4.23,7.67,12.65,28.52-17.65,48.85-31.26,56.27-11.33,6.18-31.54,12.43-48.23,12.43Z"/>
      </g>
      <path class="cls-14" d="M335.9,790.76s4.55-18.4,3.7-38.45l-70.4,1.77s-15.09,27.63,0,38.49c31.25,22.51,66.71-1.81,66.71-1.81Z"/>
      <path class="cls-19" d="M308.56,677.92c29.78,5.64,36.24-16.43,32.92-27.46-4.51-15-19.29-12.91-32.44-20.51-8.29-4.79-19.22-12-31.07-6.58-13.98,6.39-13.37,24-23.44,30.7-10.96,7.29,45.87,22.65,45.87,22.65l8.16,1.21Z"/>
      <g class="cls-25">
        <path class="cls-19" d="M256.63,660.38c9.24-6.23,8.7-22.43,21.6-28.32,10.94-5.01,21.04,1.66,28.7,6.08,12.17,7.02,25.82,5.11,30,18.96,1.32,4.4.96,10.72-2.11,16.05,7.23-6.27,8.58-16.32,6.66-22.69-4.51-14.99-19.29-12.91-32.44-20.52-8.29-4.78-19.22-11.99-31.07-6.58-13.99,6.39-13.37,24-23.45,30.7-2.63,1.74-1.35,3.96,2.11,6.32Z"/>
      </g>
      <path class="cls-19" d="M265.08,751.77c18.84,10.27,60.54,21.32,79.29,6.68,8.44-5.38,24.54-32.51,19.05-53.03-2.11-7.87-9.48-16.8-22.74-20.29-8.44-21.41-27.01-25.94-39.25-27.04-4.17-7.35-10.29-13.58-23.97-13.58-21.21,0-40.81,20.14-48.34,37.11-12.43,28.02,5.38,53.47,35.97,70.14Z"/>
      <g class="cls-25">
        <path class="cls-19" d="M229.2,681.47c9.36-14.55,25.97-28.65,43.72-28.65,13.68,0,19.8,6.23,23.97,13.57,12.24,1.11,30.81,5.63,39.25,27.04,13.26,3.5,20.64,12.43,22.75,20.29,2.9,10.87-.24,23.6-5.12,33.96,7.08-11.14,13.4-28.23,9.64-42.25-2.11-7.87-9.48-16.8-22.75-20.29-8.43-21.42-27-25.95-39.25-27.04-4.17-7.36-10.29-13.59-23.97-13.59-21.14,0-40.68,20.02-48.25,36.95Z"/>
      </g>
      <g class="cls-21">
        <path class="cls-1" d="M318.48,754.71c8.58,0,15.23-1.65,19.24-4.77l.4-.32.43-.28c1.99-1.28,5.81-6.36,9.13-12.97,4.24-8.45-26.4,12.38-68.45-9.77-43.27-22.79-28.01-60.38-36.01-48.26-1.67,2.53-3.1,5.12-4.23,7.67-12.65,28.52,17.65,48.85,31.26,56.27,11.33,6.18,31.54,12.43,48.23,12.43Z"/>
      </g>
    </g>
  </g>
</svg>