<?xml version="1.0" encoding="UTF-8"?>
<svg id="Layer_1" data-name="Layer 1" xmlns="http://www.w3.org/2000/svg" xmlns:xlink="http://www.w3.org/1999/xlink" viewBox="0 0 1000 1000">
  <defs>
    <style>
      .cls-1 {
        fill: #493800;
      }

      .cls-1, .cls-2, .cls-3, .cls-4, .cls-5, .cls-6, .cls-7, .cls-8, .cls-9, .cls-10, .cls-11, .cls-12, .cls-13 {
        stroke-width: 0px;
      }

      .cls-2 {
        fill: #390075;
      }

      .cls-14 {
        clip-path: url(#clippath);
      }

      .cls-3 {
        fill: none;
      }

      .cls-4 {
        fill: url(#linear-gradient);
      }

      .cls-5 {
        fill: #181558;
      }

      .cls-6 {
        fill: #686779;
      }

      .cls-7 {
        fill: #008456;
      }

      .cls-8 {
        fill: #ffa1a8;
      }

      .cls-9 {
        fill: #f9d9c2;
      }

      .cls-15 {
        opacity: .2;
      }

      .cls-10 {
        fill: #825a00;
      }

      .cls-11 {
        fill: #ffef02;
      }

      .cls-16 {
        opacity: .5;
      }

      .cls-12 {
        fill: #fff;
      }

      .cls-13 {
        fill: #eaad00;
      }
    </style>
    <linearGradient id="linear-gradient" x1="-21.59" y1="987.88" x2="590.5" y2="413.89" gradientUnits="userSpaceOnUse">
      <stop offset="0" stop-color="#008456"/>
      <stop offset=".81" stop-color="#ffef02"/>
      <stop offset="1" stop-color="#ffef02"/>
    </linearGradient>
    <clipPath id="clippath">
      <circle class="cls-3" cx="496.54" cy="500" r="420.7"/>
    </clipPath>
  </defs>
  <circle class="cls-4" cx="497.68" cy="500.93" r="419.56"/>
  <path class="cls-7" d="M500,27.75c63.77,0,125.61,12.48,183.81,37.1,56.23,23.78,106.74,57.84,150.12,101.22,43.38,43.38,77.43,93.89,101.22,150.12,24.62,58.2,37.1,120.05,37.1,183.81s-12.48,125.61-37.1,183.81c-23.78,56.23-57.84,106.74-101.22,150.12-43.38,43.38-93.89,77.44-150.12,101.22-58.2,24.62-120.05,37.1-183.81,37.1s-125.61-12.48-183.81-37.1c-56.23-23.78-106.74-57.84-150.12-101.22-43.38-43.38-77.43-93.89-101.22-150.12-24.62-58.2-37.1-120.05-37.1-183.81s12.48-125.61,37.1-183.81c23.78-56.23,57.84-106.74,101.22-150.12,43.38-43.38,93.89-77.44,150.12-101.22,58.2-24.62,120.05-37.1,183.81-37.1M500,0C223.86,0,0,223.86,0,500s223.86,500,500,500,500-223.86,500-500S776.14,0,500,0h0Z"/>
  <g class="cls-14">
    <g>
      <path class="cls-7" d="M727.96,384.99c-8.7-8.99-14.64-20.8-16.23-34.18-3.85-32.49,19.38-61.95,51.88-65.79,32.5-3.85,61.97,19.37,65.82,51.86,3.85,32.49-19.38,61.95-51.88,65.79-9.04,1.07-17.84.04-25.93-2.69l-25.42,11.99,1.76-26.97Z"/>
      <g class="cls-15">
        <path class="cls-2" d="M727.52,384.5c18.84,9.85,41.97,10.83,62.43.59,22.69-11.36,36.3-33.61,37.7-57.24.81,2.91,1.41,5.92,1.78,9.01,3.85,32.49-19.38,61.95-51.88,65.79-9.04,1.07-17.84.04-25.93-2.69l-25.42,11.99,1.76-26.97c-.15-.16-.3-.32-.45-.48Z"/>
      </g>
      <path class="cls-11" d="M751.84,327.2h0c5.13-5.13,13.44-4.21,18.57.92l.8.8.8-.8c5.13-5.13,13.44-6.05,18.57-.92h0c5.13,5.13,5.13,13.44,0,18.57l-.8.8-16.12,16.12c-1.35,1.35-3.54,1.35-4.9,0l-16.12-16.12-.8-.8c-5.13-5.13-5.13-13.44,0-18.57Z"/>
      <g>
        <path class="cls-6" d="M508.3,775.24c-6.82,62.04-96.53,86.83-160.62,68.16-27.13-7.89-70.3-55.88-31.84-122.65,3.26-5.66,7.1-11.46,11.6-17.37,9.03-11.89,20.67-24.27,35.41-37.04l1.88,3.44,23.8,43.4c-.01.05-.03.09-.04.14-7.23,24.84,8.15,29.33,30.1,28.88,37.81-.72,95.1-16.03,89.71,33.04Z"/>
        <path class="cls-10" d="M508.3,775.24c-6.81,62.04-96.53,86.83-160.62,68.16-11.24-3.28-25.26-13.45-35.06-29-13.83-21.93-19.28-54.58,3.23-93.65,4.7-8.16,10.62-16.61,17.94-25.28,7.95-9.44,17.57-19.17,29.07-29.14l2.45,4.48,20.29,37.03s.01,0,.01,0l2.91,5.33c-19.93,67.89,128.3-15.56,119.77,62.07Z"/>
        <path class="cls-10" d="M797.81,618.4c-.6,2.22-1.26,4.52-2.01,6.9-3.97,12.74-9.74,24.32-16.81,34.81-32.49,48.17-92.7,73.33-134.37,81.26h-.01c-5.75,1.09-11.14,1.85-16.06,2.3-11.67,1.07-20.66.4-25.4-1.85-33.23-15.75-54.84-29.57-59.24-48.79-.14-.63-.27-1.25-.38-1.89-1.75-10.44,1.44-22.48,10.4-37.23,6.49-10.65,24.4-10.73,48.6-15.16.12-.03.23-.04.35-.06,17.03-3.14,37.16-8.46,58.58-21.13.47-.28.96-.56,1.42-.86.22-.13.42-.26.63-.38,33.14-20.55,43.92-50.9,46.33-63.14,2.72-13.85-3.55-50.79,14.16-54.53,20.19-4.28,23.28,35.1,26.96,34.94,5.26-.26,5.99-36,23.83-34.99,27.42,1.55,10.85,50.48,13.85,54.52,11.41,15.33,18.27,31.64,9.17,65.3Z"/>
        <g class="cls-15">
          <path class="cls-2" d="M797.81,618.4c-.6,2.22-1.26,4.52-2.01,6.9-.33,1.07-.69,2.15-1.05,3.21-.04.1-.06.2-.1.29-.22.64-.43,1.28-.68,1.9-.47,1.33-.97,2.63-1.48,3.92-.31.77-.61,1.52-.93,2.27-.31.75-.63,1.49-.96,2.24-.6,1.35-1.21,2.68-1.85,4-.09.2-.19.41-.29.6-.2.43-.42.87-.64,1.3-.32.65-.65,1.3-1.01,1.95-.64,1.25-1.32,2.49-2.01,3.7-.41.75-.84,1.49-1.28,2.22-1.44,2.45-2.95,4.85-4.54,7.19h-.01c-32.48,48.17-92.69,73.33-134.35,81.26-5.75,1.09-11.15,1.85-16.07,2.3l3.83-34.32s66.76,3.23,103.18-32.94c52.25-51.9-3.41-54.32-10.18-86.48-6.44-30.59,2.01-34.12,2.01-34.12,0,0,28.71,31.12,61.25-2.71,11.41,15.33,18.27,31.64,9.17,65.3Z"/>
        </g>
        <path class="cls-10" d="M338.23,804.56s-17.64-29.01-40.05-32.08c-24.72-3.39-50.62,16.78-45.22,51.51,6.33,40.67,61.93,35.42,61.93,35.42l23.34-54.85Z"/>
        <path class="cls-10" d="M338.24,804.56l-2.93,6.89c-5.9-8.2-20.15-25.42-37.13-27.76-21.01-2.87-42.87,11.25-45.64,36.89-3.26-32.64,21.73-51.37,45.64-48.1,22.41,3.08,40.06,32.09,40.06,32.09Z"/>
        <g class="cls-15">
          <path class="cls-2" d="M252.8,822.8s0,0,0,0c5.41,41.97,62.09,36.61,62.09,36.61l23.34-54.85s-7.83-12.88-19.69-22.39l-12.35,30.79c-8.53,21.25-36.23,27.31-52.29,10.99-.37-.38-.74-.76-1.1-1.16Z"/>
        </g>
        <path class="cls-10" d="M695.33,920.6l-200.46,64.06-208.27-64.06c5.35-30.85,13.15-62.4,22.03-92.86,1.3-4.47,2.63-8.92,3.99-13.34,3.36-11,6.84-21.8,10.36-32.35,9.95-29.69,20.34-57.28,29.77-80.77.19-.49.4-.97.59-1.46.64-1.62,1.28-3.21,1.92-4.79,3.54-8.72,6.93-16.84,10.06-24.22.97-2.27,1.92-4.48,2.84-6.62,10.67-24.78,17.86-39.69,17.86-39.69h209.92s2.45,5.07,6.61,14.22c2.47,5.43,5.53,12.3,9.05,20.39.72,1.63,1.44,3.33,2.2,5.07,3.99,9.25,8.45,19.86,13.2,31.6.61,1.55,1.27,3.13,1.89,4.71,5.03,12.56,10.36,26.27,15.74,40.86,4.78,12.94,9.62,26.57,14.34,40.68,4.96,14.79,9.8,30.09,14.35,45.69,8.89,30.46,16.67,62.01,22.04,92.86Z"/>
        <path class="cls-10" d="M610.35,873.61c18.58-52.62,98.39-66.54,119.29,18.96,16.01,65.52-34.83,80.6-34.83,80.6h-417.04s-50.84-15.08-34.83-80.6c20.9-85.5,100.71-71.57,119.29-18.96,0,0,59.9,20.67,124.06,20.67s124.06-20.67,124.06-20.67Z"/>
        <path class="cls-10" d="M787.42,549.56s-28.21,9.63-24.48,26.79c3.96,18.22,23.58,33.8,35.51,21.85,11.92-11.95,7.04-39.37-11.03-48.64Z"/>
        <path class="cls-1" d="M801.66,593.94c1.31-8.67-1.03-18.72-6.63-26.41-4.85-6.66-14.11-8.34-21.2-4.12-4.09,2.44-8.45,5.72-11.23,9.79.05-15.19,24.83-23.63,24.83-23.63,16.16,8.29,21.77,31.1,14.23,44.37Z"/>
        <path class="cls-10" d="M698.16,589.03c-4.42-12.7,1.21-45.02,27.66-42.6,21.67,1.98,30.41,19.53,24.13,26.52-5.01,5.58-20.36,1.79-20.6,2.26-.23.47,6.36,14.18-3.94,23.88"/>
        <path class="cls-10" d="M388.53,713.18c-17.18,58.49,90.5,4.63,115.17,38.26,3.96,5.4.93,17.95.93,17.95,0,0,3.84,6.65,1.52,16.8-1.92,8.36-8.3,12.18-8.3,12.18,0,0-2.28,9.08-4.08,11.31-29.26,36.17-95.62,48.42-146.08,33.72-27.12-7.9-70.3-55.89-31.83-122.65,0,0,7.55-12.28,20.03-12.28"/>
        <g class="cls-15">
          <path class="cls-5" d="M506.15,786.19c-1.92,8.35-8.31,12.19-8.31,12.19,0,0-2.27,9.08-4.08,11.32-29.26,36.16-95.61,48.41-146.08,33.71-21.12-6.14-51.97-36.6-46.45-81.29,4.28,33.29,28.66,55.82,46.45,60.6,108.55,29.14,154.45-47.61,157.05-53.14.6,1.15,3.51,7.46,1.42,16.62Z"/>
        </g>
        <path class="cls-10" d="M319.12,379.95s-24.09-83.81-84.63-79.01c-48.8,3.87-82.57,44.65-67.72,90.97,19.11,59.6,80.3,64.07,80.3,64.07l72.04-76.03Z"/>
        <path class="cls-8" d="M285.3,382.9s-13.41-46.65-47.11-43.98c-27.16,2.15-45.96,24.85-37.69,50.64,10.64,33.17,44.7,35.66,44.7,35.66"/>
        <path class="cls-13" d="M285.3,382.9l-33.55,35.4-6.55,6.92s-34.06-2.5-44.7-35.67c-8.27-25.78,10.53-48.48,37.7-50.64,9.57-.76,17.51,2.46,23.96,7.47,16.28,12.59,23.15,36.52,23.15,36.52Z"/>
        <g class="cls-15">
          <path class="cls-2" d="M285.3,382.9l-33.55,35.4c-6.42-5.26-12.33-12.79-15.78-23.56-7.04-21.94,5.54-41.65,26.18-48.37,16.28,12.59,23.15,36.52,23.15,36.52Z"/>
        </g>
        <path class="cls-10" d="M536.38,335.6s-10.71-86.54,46.87-105.85c46.41-15.57,93.47,8.71,97.97,57.15,5.79,62.32-48.74,90.42-48.74,90.42l-96.09-41.71Z"/>
        <path class="cls-8" d="M568.64,325.05s-5.96-48.17,26.09-58.92c25.83-8.66,52.03,4.85,54.53,31.81,3.22,34.69-27.13,50.33-27.13,50.33"/>
        <path class="cls-13" d="M568.64,325.06l44.75,19.42,8.74,3.79s30.36-15.65,27.13-50.33c-2.51-26.96-28.7-40.47-54.54-31.81-9.1,3.06-15.14,9.13-19.11,16.26-10.04,17.97-6.97,42.67-6.97,42.67Z"/>
        <g class="cls-15">
          <path class="cls-2" d="M568.64,325.06l44.75,19.42c3.84-7.36,6.33-16.6,5.28-27.86-2.13-22.94-21.43-36.14-43.05-34.23-10.04,17.97-6.97,42.67-6.97,42.67Z"/>
        </g>
        <g class="cls-15">
          <path class="cls-2" d="M662.88,616.69c-13.39,14.41-30.24,29.07-51.3,42.43-19.04,12.11-41.54,23.16-68.05,32.01-13.72,4.6-28.52,8.6-44.48,11.85-43.47,8.88-81.2,9.31-113.44,4.87,0,0-.01.01-.01,0-11.67-1.61-22.62-3.86-32.85-6.57-6.62-1.76-12.93-3.72-18.96-5.81,7.95-9.44,17.57-19.17,29.07-29.14l2.45,4.48c.97-2.27,1.92-4.48,2.84-6.62,10.67-24.78,17.86-39.69,17.86-39.69h209.92s2.45,5.07,6.61,14.22c.12-.03.23-.04.35-.06,17.03-3.14,37.16-8.46,58.58-21.13.47-.28.96-.56,1.42-.86Z"/>
        </g>
        <path class="cls-10" d="M496.93,690.82c118.42-24.15,173.13-89.31,196.65-130.84,11.72-20.71,14.89-45.11,9.12-68.19-17.32-69.32-44.19-106.87-90.64-153.35-111.54-111.62-300.42-73.06-359.26,73.34-24.5,60.97-34.5,106.04-23.24,176.6,3.75,23.5,16.23,44.71,35.14,59.16,37.93,28.99,113.81,67.49,232.22,43.29Z"/>
        <g class="cls-15">
          <path class="cls-2" d="M693.58,559.97c-23.52,41.54-78.23,106.71-196.65,130.86-118.4,24.2-194.29-14.31-232.22-43.3-18.9-14.45-31.38-35.66-35.13-59.16-.13-.83-.26-1.67-.39-2.5,5.34,19.42,16.79,36.67,32.94,49.02,37.94,28.99,113.82,67.49,232.22,43.29,118.42-24.15,173.13-89.3,196.65-130.84,10.01-17.69,13.78-38.05,11.09-58.01.21.82.41,1.64.62,2.46,5.77,23.08,2.61,47.5-9.13,68.2Z"/>
        </g>
        <path class="cls-13" d="M533.27,560.29c5.4,26.43-17.35,53.4-50.82,60.23-33.47,6.83-64.98-9.06-70.38-35.49-5.4-26.43,19.17-44.5,52.64-51.34,33.47-6.83,63.16.16,68.56,26.6Z"/>
        <g>
          <ellipse class="cls-13" cx="358.13" cy="607.74" rx="33.03" ry="14.58" transform="translate(-114.31 83.9) rotate(-11.54)"/>
          <ellipse class="cls-13" cx="591.79" cy="560.04" rx="33.03" ry="14.58" transform="translate(-100.05 129.67) rotate(-11.54)"/>
        </g>
        <path class="cls-10" d="M356.43,305.94s24.55-55.61,64.63-71.14c33.04-12.8,8.81,30.42,8.81,30.42,0,0,26.94-31.46,43.83-23.65,16.72,7.72-11.48,29.59-.09,38.72"/>
        <path class="cls-1" d="M340.99,561.68c.1-1.93.32-3.49.63-5.2.3-1.67.74-3.31,1.19-4.95.99-3.26,2.28-6.47,3.98-9.56,3.37-6.13,8.46-11.92,15.24-15.61,6.76-3.67,14.81-4.84,21.88-3.68,7.13,1.06,13.56,3.76,19.02,7.51,1.98,1.36,2.49,4.06,1.13,6.04-1.04,1.51-2.86,2.16-4.54,1.78l-.09-.02c-5.83-1.32-11.4-2.36-16.63-2.4-1.32-.08-2.57.1-3.83.13-1.22.2-2.46.28-3.62.6-2.35.51-4.58,1.29-6.66,2.4-4.16,2.23-7.87,5.73-11.07,10.06-1.6,2.16-3.12,4.49-4.46,6.97-.7,1.23-1.33,2.5-1.98,3.78-.62,1.25-1.25,2.67-1.78,3.77l-.23.48c-1.03,2.14-3.6,3.04-5.74,2.02-1.61-.77-2.52-2.43-2.43-4.11Z"/>
        <path class="cls-1" d="M584.2,515.37c-.92-.81-2.06-1.87-3.12-2.77-1.1-.92-2.18-1.85-3.3-2.7-2.21-1.75-4.52-3.3-6.84-4.66-4.64-2.74-9.42-4.5-14.13-4.92-2.36-.21-4.71-.05-7.07.4-1.19.16-2.36.57-3.57.87-1.17.47-2.39.8-3.57,1.39-4.79,2.08-9.51,5.23-14.35,8.73l-.06.05c-1.95,1.41-4.67.97-6.07-.97-1.07-1.48-1.07-3.43-.15-4.88,3.56-5.59,8.41-10.59,14.55-14.36,6.05-3.84,13.91-5.92,21.57-5.19,7.68.74,14.64,4.06,20.14,8.39,2.77,2.17,5.22,4.63,7.41,7.23,1.06,1.33,2.11,2.67,3.04,4.09.95,1.45,1.77,2.8,2.62,4.53,1.05,2.13.17,4.71-1.96,5.76-1.61.79-3.47.49-4.73-.62l-.4-.35Z"/>
        <path class="cls-1" d="M492.84,550.74c2.67,13.06-19.79,23.76-19.79,23.76,0,0-24.86-1.04-27.53-14.1-1.37-6.7,22.3-11.53,22.3-11.53,0,0,23.66-4.83,25.03,1.87Z"/>
        <g class="cls-16">
          <path class="cls-12" d="M479.21,552.15c.69,3.38-4.86,6.1-9.18,6.98-4.32.88-10.49.56-11.19-2.82-.35-1.74,9.83-3.82,9.83-3.82,0,0,10.18-2.08,10.54-.34Z"/>
        </g>
        <g class="cls-15">
          <path class="cls-2" d="M474.91,577.13c14.72,18.96,33.85,3.86,33.63-6.86l-2.34-1.09c-6.63,10.11-18.91,8.45-28.63,2.74l-2.66,5.22Z"/>
        </g>
        <polygon class="cls-9" points="473.05 574.5 473.05 574.51 473.04 574.5 473.05 574.5"/>
        <path class="cls-1" d="M511.09,570.2c.12,2.58-.51,5.02-1.52,7.15-1.01,2.15-2.36,4.07-3.96,5.77-3.21,3.35-7.48,5.89-12.4,6.72-2.44.41-5.02.36-7.48-.17-2.47-.52-4.8-1.5-6.89-2.75-2.11-1.24-3.97-2.76-5.62-4.4-1.7-1.63-3.1-3.42-4.46-5.23-1.63-2.16-1.19-5.23.96-6.85.67-.5,1.42-.81,2.2-.93h.1s0-.01,0-.01l.61-.09c2.66-.4,5.14,1.43,5.53,4.09.1.64.06,1.3-.09,1.89-.54,2.2-1.13,4.4-2.05,6.56-.87,2.16-1.98,4.29-3.44,6.26-1.44,1.97-3.2,3.79-5.26,5.23-2.06,1.45-4.4,2.51-6.81,3.09-4.85,1.17-9.78.51-14.04-1.32-2.14-.93-4.13-2.17-5.9-3.75-1.77-1.56-3.29-3.56-4.2-5.99-.49-1.32.18-2.79,1.5-3.29,1.23-.46,2.59.09,3.17,1.23l.08.15c1.32,2.62,4.43,4.68,7.63,5.67,3.25,1,6.74,1,9.64-.07,2.92-1.05,5.19-3.16,6.76-5.91,1.61-2.73,2.43-6.14,2.88-9.63l6.06,5.89h0s3.26-7.79,3.26-7.79c1.78,3.04,3.87,5.85,6.42,7.73,2.52,1.92,5.44,2.97,8.54,2.79,3.09-.15,6.3-1.52,8.9-3.71,2.55-2.17,4.61-5.28,4.79-8.21v-.16c.1-1.41,1.31-2.48,2.72-2.39,1.31.08,2.33,1.15,2.39,2.43Z"/>
        <path class="cls-10" d="M388.53,713.18c-17.18,58.49,90.5,4.63,115.17,38.26,3.96,5.4.93,17.95.93,17.95,0,0,3.84,6.65,1.52,16.8-1.92,8.36-8.3,12.18-8.3,12.18,0,0-2.28,9.08-4.08,11.31-29.26,36.17-95.62,48.42-146.08,33.72-27.12-7.9-70.3-55.89-31.83-122.65,0,0,7.55-12.28,20.03-12.28"/>
        <g class="cls-15">
          <path class="cls-2" d="M506.15,786.19c-1.92,8.35-8.31,12.19-8.31,12.19,0,0-2.27,9.08-4.08,11.32-29.26,36.16-95.61,48.41-146.08,33.71-21.12-6.14-51.97-36.6-46.45-81.29,4.28,33.29,28.66,55.82,46.45,60.6,108.55,29.14,154.45-47.61,157.05-53.14.6,1.15,3.51,7.46,1.42,16.62Z"/>
        </g>
      </g>
    </g>
  </g>
</svg>