<?xml version="1.0" encoding="UTF-8"?>
<svg id="Layer_1" data-name="Layer 1" xmlns="http://www.w3.org/2000/svg" xmlns:xlink="http://www.w3.org/1999/xlink" viewBox="0 0 1000 1000">
  <defs>
    <style>
      .cls-1 {
        fill: #f90;
      }

      .cls-1, .cls-2, .cls-3, .cls-4, .cls-5, .cls-6, .cls-7, .cls-8, .cls-9, .cls-10, .cls-11, .cls-12, .cls-13, .cls-14, .cls-15 {
        stroke-width: 0px;
      }

      .cls-2 {
        fill: #000072;
      }

      .cls-16 {
        clip-path: url(#clippath);
      }

      .cls-3 {
        fill: none;
      }

      .cls-17 {
        opacity: .1;
      }

      .cls-4 {
        fill: #0ec65c;
      }

      .cls-5 {
        fill: url(#linear-gradient);
      }

      .cls-6 {
        fill: #008456;
      }

      .cls-18, .cls-15 {
        fill: #fff;
      }

      .cls-7 {
        fill: #1a1a1a;
      }

      .cls-19 {
        clip-path: url(#clippath-1);
      }

      .cls-20 {
        filter: url(#drop-shadow-1);
      }

      .cls-8 {
        fill: #ff761a;
      }

      .cls-9 {
        fill: #371a45;
      }

      .cls-10 {
        fill: #e43841;
      }

      .cls-21 {
        opacity: .3;
      }

      .cls-22 {
        opacity: .6;
      }

      .cls-11 {
        fill: #ffef02;
      }

      .cls-12 {
        fill: #eaad00;
      }

      .cls-13 {
        fill: #b199c5;
      }

      .cls-14 {
        fill: #493800;
      }
    </style>
    <linearGradient id="linear-gradient" x1="-21.59" y1="987.88" x2="590.5" y2="413.89" gradientUnits="userSpaceOnUse">
      <stop offset="0" stop-color="#008456"/>
      <stop offset=".81" stop-color="#ffef02"/>
      <stop offset="1" stop-color="#ffef02"/>
    </linearGradient>
    <clipPath id="clippath">
      <circle class="cls-3" cx="496.54" cy="500" r="420.7"/>
    </clipPath>
    <filter id="drop-shadow-1" filterUnits="userSpaceOnUse">
      <feOffset dx="3.08" dy="3.08"/>
      <feGaussianBlur result="blur" stdDeviation="24.66"/>
      <feFlood flood-color="#6bc64a" flood-opacity=".2"/>
      <feComposite in2="blur" operator="in"/>
      <feComposite in="SourceGraphic"/>
    </filter>
    <clipPath id="clippath-1">
      <path class="cls-15" d="M672.54,634.08c0,83.76-85.14,114.1-190.17,114.1s-190.17-30.35-190.17-114.1c0-107.28,77.05-189.2,190.17-189.2s190.17,83.87,190.17,189.2Z"/>
    </clipPath>
  </defs>
  <circle class="cls-5" cx="497.68" cy="500.93" r="419.56"/>
  <path class="cls-6" d="M500,27.75c63.77,0,125.61,12.48,183.81,37.1,56.23,23.78,106.74,57.84,150.12,101.22,43.38,43.38,77.43,93.89,101.22,150.12,24.62,58.2,37.1,120.05,37.1,183.81s-12.48,125.61-37.1,183.81c-23.78,56.23-57.84,106.74-101.22,150.12-43.38,43.38-93.89,77.43-150.12,101.22-58.2,24.62-120.05,37.1-183.81,37.1s-125.61-12.48-183.81-37.1c-56.23-23.78-106.74-57.84-150.12-101.22-43.38-43.38-77.43-93.89-101.22-150.12-24.62-58.2-37.1-120.05-37.1-183.81s12.48-125.61,37.1-183.81c23.78-56.23,57.84-106.74,101.22-150.12,43.38-43.38,93.89-77.43,150.12-101.22,58.2-24.62,120.05-37.1,183.81-37.1M500,0C223.86,0,0,223.86,0,500s223.86,500,500,500,500-223.86,500-500S776.14,0,500,0h0Z"/>
  <g class="cls-16">
    <g>
      <g class="cls-20">
        <path class="cls-15" d="M672.54,918.86c-5.61,25.6-39.51,48.07-73.03,15.47l2.51-6.94,21.35-58.98c19.42-3.89,37.58,4.03,46.09,18.5h.01c5.1,8.67,6.73,19.71,3.08,31.96Z"/>
        <path class="cls-15" d="M587.41,947.48c-6.39,5.81-14.79,8.92-23.42,8.92h-225.47c-44.67,0-69.93-69.92-36.09-96.6,5.93-4.67,13.77-6.2,20.99-3.95,1.95.61,3.91,1.39,5.84,2.34v-7.75c-1.25-.18-2.56-.46-3.91-.83-8.21-3.33-14.03-8.69-17.74-15.1-10.47-18.06-4.11-44.44,13.37-56.83,1.39-.99,2.84-1.89,4.37-2.68v-23.2c0-6.55,7.59-10.18,12.7-6.07l11.18-3.7c2.61-.86,5.52-.21,7.46,1.76,2.68,2.71,7.14,6.31,12.91,7.5,3.72.78,7.84,1.16,11.88,2.02l21.87-12.13,161.88-2.06,5.91-.08c60.04,52.17,72.08,157.86,16.26,208.44Z"/>
        <path class="cls-8" d="M484.92,818.47s-14.59,21.86,12.94,33.68c0,0-.3,2.22-9.82,8.57-23.35,11.97-27.38,34.89-21.8,63.25l-50.19,14.72c-13.33,4.26-26.4,4.2-39.18-.82l-17.78-15.09c.03-32.22-8.37-56.89-32.05-67.84,29.35-1.48,32.4-36.62,7.75-56.5-2.79-2.27-5.94-4.32-9.44-6.11v-44.13s3.39-9.94,14.57-.95c.63.51,1.31,1.06,2.03,1.65,11.96,9.64,34.9,28.12,34.9,28.12h39.2l107.55-17.6s9.08-.62,10.93,13.24v3.58l-49.61,42.24Z"/>
        <g class="cls-22">
          <path class="cls-15" d="M315.05,842.62l-7.45-8.11c-10.47-18.06-4.11-44.44,13.37-56.83l1.99,14.77c-12.94,11.39-14.79,28.53-7.92,50.17Z"/>
        </g>
        <g class="cls-22">
          <path class="cls-15" d="M342.15,749.3s-7.37,1.5-7.37,8.77v40.37c-2.79-2.27-5.94-4.32-9.44-6.11v-44.13s3.39-9.94,14.57-.95c.63.51,1.31,1.06,2.03,1.65l.2.41Z"/>
        </g>
        <g>
          <path class="cls-1" d="M483.15,862.11s-1.87-9.88-10.83-14.47c-2.86-1.46-6.3-1.3-9.04.37-14.95,9.12-25.43,21.21-31.91,35.98-1.4,3.18,1.3,6.68,4.72,6.11,13.83-2.3,26.59-8.08,38.09-17.94"/>
          <path class="cls-4" d="M493.7,854.78s-8.77,3.04-11.55,4.09c-1.32-3.3-4.15-8.33-9.84-11.23-.41-.21-.84-.38-1.28-.53-10.24-23.58,4.87-33.33,7.41-14.56l4.71,13.28,7.21,6.31,3.34,2.64Z"/>
        </g>
        <path class="cls-12" d="M550.89,869.23c5.89-10.13,7.39-21.48,2.34-34.63l-18.5,12.5v30.27l16.16-8.14Z"/>
        <path class="cls-12" d="M513.51,760.62c-23.04-8.25-95.82-13.72-114.78,4.14-7.19-12.13-19.44-11.46-29.13-13.47-5.77-1.2-10.24-4.79-12.91-7.5-1.94-1.96-4.84-2.62-7.46-1.75l-11.18,3.69,37.07,32.2h40.94l97.47-17.31Z"/>
        <path class="cls-15" d="M457.33,446.26l-51.99,15.75-17.54,5.32c-13.14-19.92-26.51-38.4-40.58-52.24h0c-8.66-8.51-17.58-15.27-26.89-19.53-18.38,39.17-56.29,51.87-87.64,29.28h-.01c-1.94-1.4-3.85-2.93-5.73-4.59-8.61-7.62-15.1-17.29-19.62-27.86-36.62-85.48,29.02-168.28,96.34-155.7,9.87,1.85,19.17,5.98,27.59,11.43,12.33,7.99,23.83,17.29,34.54,27.78l.04.04s.12.11.21.2c6.86,6.76,13.4,13.99,19.62,21.69.03.03.05.07.08.11,31.66,39.18,55.08,90.14,71.59,148.32Z"/>
        <g class="cls-22">
          <path class="cls-15" d="M221.84,396.8c4.51,10.56,11.01,20.24,19.62,27.86,5.21,4.62,10.67,8.2,16.24,10.75-10.52-1.6-21.06-6.56-30.76-15.16-8.61-7.62-15.1-17.29-19.62-27.86-36.62-85.48,29.02-168.28,96.34-155.7,4.96.92,9.78,2.44,14.42,4.41-67.29-12.48-132.85,70.27-96.24,155.7Z"/>
        </g>
        <path class="cls-15" d="M505.67,446.17c20.58-168.06,94.81-273.16,166.87-260.71,56.93,9.39,76.31,91.67,14.63,135.56-58.03,38.03-86.31,90.7-104.47,150.71"/>
        <g class="cls-22">
          <path class="cls-15" d="M698.69,196.47c-5.18-2.53-10.83-4.37-16.91-5.37-71.71-12.38-145.57,91.62-166.56,258.25l-9.54-3.17c20.57-168.07,94.8-273.17,166.87-260.72,9.94,1.64,18.73,5.5,26.15,11.01Z"/>
        </g>
        <g>
          <path class="cls-18" d="M672.54,634.08c0,83.76-85.14,114.1-190.17,114.1s-190.17-30.35-190.17-114.1c0-107.28,77.05-189.2,190.17-189.2s190.17,83.87,190.17,189.2Z"/>
          <g class="cls-19">
            <ellipse class="cls-15" cx="367.63" cy="699.16" rx="71.29" ry="97.01" transform="translate(-390.8 919.96) rotate(-78.5)"/>
            <ellipse class="cls-15" cx="614.5" cy="699.16" rx="97.01" ry="71.29" transform="translate(-127.1 136.6) rotate(-11.5)"/>
            <polygon class="cls-15" points="431.71 687.47 551.97 693.22 561.69 705.76 545.51 759.8 471.21 786.18 401.8 776.22 401.8 709.01 425.78 693.22 431.71 687.47"/>
          </g>
        </g>
        <ellipse class="cls-15" cx="482.48" cy="668.13" rx="69.16" ry="50.83"/>
        <g class="cls-17">
          <path class="cls-12" d="M672.54,634.07c0,83.76-85.15,114.11-190.18,114.11-79.53,0-147.65-17.4-176.04-62.21,34.65,19.39,83.62,27.5,137.89,27.5,105.03,0,190.18-30.35,190.18-114.1,0-46.71-15.72-89.19-42.84-122.01,49.99,33.89,80.99,91.13,80.99,156.7Z"/>
        </g>
        <path class="cls-12" d="M533.08,409.16c-3.66,22.31,24.5,47.54,45.35,13.9,22.75-46.62,49.09-89.99,87.41-122.52,22.41-21.81,18.69-62.31-13.95-67.79-12.39-2.08-25.04,1.77-34.7,9.8-44.86,37.27-71.64,94.16-84.11,166.61Z"/>
        <g class="cls-21">
          <path class="cls-2" d="M671.21,242.83c-.22-.05-.45-.09-.67-.13-12.38-2.09-25.03,1.77-34.69,9.8-44.86,37.28-71.64,94.17-84.11,166.62-1.16,7.12.91,14.53,4.96,20.24-14.3.94-26.07-15.27-23.62-30.19,12.46-72.44,39.25-129.34,84.09-166.6,9.66-8.03,22.32-11.88,34.71-9.81,8.29,1.4,14.72,5.06,19.33,10.09Z"/>
        </g>
        <path class="cls-14" d="M514.42,674.47c0,10.87-3.04,19.37-7.8,25.51-5.95-17.36-44.09-16.06-48.57.25-4.89-6.16-8-14.75-8-25.76,14.42-.75,25.59-6.9,32.18-20.64,0,0,6.58,21.88,32.18,20.64Z"/>
        <path class="cls-12" d="M331.23,320.11c40.83,20.88,67.82,44.73,83.9,86.53,3.22,8.38,3.23,17.75-.43,25.95-4.25,9.51-10.34,11.66-17.54,9.37-4.9-1.56-9.06-4.87-11.98-9.1-15.45-22.39-34.58-39.71-57.39-51.94"/>
        <path class="cls-14" d="M324.91,290.86c4.07,8.18,7.14,16.88,9.13,25.83,2.02,8.95,3.12,18.13,3.2,27.35.08,9.22-.66,18.52-2.64,27.63-.26,1.14-.57,2.26-.86,3.39-.32,1.12-.54,2.27-.95,3.37-.76,2.21-1.46,4.44-2.27,6.63l-2.63,6.51-3.03,6.34c-1.22,2.55-4.27,3.63-6.82,2.41-2.55-1.22-3.63-4.27-2.41-6.82l.15-.32,2.74-5.74c.82-1.96,1.58-3.94,2.36-5.92.71-2,1.3-4.05,1.95-6.08.61-2.04,1.05-4.13,1.65-6.18,2.14-8.26,3.57-16.78,4.02-25.41.45-8.62.13-17.33-1.11-25.93-1.27-8.59-3.3-17.13-6.49-25.27v-.02c-.45-1.13.11-2.4,1.24-2.85,1.06-.42,2.26.06,2.77,1.06Z"/>
        <path class="cls-14" d="M511.8,630.12c0,9.03-13.18,17.9-29.44,17.9s-29.44-8.86-29.44-17.9,13.18-13.28,29.44-13.28,29.44,4.24,29.44,13.28Z"/>
        <ellipse class="cls-15" cx="482.36" cy="625.89" rx="9.15" ry="1.98"/>
        <path class="cls-14" d="M487.48,642.25c.16,4.15-.29,8.41-1.55,12.49-1.25,4.08-3.3,7.94-5.97,11.25-2.65,3.34-5.91,6.14-9.48,8.37-3.58,2.22-7.55,3.81-11.71,4.58-4.15.78-8.46.75-12.66-.11-4.19-.83-8.27-2.66-11.65-5.4-3.37-2.74-5.94-6.37-7.41-10.24-1.46-3.88-1.99-7.9-1.85-11.76.04-1.22,1.06-2.17,2.28-2.13,1.03.04,1.87.77,2.08,1.74l.02.08c.72,3.36,1.78,6.54,3.45,9.21,1.63,2.68,3.77,4.85,6.29,6.35,5.01,3.11,11.45,3.36,17.31,1.94,2.95-.71,5.82-1.78,8.47-3.28,2.65-1.49,4.99-3.47,6.89-5.77,3.8-4.65,5.53-10.64,5.27-16.83v-.07c-.12-2.83,2.07-5.21,4.9-5.33,2.83-.12,5.21,2.07,5.33,4.9v.02Z"/>
        <path class="cls-10" d="M506.63,699.98c-12.32,15.92-36.15,16-48.57.25,4.48-16.31,42.61-17.61,48.57-.25Z"/>
        <path class="cls-14" d="M487.52,642.73c-.26,6.19,1.47,12.18,5.27,16.83,1.9,2.31,4.24,4.29,6.89,5.77,2.65,1.49,5.52,2.57,8.47,3.28,5.85,1.41,12.3,1.16,17.31-1.94,2.52-1.5,4.67-3.66,6.29-6.35,1.67-2.67,2.72-5.85,3.45-9.21l.02-.08c.26-1.19,1.43-1.95,2.62-1.69,1.01.22,1.7,1.09,1.74,2.08.14,3.86-.39,7.88-1.85,11.76-1.47,3.87-4.04,7.5-7.41,10.24-3.38,2.74-7.46,4.58-11.65,5.4-4.19.86-8.51.9-12.66.11-4.15-.77-8.13-2.36-11.71-4.58-3.58-2.23-6.83-5.02-9.48-8.37-2.68-3.31-4.73-7.17-5.98-11.25-1.26-4.08-1.71-8.34-1.55-12.49.11-2.83,2.49-5.03,5.32-4.92,2.83.11,5.03,2.49,4.92,5.32v.02s0,.07,0,.07Z"/>
        <g>
          <path class="cls-14" d="M510.77,582.35c-1.55,0-3.07-.78-3.94-2.2-5.26-8.58-14.39-13.7-24.43-13.7-9.28,0-18.02,4.53-23.38,12.12-1.47,2.08-4.35,2.58-6.44,1.11-2.08-1.47-2.58-4.36-1.11-6.44,7.09-10.04,18.65-16.03,30.93-16.03,13.27,0,25.35,6.77,32.3,18.11,1.33,2.18.65,5.02-1.52,6.35-.75.46-1.59.68-2.41.68Z"/>
          <path class="cls-14" d="M396.54,655.08c-35.85,0-65.01-29.16-65.01-65.01s29.16-65.01,65.01-65.01,65.01,29.16,65.01,65.01-29.16,65.01-65.01,65.01ZM396.54,534.3c-30.75,0-55.77,25.02-55.77,55.77s25.02,55.77,55.77,55.77,55.77-25.02,55.77-55.77-25.02-55.77-55.77-55.77Z"/>
          <path class="cls-14" d="M569.88,655.08c-35.85,0-65.01-29.16-65.01-65.01s29.16-65.01,65.01-65.01,65.01,29.16,65.01,65.01-29.16,65.01-65.01,65.01ZM569.88,534.3c-30.75,0-55.77,25.02-55.77,55.77s25.02,55.77,55.77,55.77,55.77-25.02,55.77-55.77-25.02-55.77-55.77-55.77Z"/>
        </g>
        <g class="cls-21">
          <path class="cls-12" d="M347.22,415.07c-8.66-8.5-17.58-15.26-26.89-19.51-18.38,39.17-56.29,51.87-87.64,29.28,49.54-24.71,80.55-66.66,70.6-146.72-.76-6.09,6.13-10.08,11.06-6.41,47,35.01,51.24,85.18,32.88,143.37Z"/>
        </g>
        <g class="cls-21">
          <path class="cls-12" d="M406.84,458.61c32.65-72.01,1.91-130.58-21.1-160.68,31.66,39.18,55.08,90.14,71.59,148.32l-51.99,15.75c.48-1.12.98-2.24,1.49-3.39Z"/>
        </g>
        <path class="cls-14" d="M378.01,942.99c-2.83,0-5.12-2.29-5.12-5.12v-159.94c0-2.83,2.29-5.12,5.12-5.12s5.12,2.29,5.12,5.12v159.94c0,2.83-2.29,5.12-5.12,5.12Z"/>
        <path class="cls-14" d="M416.04,943.81c-2.83,0-5.12-2.29-5.12-5.12v-160.76c0-2.83,2.29-5.12,5.12-5.12s5.12,2.29,5.12,5.12v160.76c0,2.83-2.29,5.12-5.12,5.12Z"/>
        <ellipse class="cls-12" cx="318.74" cy="905.22" rx="19.99" ry="29.79" transform="translate(-167.26 77.68) rotate(-11.03)"/>
        <ellipse class="cls-12" cx="495.69" cy="909.95" rx="20.48" ry="29.26" transform="translate(-32.33 18.37) rotate(-2.06)"/>
        <g class="cls-21">
          <path class="cls-12" d="M672.54,918.86c-5.61,25.6-39.51,48.07-73.03,15.47l2.51-6.94,14.46-17.43c25.86,12.92,42.44,2.52,52.98-23.06h.01c5.1,8.67,6.73,19.71,3.08,31.96Z"/>
        </g>
        <path class="cls-7" d="M408.93,558.67c-16.04-3.06-32.22,11.14-36.16,31.72-3.93,20.58,5.88,39.75,21.91,42.82,16.03,3.06,32.22-11.14,36.16-31.72,3.93-20.58-5.88-39.75-21.91-42.82Z"/>
        <path class="cls-15" d="M407.08,567.28c-5.3,1.39-8.09,8.26-6.23,15.33,1.86,7.07,7.66,11.67,12.97,10.28,5.3-1.39,8.09-8.26,6.23-15.32-1.86-7.07-7.66-11.67-12.97-10.28Z"/>
        <path class="cls-13" d="M386.13,610.28c-2.57,1.36-3.18,5.23-1.37,8.65,1.81,3.42,5.36,5.1,7.92,3.74,2.57-1.36,3.18-5.23,1.37-8.65-1.81-3.42-5.36-5.1-7.92-3.74Z"/>
        <path class="cls-7" d="M592.25,578.62c-4.2,1.52-8.47,3.25-12.39,5.19-3.95,1.95-7.67,4.16-11.11,6.61-1.76,1.18-3.33,2.56-4.96,3.86l-2.26,2.13c-.37.36-.78.68-1.12,1.06l-1.04,1.15c-2.91,2.94-5.15,6.41-7.37,9.92l-8.33-8.46c.4-.19.64-.29.91-.41.27-.12.53-.23.78-.32.51-.19,1.02-.39,1.52-.55,1.01-.35,2.01-.63,3.01-.92,2-.55,4.04-.91,6.07-1.2,4.07-.56,8.21-.57,12.25-.03,4.04.55,8.01,1.55,11.67,3.2,3.7,1.53,7.03,3.77,10.04,6.2.92.75,1.06,2.09.32,3.01-.54.67-1.41.93-2.2.73l-.25-.07c-1.76-.45-3.39-1.07-5.09-1.47-1.71-.37-3.35-.82-5.05-1.01-3.33-.58-6.68-.72-9.96-.57-3.28.1-6.52.6-9.67,1.37-.79.18-1.56.43-2.34.63l-2.29.74c-.75.28-1.5.54-2.2.85-.37.15-.7.3-1.04.46-.17.08-.34.15-.48.22l-.34.17-.13.06c-3.06,1.54-6.78.3-8.31-2.75-.94-1.88-.82-4.05.11-5.77,2.52-4.57,5.36-9.09,9.13-12.8.9-.96,1.79-1.93,2.83-2.74l3.02-2.53c2.16-1.48,4.26-3.03,6.59-4.19,4.55-2.47,9.39-4.27,14.34-5.31,1.25-.22,2.48-.47,3.73-.64,1.26-.14,2.49-.31,3.75-.36,2.53-.13,4.97-.11,7.6.26,1.18.16,2.01,1.26,1.84,2.44-.11.82-.67,1.47-1.4,1.73l-.2.07Z"/>
      </g>
      <path class="cls-6" d="M709.72,536.53c-1.07,0-2.12-.41-2.92-1.21-1.33-1.33-1.59-3.38-.65-5l10.93-18.71c2.45-4.19,1.93-9.39-1.28-12.95-10.95-12.13-17.05-27.8-17.17-44.13-.28-36.37,29.05-66.52,65.39-67.22.44,0,.88-.01,1.32-.01,18.02,0,34.9,7.07,47.54,19.92,12.64,12.84,19.44,29.84,19.16,47.87-.57,36.19-30.5,65.63-66.7,65.63,0,0-.58,0-.58,0-5.66-.05-11.29-.81-16.73-2.27-.88-.24-1.79-.36-2.7-.36-1.88,0-3.75.51-5.39,1.47l-28.13,16.42c-.65.38-1.37.56-2.08.56Z"/>
      <g class="cls-21">
        <path class="cls-9" d="M826.55,447.22c-.03-.69-.07-1.37-.13-2.05-.03-.35-.06-.7-.09-1.05-.07-.69-.15-1.37-.23-2.06-.04-.3-.07-.59-.11-.89-.13-.91-.28-1.81-.45-2.7-.07-.39-.16-.77-.24-1.16-.11-.53-.22-1.06-.35-1.58-.11-.46-.22-.92-.34-1.38-.11-.43-.23-.85-.35-1.28-.14-.5-.28-1-.43-1.49-.09-.3-.19-.59-.29-.88-.38-1.15-.78-2.28-1.22-3.4-.06-.16-.12-.32-.18-.48-.25-.62-.51-1.23-.78-1.84-.08-.18-.16-.37-.25-.55-.29-.64-.58-1.27-.89-1.89-.02-.05-.05-.1-.07-.14-1.41-2.83-3.02-5.55-4.82-8.12,3.07,7.56,4.71,15.85,4.58,24.55-.46,29.22-21.26,53.65-48.63,59.97-29.02,6.43-45.91,1-56.19-9.14-.05-.06-7.54-13.87-9.02-15.97,0,0,0,0,0,0,.23.58.48,1.14.73,1.71,0,0,0-.01-.01-.02,2.71,6.13,6.37,11.76,10.8,16.67,4.42,4.89,5.11,12.1,1.79,17.79l-10.93,18.71,28.13-16.42c3.4-1.98,7.44-2.55,11.24-1.53,5.01,1.35,10.27,2.09,15.7,2.13.98,0,1.96-.01,2.93-.05.9-.03,1.8-.1,2.7-.17.13-.01.27-.02.41-.03.82-.07,1.63-.17,2.45-.28.2-.03.41-.04.62-.07.76-.11,1.52-.24,2.27-.37.25-.04.5-.08.75-.13.72-.14,1.43-.29,2.14-.46.28-.06.56-.12.83-.18.68-.16,1.36-.35,2.03-.54.3-.08.59-.16.89-.24.65-.19,1.29-.4,1.94-.61.31-.1.62-.2.93-.31.62-.22,1.24-.45,1.85-.68.32-.12.64-.24.96-.37.6-.24,1.18-.49,1.77-.75.33-.14.65-.28.98-.43.57-.26,1.13-.54,1.69-.81.33-.16.66-.33.99-.5.54-.28,1.08-.57,1.61-.87.33-.18.66-.37.99-.56.52-.3,1.03-.61,1.54-.93.33-.21.66-.41.99-.62.49-.32.98-.65,1.47-.98.33-.23.66-.45.99-.69.47-.33.93-.68,1.39-1.02.33-.25.65-.5.98-.75.45-.35.89-.71,1.32-1.07.32-.27.65-.54.96-.82.42-.36.84-.73,1.25-1.11.32-.29.63-.58.94-.88.4-.38.79-.76,1.18-1.15.31-.31.62-.62.92-.94.37-.39.74-.78,1.11-1.18.3-.33.6-.67.89-1,.35-.4.7-.8,1.04-1.21.29-.35.58-.71.86-1.06.33-.41.65-.82.97-1.24.28-.37.55-.75.83-1.13.3-.42.6-.84.9-1.27.27-.39.53-.79.79-1.19.28-.43.56-.85.82-1.29.25-.41.5-.83.74-1.25.25-.43.51-.87.75-1.31.24-.43.47-.87.7-1.31.23-.44.46-.88.68-1.32.22-.45.43-.91.64-1.37.21-.44.42-.89.61-1.34.2-.47.39-.95.59-1.42.18-.45.37-.89.54-1.35.19-.49.35-.99.53-1.48.16-.45.32-.9.47-1.36.17-.51.31-1.03.47-1.54.13-.45.27-.9.4-1.36.14-.53.27-1.07.4-1.61.11-.45.23-.89.32-1.34.12-.56.22-1.13.33-1.7.08-.44.18-.87.25-1.31.1-.6.18-1.2.26-1.81.06-.42.13-.83.17-1.25.08-.68.13-1.36.19-2.05.03-.35.07-.7.09-1.05.07-1.04.11-2.09.13-3.14.02-1,0-2-.03-2.99,0-.31-.03-.63-.04-.94Z"/>
      </g>
      <path class="cls-11" d="M740.19,433.56h0c6.66-6.66,17.45-5.47,24.11,1.19l1.04,1.04,1.04-1.04c6.66-6.66,17.45-7.85,24.11-1.19h0c6.66,6.66,6.66,17.45,0,24.11l-1.04,1.04-20.93,20.93c-1.76,1.76-4.6,1.76-6.36,0l-20.93-20.93-1.04-1.04c-6.66-6.66-6.66-17.45,0-24.11Z"/>
    </g>
  </g>
</svg>