<?xml version="1.0" encoding="UTF-8"?>
<svg id="Layer_1" data-name="Layer 1" xmlns="http://www.w3.org/2000/svg" xmlns:xlink="http://www.w3.org/1999/xlink" viewBox="0 0 1000 1000">
  <defs>
    <style>
      .cls-1 {
        clip-path: url(#clippath);
      }

      .cls-2 {
        fill: none;
      }

      .cls-2, .cls-3, .cls-4, .cls-5, .cls-6, .cls-7, .cls-8, .cls-9, .cls-10, .cls-11, .cls-12, .cls-13 {
        stroke-width: 0px;
      }

      .cls-3 {
        fill: url(#linear-gradient);
      }

      .cls-4 {
        fill: #008456;
      }

      .cls-5 {
        fill: #543b1f;
      }

      .cls-6 {
        fill: #825a00;
      }

      .cls-7 {
        fill: #310f06;
      }

      .cls-8 {
        fill: #ffe8d4;
      }

      .cls-9 {
        fill: #edba3b;
      }

      .cls-10 {
        opacity: .2;
      }

      .cls-10, .cls-13 {
        fill: #493800;
      }

      .cls-11 {
        fill: #eaad00;
      }

      .cls-12 {
        fill: #d6b8a1;
      }
    </style>
    <linearGradient id="linear-gradient" x1="-21.59" y1="987.88" x2="590.5" y2="413.89" gradientUnits="userSpaceOnUse">
      <stop offset="0" stop-color="#008456"/>
      <stop offset=".81" stop-color="#ffef02"/>
      <stop offset="1" stop-color="#ffef02"/>
    </linearGradient>
    <clipPath id="clippath">
      <circle class="cls-2" cx="496.54" cy="500" r="420.7"/>
    </clipPath>
  </defs>
  <circle class="cls-3" cx="497.68" cy="500.93" r="419.56"/>
  <path class="cls-4" d="M500,27.75c63.77,0,125.61,12.48,183.81,37.1,56.23,23.78,106.74,57.84,150.12,101.22,43.38,43.38,77.43,93.89,101.22,150.12,24.62,58.2,37.1,120.05,37.1,183.81s-12.48,125.61-37.1,183.81c-23.78,56.23-57.84,106.74-101.22,150.12-43.38,43.38-93.89,77.43-150.12,101.22-58.2,24.62-120.05,37.1-183.81,37.1s-125.61-12.48-183.81-37.1c-56.23-23.78-106.74-57.84-150.12-101.22-43.38-43.38-77.43-93.89-101.22-150.12-24.62-58.2-37.1-120.05-37.1-183.81s12.48-125.61,37.1-183.81c23.78-56.23,57.84-106.74,101.22-150.12,43.38-43.38,93.89-77.43,150.12-101.22,58.2-24.62,120.05-37.1,183.81-37.1M500,0C223.86,0,0,223.86,0,500s223.86,500,500,500,500-223.86,500-500S776.14,0,500,0h0Z"/>
  <g class="cls-1">
    <g>
      <g id="Reindeer">
        <g>
          <path class="cls-6" d="M610.86,728.79c-8.04-45.26-37.81-127.56-37.81-127.56l-68.48-10.15c-.32-1.27-.49-1.95-.49-1.95l-6.35.94-6.35-.94s-.17.68-.49,1.95l-68.48,10.15s-36.97,75.54-40.13,127.5c-1.17,9-12.2,49.25-8.27,66.61,9.08,22.18,34.78,38.11,121,37.31,81.68-.76,120-13.11,129.07-32.27,10.85-22.91-11.62-62.66-13.21-71.59Z"/>
          <path class="cls-6" d="M408.32,662.35c8.27,1.71,12.44,2.08,20.54,2.83,31.53,2.95,63.57,1.38,95.03-1.74,15.11-1.5,30.14-3.98,44.8-7.98,5.63-1.54,11.28-2.92,16.93-4.37,1.46-.37,2.76-.7,3.96-1.02-8.71-27.19-16.54-48.83-16.54-48.83l-68.48-10.15c-.32-1.27-.49-1.95-.49-1.95l-6.35.94-6.35-.94s-.17.68-.49,1.95l-68.48,10.15s-12.83,26.23-24.03,58.4c3.03,1.18,6.24,1.95,9.95,2.71Z"/>
          <path class="cls-8" d="M526.68,686.83c5.09-28.32,26.19-60.38,38.69-86.73l-76.26-14.78-66.71,15.92s-.1.3-.27.86c4.87,19.99,29.65,64.38,32.71,84.74,5.83,38.87,4.61,102.83-5.98,144.26,13.05,1.18,28.3,1.73,46.15,1.56,15.81-.15,29.98-.73,42.64-1.71-19.53-28.1-18.05-104.62-10.96-144.12Z"/>
          <path class="cls-12" d="M534.17,662.4c8.73-21.37,22.19-43.32,31.2-62.3l-76.26-14.78-66.71,15.92s-.1.3-.27.86c3.56,14.63,17.78,42.31,26.35,64.08,47.23,9.45,85.7-3.77,85.7-3.77Z"/>
          <path class="cls-12" d="M522.59,723.04c-5.8,13.23-5.15,44.28-32.83,42.23-26.7-1.98-24.72-22.74-32.12-49.18,2,37.05-.57,82.82-8.8,115,13.05,1.18,28.3,1.73,46.15,1.56,15.81-.15,29.98-.73,42.64-1.71-14.52-20.9-17.43-68.59-15.04-107.9Z"/>
        </g>
        <path class="cls-6" d="M456.81,651.23c-137.11-9.23-167.32-96.73-173.41-187.82-4.97-74.34,24.92-154.34,93.64-183.96,52.16-22.48,101.47-24.5,144.45-20.73,83.03,7.27,144.88,55.79,169.99,115.66,34.28,81.74,31.93,294.81-234.67,276.86Z"/>
        <path class="cls-10" d="M691.48,374.37c-3.35-7.98-7.36-15.75-11.97-23.25-.16,1.46-.35,2.92-.56,4.38,1.36,2.64,2.64,5.3,3.83,8,32.76,74.16,30.51,267.45-224.29,251.17-131.05-8.37-159.91-87.76-165.74-170.4-3.07-43.55,7.76-89.23,33.5-123.37-.46-.61-.93-1.22-1.4-1.83-31.53,38.32-44.91,92.69-41.46,144.34,6.09,91.09,36.29,178.6,173.41,187.82,266.6,17.94,268.95-195.12,234.67-276.86Z"/>
        <path class="cls-6" d="M629.52,315.04c7.91-65.92,164.13-49.55,174.03-38.23,9.23,10.55-44.83,138.43-123.93,131.84-40.87-11.87-52.15-76.54-50.1-93.61Z"/>
        <path class="cls-11" d="M659.47,322.78c1.03-10.37,22.62-22.62,42.56-26.52,31.68-6.2,67.85-3.17,71.84,1.39,6.07,6.93-29.47,91-81.47,86.67-6.85-45.54-31.9-52.79-32.93-61.53Z"/>
        <path class="cls-6" d="M371.32,313.67c-.06-66.39-157.12-68.6-168.29-58.53-10.41,9.38,28.15,142.76,107.48,145.56,41.99-6.95,60.83-69.84,60.81-87.03Z"/>
        <path class="cls-11" d="M340.67,317.81c.2-10.42-19.79-25.13-39.13-31.37-30.72-9.9-66.99-11.17-71.5-7.11-6.84,6.17,18.51,93.84,70.65,95.69,12.19-44.41,37.92-48.65,39.97-57.21Z"/>
        <path class="cls-13" d="M743.17,171.03c-8-6.71-19.92-5.66-26.62,2.34-5.21,6.22-12.77,10.17-23.67,12.36-11.51,2.31-12.92-10.05-13.27-12.26-1.67-10.55-4.56-18.61-8.61-24.01-6.26-8.35-18.11-10.04-26.46-3.78-8.16,6.12-9.96,17.58-4.18,25.9,1.26,2.72,2.93,8.99,2.72,14.72-.39,10.54-19.23,16.94-23.05,18.77-4.91,2.35-12.5,4.52-18.23-2.73-2.77-3.49-4.12-7.49-5.94-10.43-5.49-8.88-17.14-11.62-26.01-6.13-8.88,5.49-11.62,17.14-6.13,26.01,9.69,15.66,13.94,23.28,11.99,35.06-4.35,9.14-7.33,19.32-9.69,30.72-.23,11.12,34.29,22.3,35.95,13.17,5.53-30.54,12.6-41.15,34.39-51.58,13.85-6.63,29.11-9.46,43.86-12.19,23.71-4.4,48.23-8.94,65.3-29.3,6.71-8,5.66-19.92-2.34-26.62Z"/>
        <path class="cls-13" d="M251.23,171.03c8-6.71,19.92-5.66,26.62,2.34,5.21,6.22,12.77,10.17,23.67,12.36,11.51,2.31,12.92-10.05,13.27-12.26,1.67-10.55,4.56-18.61,8.61-24.01,6.26-8.35,18.11-10.04,26.46-3.78,8.16,6.12,9.96,17.58,4.18,25.9-1.26,2.72-2.93,8.99-2.72,14.72.39,10.54,19.23,16.94,23.05,18.77,4.91,2.35,12.5,4.52,18.23-2.73,2.77-3.49,4.12-7.49,5.94-10.43,5.49-8.88,17.14-11.62,26.01-6.13,8.88,5.49,11.62,17.14,6.13,26.01-9.69,15.66-13.94,23.28-11.99,35.06,4.35,9.14,7.33,19.32,9.69,30.72.23,11.12-34.29,22.3-35.95,13.17-5.53-30.54-12.6-41.15-34.39-51.58-13.85-6.63-29.11-9.46-43.86-12.19-23.71-4.4-48.23-8.94-65.3-29.3-6.71-8-5.66-19.92,2.34-26.62Z"/>
        <ellipse class="cls-7" cx="606.44" cy="499.62" rx="29.28" ry="34.28"/>
        <path class="cls-13" d="M583.7,436.67s.99-15.82,5.93-20.76,46.47,9.89,54.38,17.8c0,0,0,14.83-2.97,18.79-2.97,3.96-52.41-14.83-57.35-15.82Z"/>
        <ellipse class="cls-7" cx="358.58" cy="499.62" rx="29.28" ry="34.28"/>
        <path class="cls-13" d="M375.06,436.67s-.99-15.82-5.93-20.76c-4.94-4.94-46.47,9.89-54.38,17.8,0,0,0,14.83,2.97,18.79,2.97,3.96,52.41-14.83,57.35-15.82Z"/>
        <path class="cls-8" d="M463.86,656.53c-93.22-4.17-110.4-110.81-37.64-135.11,9.25-3.09,18.26-5.4,26.99-7.01,22.99-4.25,44-3.65,62.06.36,29.06,6.43,50.49,21.67,60.24,39.69,16.31,30.14,18.82,107.9-111.66,102.06Z"/>
        <path class="cls-12" d="M524.92,534.85c0,17.19-18.3,31.13-40.87,31.13s-40.87-13.94-40.87-31.13c0-7.82,3.78-14.97,10.04-20.44,22.99-4.25,44-3.65,62.06.36,6.02,5.41,9.64,12.42,9.64,20.07Z"/>
        <path class="cls-12" d="M575.52,554.47c-18.13-33.49-76.53-57.35-149.3-33.05-72.77,24.3-55.59,130.94,37.64,135.11,130.48,5.83,127.97-71.93,111.66-102.06ZM465.06,627.26c-87.15-3.23-103.21-85.93-35.18-104.78,68.02-18.84,122.62-.34,139.56,25.63,15.25,23.37,17.59,83.67-104.38,79.15Z"/>
        <path class="cls-5" d="M480.54,606.63c-1.94,0-3.52-1.57-3.52-3.52,0-2.35.03-57.83,2.69-73.11.33-1.91,2.15-3.19,4.07-2.86,1.91.33,3.19,2.15,2.86,4.07-2.55,14.69-2.58,71.34-2.58,71.91,0,1.94-1.57,3.52-3.52,3.52Z"/>
        <path class="cls-5" d="M477.98,608.72c-28.44,0-48.27-17.59-51.32-35.55-.32-1.91.96-3.73,2.88-4.05,1.91-.32,3.73.96,4.05,2.88,2.62,15.42,21.73,31.11,48.05,29.59,25.95-1.5,41.77-10.71,48.36-28.14.69-1.82,2.72-2.73,4.53-2.04,1.82.69,2.73,2.72,2.04,4.53-7.58,20.02-25.92,31.01-54.53,32.67-1.38.08-2.74.12-4.07.12Z"/>
        <ellipse class="cls-6" cx="483.17" cy="528.95" rx="35.6" ry="25.24"/>
        <path class="cls-6" d="M512.32,514.47c.48,1.7.74,3.46.74,5.26,0,13.94-15.15,25.24-33.84,25.24-14.45,0-26.78-6.76-31.63-16.27,0,.09,0,.17,0,.26,0,13.94,15.94,25.24,35.6,25.24s35.6-11.3,35.6-25.24c0-5.39-2.39-10.39-6.45-14.49Z"/>
        <path class="cls-11" d="M460.1,528.29c-3.3-2.64-4.94-6.92-4.94-9.89s10.87-12.2,33.95-12.2c4.94,0,.43,11.36-.99,12.2-3.96,2.31-24.72,12.52-28.02,9.89Z"/>
      </g>
      <g>
        <rect class="cls-11" x="310.37" y="696.13" width="382.3" height="296.53"/>
        <path class="cls-11" d="M692.68,723.42c-7.74-3.58-15.8-5.36-24.26-4.75-35.94,2.61-164.68,19.16-207.25,24.36-33.44,4.09-112.67-19.51-150.8-26.74v77.32s217-15.2,283.93,2.06c66.92,17.26,77.25,111.62,31.62,147.94-45.63,36.32-315.55,49.05-315.55-37.84v86.89h382.3v-269.24h0Z"/>
        <polygon class="cls-9" points="726.37 765.01 276.68 765.01 310.37 696.13 692.68 696.13 726.37 765.01"/>
        <polygon class="cls-4" points="548.86 856.15 523.87 832.31 537.94 832.31 514.1 807.81 526.68 807.81 501.52 775.37 476.36 807.81 488.94 807.81 465.11 832.31 479.18 832.31 454.18 856.15 493.46 856.15 493.46 877.49 511.58 877.49 511.58 856.15 548.86 856.15"/>
        <polygon class="cls-4" points="430.89 835.8 417.22 822.77 424.91 822.77 411.88 809.37 418.76 809.37 405 791.63 391.23 809.37 398.12 809.37 385.08 822.77 392.77 822.77 379.1 835.8 400.58 835.8 400.58 847.48 410.49 847.48 410.49 835.8 430.89 835.8"/>
        <polygon class="cls-4" points="621.36 835.8 607.69 822.77 615.38 822.77 602.35 809.37 609.23 809.37 595.47 791.63 581.71 809.37 588.59 809.37 575.55 822.77 583.24 822.77 569.58 835.8 591.06 835.8 591.06 847.48 600.96 847.48 600.96 835.8 621.36 835.8"/>
      </g>
      <g>
        <g>
          <path class="cls-6" d="M426.97,696.13s-64.63-32.21-82.01-30.62c-18.29,1.67-25.22,24.2-26.83,30.62h-.01c-.03.13-.06.26-.09.39-.2.84-.3,1.32-.3,1.32h0c-3.21,14.45-6.24,30.85-10.01,50.31,18.93,9.62,40.28,13.64,61.4,11.33,4.07-30.28,5.55-48.56,8.2-62.57l49.63-.78Z"/>
          <path class="cls-13" d="M369.14,759.47c.54-4.06,1.04-7.9,1.5-11.55-8.32.08-32.35-.72-60.79-10.73-.68,3.55-1.38,7.19-2.11,10.95,18.93,9.62,40.28,13.64,61.4,11.33Z"/>
        </g>
        <g>
          <path class="cls-6" d="M576.08,696.13s64.63-32.21,82.01-30.62c18.29,1.67,25.22,24.2,26.83,30.62h.01c.03.13.06.26.09.39.2.84.3,1.32.3,1.32h0c3.21,14.45,6.24,30.85,10.01,50.31-18.93,9.62-40.28,13.64-61.4,11.33-4.07-30.28-5.55-48.56-8.2-62.57l-49.63-.78Z"/>
          <path class="cls-13" d="M633.91,759.47c-.54-4.06-1.04-7.9-1.5-11.55,8.32.08,32.35-.72,60.79-10.73.68,3.55,1.38,7.19,2.11,10.95-18.93,9.62-40.28,13.64-61.4,11.33Z"/>
        </g>
      </g>
    </g>
  </g>
</svg>