<?xml version="1.0" encoding="UTF-8"?>
<svg id="Layer_1" data-name="Layer 1" xmlns="http://www.w3.org/2000/svg" xmlns:xlink="http://www.w3.org/1999/xlink" viewBox="0 0 1000 1000">
  <defs>
    <style>
      .cls-1 {
        fill: #825a00;
      }

      .cls-1, .cls-2, .cls-3, .cls-4, .cls-5, .cls-6, .cls-7, .cls-8, .cls-9, .cls-10, .cls-11, .cls-12, .cls-13, .cls-14 {
        stroke-width: 0px;
      }

      .cls-1, .cls-5, .cls-6, .cls-8, .cls-11 {
        fill-rule: evenodd;
      }

      .cls-15 {
        clip-path: url(#clippath);
      }

      .cls-2 {
        fill: none;
      }

      .cls-16 {
        opacity: .1;
      }

      .cls-3 {
        fill: url(#linear-gradient);
      }

      .cls-4 {
        fill: #008456;
      }

      .cls-5, .cls-13 {
        fill: #493800;
      }

      .cls-6, .cls-10 {
        fill: #eaad00;
      }

      .cls-7 {
        fill: #1a1a1a;
      }

      .cls-17 {
        filter: url(#drop-shadow-1);
      }

      .cls-8 {
        fill: #340069;
      }

      .cls-18 {
        opacity: .3;
      }

      .cls-9 {
        fill: #ffef02;
      }

      .cls-11, .cls-14 {
        fill: #fff;
      }

      .cls-12 {
        fill: #b199c5;
      }
    </style>
    <linearGradient id="linear-gradient" x1="94.27" y1="879.23" x2="706.36" y2="305.24" gradientUnits="userSpaceOnUse">
      <stop offset="0" stop-color="#008456"/>
      <stop offset=".77" stop-color="#ffef02"/>
      <stop offset="1" stop-color="#ffef02"/>
    </linearGradient>
    <clipPath id="clippath">
      <circle class="cls-2" cx="496.54" cy="500" r="420.7"/>
    </clipPath>
    <filter id="drop-shadow-1" filterUnits="userSpaceOnUse">
      <feOffset dx="3.08" dy="3.08"/>
      <feGaussianBlur result="blur" stdDeviation="24.66"/>
      <feFlood flood-color="#6bc64a" flood-opacity=".2"/>
      <feComposite in2="blur" operator="in"/>
      <feComposite in="SourceGraphic"/>
    </filter>
  </defs>
  <circle class="cls-3" cx="497.68" cy="500.93" r="419.56"/>
  <path class="cls-4" d="M500,27.75c63.77,0,125.61,12.48,183.81,37.1,56.23,23.78,106.74,57.84,150.12,101.22,43.38,43.38,77.43,93.89,101.22,150.12,24.62,58.2,37.1,120.05,37.1,183.81s-12.48,125.61-37.1,183.81c-23.78,56.23-57.84,106.74-101.22,150.12-43.38,43.38-93.89,77.44-150.12,101.22-58.2,24.62-120.05,37.1-183.81,37.1s-125.61-12.48-183.81-37.1c-56.23-23.78-106.74-57.84-150.12-101.22-43.38-43.38-77.43-93.89-101.22-150.12-24.62-58.2-37.1-120.05-37.1-183.81s12.48-125.61,37.1-183.81c23.78-56.23,57.84-106.74,101.22-150.12,43.38-43.38,93.89-77.43,150.12-101.22,58.2-24.62,120.05-37.1,183.81-37.1M500,0C223.86,0,0,223.86,0,500s223.86,500,500,500,500-223.86,500-500S776.14,0,500,0h0Z"/>
  <g class="cls-15">
    <g>
      <g class="cls-17">
        <path class="cls-11" d="M510.55,379.19c27,0,52.67,6.73,76.23,18.11v-.02c35.22-318.01,214.07-203.39,190.56-121.68-7.39,25.69-30.1,43.99-56.77,45.75-28.75,50.75-45.92,98.37-51.54,142.86h-.02c33.47,41.42,53.61,90.67,53.61,130.18,0,85.02-96.35,153.95-215.21,153.95s-215.21-68.93-215.21-153.95c0-41.05,23.2-92.64,60.58-135.01h0c-178.52-242.45-26.67-430.75,87.96-65.36h0c22-9.39,45.51-14.84,69.83-14.84Z"/>
        <path class="cls-6" d="M662.57,289.04c9.8,12.04,22.76,21.13,38.88,27.27-20.97,23.09-39.81,60.25-56.53,111.48,0,0-5.24-4.19-15.71-12.57.9-47.01,12.02-89.08,33.36-126.19"/>
        <g class="cls-16">
          <path class="cls-6" d="M645.81,267.24c-1.87,26.78,14.91,49.66,50.34,68.66-30.1,61.98-37.95,103.53-23.54,124.67,8.94-52.23,25.29-98.46,49.05-138.68,17.39-2.26,33.6-11.17,44.86-25.44,16.53-20.96,19.35-49.63,7.2-73.4-2.15,76.71-44.8,91.44-127.91,44.2"/>
        </g>
        <g class="cls-16">
          <path class="cls-6" d="M358.28,457.55l-4.92,1.18c-123.35-167.53-88.96-309.15-18.11-260.17-74.11-10.93-52.21,91.31,23.03,258.99"/>
        </g>
        <g class="cls-16">
          <path class="cls-6" d="M506.63,746.19c-160.53,0-253.09-101.87-198.45-222.03-30.23,134.7,60.52,166.3,200.14,165.08,167.07-1.45,200.02-31.39,197.28-165.09l.77.79c51.38,120.39-38.37,221.25-199.73,221.25"/>
        </g>
        <path class="cls-6" d="M382.34,432.42c10.3-8.83,21.38-17.06,33.26-24.7-92.25-275.72-166.18-177.16-33.26,24.7"/>
        <path class="cls-11" d="M451.37,551.12c3.83,0,6.93,4.26,6.93,9.51s-3.1,9.51-6.93,9.51-6.94-4.26-6.94-9.51,3.11-9.51,6.94-9.51"/>
        <path class="cls-13" d="M536.56,615.67c-.78,0-1.57-.03-2.35-.09-8.99-.72-16.96-5.46-21.88-12.66-4.41,6.48-11.46,10.91-19.47,11.89-10.8,1.32-21.4-3.84-27.01-13.15-1.07-1.78-.5-4.1,1.29-5.17,1.79-1.07,4.1-.5,5.17,1.29,4.07,6.77,11.77,10.53,19.63,9.55,7.84-.96,14.41-6.47,16.74-14.02.48-1.57,1.92-2.64,3.56-2.66.01,0,.03,0,.04,0,1.62,0,3.06,1.04,3.58,2.58,2.77,8.32,10.21,14.15,18.95,14.84,8.73.7,17.01-3.88,21.06-11.66.96-1.85,3.24-2.56,5.09-1.6,1.85.96,2.56,3.24,1.6,5.09-5.09,9.77-15.12,15.79-25.99,15.79Z"/>
        <path class="cls-13" d="M512.98,640.3c-.1,0-.21,0-.31,0-8.75-.21-16.53-9.32-23.78-27.86-.41-1.06-.33-2.25.23-3.24.56-.99,1.54-1.67,2.67-1.86,8.52-1.4,14.06-6.04,16.94-14.19.53-1.49,1.93-2.5,3.51-2.51.02,0,.03,0,.05,0,1.56,0,2.97.97,3.52,2.43,3.4,8.94,9.67,13.84,19.16,15.01,1.19.15,2.24.85,2.82,1.89.59,1.04.65,2.3.16,3.4-8.12,18.12-16.29,26.94-24.97,26.94ZM497.56,613.73c7,16.29,12.52,18.96,15.29,19.03.04,0,.07,0,.11,0,2.81,0,8.38-2.54,16.07-18.15-7.14-1.88-12.73-5.83-16.69-11.79-3.5,5.33-8.45,8.98-14.78,10.91Z"/>
        <path class="cls-5" d="M513.45,575.8c11.01,0,19.93,5.09,19.93,11.37s-8.92,11.37-19.93,11.37-19.93-5.09-19.93-11.37,8.92-11.37,19.93-11.37"/>
        <path class="cls-13" d="M475.7,597.76c-4.13,1.61-7.7,4.39-10.31,7.95-.49.67-1.43.81-2.1.32-.43-.31-.64-.81-.61-1.31l.07-1.02c.11-1.48.64-2.76,1.35-3.91.69-1.17,1.64-2.16,2.7-3,1.06-.83,2.27-1.49,3.6-1.83,1.32-.35,2.73-.46,4.23,0l.97.3c.7.21,1.09.95.88,1.65-.12.4-.42.7-.79.85Z"/>
        <path class="cls-13" d="M555.09,594.31c1.14-.43,2.2-.44,3.23-.31.51.08,1.02.18,1.49.37.49.16.95.36,1.39.61.88.49,1.67,1.15,2.24,2.03.53.91.96,1.91.83,3.28l-.15,1.54c-.07.75-.74,1.3-1.49,1.23-.36-.04-.68-.21-.9-.47-2.06-2.39-4.72-4.23-7.71-5.43-.67-.27-1-1.03-.73-1.71.14-.35.42-.61.75-.74l1.06-.4Z"/>
        <path class="cls-11" d="M627.97,722.16h0c-33.37,15.21-73,24.03-115.5,24.03-38.94,0-75.47-7.4-106.98-20.34-29.79,34.58-47.94,73.06-54.47,115.43-24.09-18.51-57.92-17.36-80.7,2.74-22.78,20.1-28.13,53.52-12.77,79.73,12.94,19.28,33.3,32.34,56.22,36.06,22.92,3.72,46.36-2.22,64.74-16.42,90.23,30.18,187.82,30.18,278.05,0,20,13.86,45.88,16.02,67.9,5.65,38.59-18.15,61.02-86.07,24.57-116.12-17.7-14.6-42.95-15.68-61.84-2.63-15.7-58.61-35.43-94.65-59.22-108.13Z"/>
        <path class="cls-6" d="M450.52,960.68c41.05,6.57,78.86,7.09,113.45,1.56,27.99-23.35,38.49-61.66,26.31-96.02-12.18-34.36-44.47-57.51-80.93-58.01-36.45-.5-69.36,21.74-82.49,55.75-13.13,34.01-3.69,72.6,23.65,96.71"/>
        <path class="cls-6" d="M253.82,908.36c5.61,30.18,25.4,45.18,59.37,45.01,17.63-8.65,26.84-28.42,22.12-47.48-4.73-19.06-22.11-32.24-41.74-31.64-19.62.59-36.18,14.8-39.74,34.11"/>
        <path class="cls-6" d="M710.36,950.65c34.03-6.58,57.25-38.26,53.27-72.69-12.92-10.66-30.67-13.29-46.12-6.84-15.45,6.45-26.07,20.93-27.56,37.61-1.49,16.68,6.37,32.82,20.42,41.92"/>
        <g class="cls-16">
          <path class="cls-6" d="M656.59,943.39c-7.24-6.77-11.33-15.09-12.25-24.94-81.56,38.94-176.43,38.55-257.67-1.05,0,10.38-2.7,19.04-8.12,25.99,96.08,34.45,188.93,34.13,278.05,0"/>
        </g>
        <g class="cls-16">
          <path class="cls-6" d="M261.13,860.75c-11.27,22.6-9.27,49.55,5.21,70.24,14.48,20.69,38.95,28.88,64.2,28.97,35.11.13,55.55-16.53,56.12-42.57-20.11,25.77-55.23,34.44-85.03,21-29.79-13.45-46.53-45.52-40.51-77.65"/>
        </g>
        <g class="cls-16">
          <path class="cls-6" d="M660.04,945.63c-9.98-7.69-15.22-16.76-15.71-27.18,59.51,38.17,100.32,21.23,122.41-50.82,4.84,27.64-10.76,61.52-33.41,78.08-22.66,16.56-48.43,12.93-73.29-.07"/>
        </g>
        <g class="cls-16">
          <path class="cls-6" d="M355.84,818.25c-1.63,6.8-2.44,10.2-2.44,10.2,30.16-2.12,50.84-18.04,62.03-47.75,18.84,8.08,30.62,1.14,35.35-20.81,15.45,4.07,23.62-1.26,24.53-15.99,27.9-34.35,20.38-51.56-22.58-51.63,16.45,10.15,25.21,18.23,26.28,24.24-3.09,6.33-8.58,8.46-16.46,6.39,5.5,30.41-2.69,35.01-24.56,13.81,1.22,42.58-8.27,49.23-28.46,19.96-4.83,34.4-22.73,54.93-53.7,61.57"/>
        </g>
        <path class="cls-11" d="M372.98,812.05c22.93-10.41,33.73-31.48,36.52-55.37,21.79,28.92,31.28,22.27,28.46-19.96,21.13,21.67,29.32,17.06,24.56-13.81,24.05,2.29,22.77-10.9-9.82-30.63-17.64-10.68-39.3,1.81-60.23,27.79-34.65,12.87-54.8,30.99-61.9,53.9-12.78,41.18,1.99,56.44,42.41,38.09Z"/>
        <path class="cls-5" d="M524.82,645.79h130.83c8.93,0,14.43,7.3,12.23,16.23l-41.76,169.2c-2.2,8.93-11.31,16.23-20.24,16.23h-130.83c-8.93,0-14.43-7.3-12.23-16.23l41.75-169.2c2.21-8.93,11.31-16.23,20.24-16.23Z"/>
        <g class="cls-18">
          <path class="cls-5" d="M524.82,645.79h130.83c8.93,0,14.43,7.3,12.23,16.23l-41.76,169.2c-2.2,8.93-11.31,16.23-20.24,16.23h-130.83c-8.93,0-14.43-7.3-12.23-16.23l41.75-169.2c2.21-8.93,11.31-16.23,20.24-16.23Z"/>
        </g>
        <path class="cls-1" d="M536.02,660.36h118.81c8.11,0,13.1,6.63,11.1,14.74l-37.92,153.66c-2,8.11-10.27,14.74-18.38,14.74h-118.81c-8.11,0-13.11-6.63-11.11-14.74l37.92-153.66c2.01-8.11,10.27-14.74,18.38-14.74Z"/>
        <path class="cls-11" d="M579.46,845.49h-64.41l7.97-21.7c1.91-5.19,7.71-9.43,12.89-9.43h45.56c5.19,0,7.87,4.24,5.96,9.43l-7.98,21.7Z"/>
        <g class="cls-18">
          <path class="cls-5" d="M664.48,675.75c-.07.5-.17,1-.29,1.51l-37.92,153.66c-2,8.11-10.27,14.74-18.38,14.74h-118.81c-3.01,0-5.58-.91-7.53-2.46-.72-8.84-.42-19.02.94-30.57h0c37.76,10.28,70.19,7.19,96.34-7.58-15.79-9.27-15.4-20.04,1.18-32.31-31.99-30.39-28.2-45.7,11.39-45.95-12.7-36.67,5.04-44.96,53.21-24.88,2.8-12.27,4.95-25.4,6.37-39.38l13.5,13.23Z"/>
        </g>
        <path class="cls-11" d="M634.58,707.44c17.78,6.51,31.08,18.48,39.27,37.7,63.17,24.9,46.8,85.9-19.64,62.84-17.94,6.74-32.21,4.51-42.81-6.68-2.1-3.47-8.69-.2-19.24-2.75-17.26-4.17-12.55-17.09,9.82-27.1-36.74-27.19-33.72-39.1,9.03-35.74-17.9-31.83-10.27-40.66,23.56-28.28Z"/>
        <path class="cls-6" d="M537.14,675.03c5.4,0,9.78,4.38,9.78,9.78s-4.38,9.78-9.78,9.78-9.78-4.38-9.78-9.78,4.38-9.78,9.78-9.78Z"/>
        <g class="cls-16">
          <path class="cls-6" d="M361.48,800.12c-14.64,6.16-25.99,1.58-34.06-13.75-5.04,26.08,4.69,37.72,28.42,31.88,5.09-1.25,10.81-3.31,17.18-6.2,7.49-3.4,13.68-7.93,18.72-13.33,10.41-11.14,15.92-25.95,17.8-42.04-18.73,23.36-34.76,37.84-48.06,43.45"/>
        </g>
        <g class="cls-16">
          <path class="cls-6" d="M705.22,766.64c9.28,23.6-.19,33.53-28.44,29.76-2.73-.37-5.63-.86-8.72-1.48-5.07,6.27-9.68,10.62-13.84,13.06,10.69,3.71,20.08,5.24,28.05,5.11,30.17-.53,40.03-25.05,22.95-46.44"/>
        </g>
        <g class="cls-18">
          <path class="cls-8" d="M489.24,611.24c-12.67-6.34-21.05-8.52-25.17-6.53,4.24,8.96,12.35,13.94,24.31,14.95,15.62,37.44,32.84,37.18,51.64-.79,14.66-1.04,22.31-6.86,22.96-17.45-13.06,8.27-22.93,11.7-29.6,10.28-13.12,33.26-27.83,33.11-44.15-.46"/>
        </g>
        <path class="cls-7" d="M580.76,509.47c13.92-2.75,27.37,12.56,30.04,34.18,2.68,21.62-6.44,41.37-20.35,44.12-13.92,2.75-27.37-12.56-30.04-34.18-2.68-21.62,6.44-41.37,20.35-44.12Z"/>
        <path class="cls-14" d="M582.05,520.65c4.52,1.61,6.68,8.86,4.84,16.19-1.85,7.33-7,11.98-11.52,10.37-4.52-1.61-6.68-8.86-4.84-16.19,1.85-7.33,7-11.98,11.52-10.37Z"/>
        <path class="cls-12" d="M598.61,564.05c2.16,1.49,2.56,5.56.88,9.08-1.68,3.52-4.79,5.17-6.95,3.68-2.16-1.49-2.56-5.56-.88-9.08,1.68-3.52,4.79-5.17,6.95-3.68Z"/>
        <path class="cls-7" d="M450.2,509.48c-13.92-2.75-27.37,12.56-30.04,34.18-2.68,21.62,6.44,41.37,20.35,44.12,13.92,2.75,27.37-12.56,30.04-34.18,2.68-21.62-6.44-41.37-20.35-44.12Z"/>
        <path class="cls-14" d="M448.92,520.66c-4.52,1.61-6.68,8.86-4.84,16.19,1.85,7.33,7,11.98,11.52,10.37,4.52-1.61,6.68-8.86,4.84-16.19-1.85-7.33-7-11.98-11.52-10.37Z"/>
        <path class="cls-12" d="M432.36,564.07c-2.16,1.49-2.56,5.56-.88,9.08,1.68,3.52,4.79,5.17,6.95,3.68,2.16-1.49,2.56-5.56.88-9.08-1.68-3.52-4.79-5.17-6.95-3.68Z"/>
        <ellipse class="cls-14" cx="513.6" cy="580.7" rx="6.97" ry="1.7"/>
      </g>
      <path class="cls-4" d="M763.82,471.01c-5.27-8.63-7.87-18.99-6.76-29.82,2.7-26.3,26.21-45.44,52.52-42.74,26.3,2.7,45.44,26.21,42.74,52.52-2.7,26.3-26.21,45.44-52.52,42.74-7.32-.75-14.07-3.12-19.97-6.7l-22.16,4.97,6.15-20.96Z"/>
      <g>
        <path class="cls-10" d="M790.18,445.75l4.5,13.76c.32.98,1.52,1.33,2.32.67l13.44-11.09s-14.28-5.57-14.28-5.27-5.97,1.92-5.97,1.92Z"/>
        <path class="cls-9" d="M825.63,419.3c-8.77,3.47-37.1,15.08-47.82,19.47-1.42.58-1.33,2.61.13,3.08l12.24,3.9,4.48,13.72c.18.55.64.91,1.14,1,.41.08,1.02-11.11,1.02-11.11,0,0,12.87,9.54,18.97,14.05,1.5,1.11,3.65.28,4.01-1.56,1.82-9.37,6.36-32.8,7.92-40.81.23-1.2-.95-2.19-2.09-1.74Z"/>
        <path class="cls-10" d="M795.81,460.47c.41.08,1.02-11.11,1.02-11.11l21.14-19.86c.14-.13-.03-.36-.2-.26l-27.59,16.5,4.48,13.72c.18.55.64.91,1.14,1Z"/>
      </g>
    </g>
  </g>
</svg>