<?xml version="1.0" encoding="UTF-8"?>
<svg id="Layer_1" data-name="Layer 1" xmlns="http://www.w3.org/2000/svg" xmlns:xlink="http://www.w3.org/1999/xlink" viewBox="0 0 1000 1000">
  <defs>
    <style>
      .cls-1 {
        fill: #000072;
      }

      .cls-1, .cls-2, .cls-3, .cls-4, .cls-5, .cls-6, .cls-7, .cls-8, .cls-9, .cls-10 {
        stroke-width: 0px;
      }

      .cls-11 {
        clip-path: url(#clippath);
      }

      .cls-2 {
        fill: none;
      }

      .cls-3 {
        fill: url(#linear-gradient);
      }

      .cls-4 {
        fill: #008456;
      }

      .cls-5 {
        fill: #ffa1a8;
      }

      .cls-6 {
        fill: #825a00;
      }

      .cls-7 {
        fill: #004c30;
      }

      .cls-12 {
        opacity: .3;
      }

      .cls-13 {
        opacity: .5;
      }

      .cls-8 {
        fill: #eaad00;
      }

      .cls-9 {
        fill: #493800;
      }

      .cls-10 {
        fill: #fff;
      }
    </style>
    <linearGradient id="linear-gradient" x1="-21.59" y1="987.88" x2="590.5" y2="413.89" gradientUnits="userSpaceOnUse">
      <stop offset="0" stop-color="#008456"/>
      <stop offset=".81" stop-color="#ffef02"/>
      <stop offset="1" stop-color="#ffef02"/>
    </linearGradient>
    <clipPath id="clippath">
      <circle class="cls-2" cx="496.54" cy="500" r="420.7"/>
    </clipPath>
  </defs>
  <circle class="cls-3" cx="497.68" cy="500.93" r="419.56"/>
  <path class="cls-4" d="M500,27.75c63.77,0,125.61,12.48,183.81,37.1,56.23,23.78,106.74,57.84,150.12,101.22,43.38,43.38,77.43,93.89,101.22,150.12,24.62,58.2,37.1,120.05,37.1,183.81s-12.48,125.61-37.1,183.81c-23.78,56.23-57.84,106.74-101.22,150.12-43.38,43.38-93.89,77.43-150.12,101.22-58.2,24.62-120.05,37.1-183.81,37.1s-125.61-12.48-183.81-37.1c-56.23-23.78-106.74-57.84-150.12-101.22-43.38-43.38-77.43-93.89-101.22-150.12-24.62-58.2-37.1-120.05-37.1-183.81s12.48-125.61,37.1-183.81c23.78-56.23,57.84-106.74,101.22-150.12,43.38-43.38,93.89-77.43,150.12-101.22,58.2-24.62,120.05-37.1,183.81-37.1M500,0C223.86,0,0,223.86,0,500s223.86,500,500,500,500-223.86,500-500S776.14,0,500,0h0Z"/>
  <g class="cls-11">
    <g>
      <path class="cls-7" d="M682.65,365.98l12.55,38.37c.89,2.73,4.25,3.7,6.46,1.87l37.47-30.93s-39.81-15.53-39.81-14.68-16.66,5.36-16.66,5.36Z"/>
      <path class="cls-4" d="M781.51,292.23c-24.47,9.68-103.45,42.04-133.34,54.3-3.95,1.62-3.71,7.28.35,8.58l34.13,10.87,12.51,38.25c.5,1.54,1.77,2.53,3.19,2.8,1.15.22,2.85-30.98,2.85-30.98,0,0,35.88,26.61,52.9,39.17,4.19,3.1,10.18.77,11.17-4.35,5.07-26.13,17.75-91.46,22.08-113.79.65-3.36-2.66-6.11-5.84-4.85Z"/>
      <path class="cls-7" d="M698.35,407.03c1.15.22,2.85-30.98,2.85-30.98l58.94-55.37c.4-.37-.08-1.01-.55-.72l-76.94,46.02,12.51,38.25c.5,1.54,1.77,2.53,3.19,2.8Z"/>
    </g>
    <g>
      <path class="cls-6" d="M347.38,622.11s-.01,0-.01.01l-.3,2.58-6.03,53-.22,1.99-3.01,26.49c-3.65,0-7.26-.04-10.79-.12-83.91-1.99-135.61-27.28-163.56-60.51-38.04-45.21-32.11-105.13-3.54-141.1,9.06-11.42,18.98-20.55,28.96-27.5,19.52-13.63,39.28-18.99,53.31-17.04,3.05.42,8.38,2.09,8.38,2.09,0,0,16.43-.49,27.9,6.98,13.68,8.91,16.32,19.75,16.32,19.75,0,0,8.84,9.78,9.03,22.4.66,41.72-23.48,52.39-9.78,97.61.86.09,52.73,13.34,53.36,13.36Z"/>
      <g class="cls-12">
        <path class="cls-1" d="M316.01,686.98c9.77,3,14.54,19.17,11.01,19.09-83.91-1.99-135.61-27.28-163.56-60.51,57.83,40.76,135.38,36.15,152.55,41.42Z"/>
      </g>
      <path class="cls-6" d="M671.85,797.01s22.58-37.14,51.27-41.08c31.64-4.34,64.79,21.49,57.88,65.96-8.1,52.07-79.27,45.35-79.27,45.35l-29.88-70.23Z"/>
      <g class="cls-12">
        <path class="cls-1" d="M781.21,820.36s0,0,0,0c-6.93,53.74-79.48,46.88-79.48,46.88l-29.88-70.23s10.02-16.49,25.21-28.67c0,0,13.49,16.47,25.11,41.28,15.74,33.61,33.88,38.68,57.64,12.22.45-.5.94-.98,1.41-1.48Z"/>
      </g>
      <path class="cls-6" d="M811.6,995.09c-.74,5.4-6.34,8.87-6.34,8.87,0,0-.71,6.9-6.4,11.86-13.61,11.88-42.55,11.52-42.55,11.52,0,0-5.7,3.58-23.21,6.15-25.81,3.8-74.94-.89-88.82-10.71-21.04-14.89-24.11-35.54-38.41-65.48-22.95-48.02-78.83-49.75-134.45-46.96-30.78,1.55-46.86,17.77-53.62,36.41-9.44,26.1-9.23,55.78-38.01,76.83-28.4,20.78-86.1,5.45-86.1,5.45,0,0-17.52,6.2-39.4-.41-13.84-4.18-21.34-16.27-21.34-16.27,0,0-9.97-3.3-13.01-13.28-1.91-6.26-1.54-11.95.31-17.04,8.12-22.34,44.79-33.55,44.79-33.55,0,0-8-40.26-3.29-66.85,10-56.42,67.35-69.63,67.35-69.63,0,0,9.71-50.97-2.08-105.95-.3-1.39-.6-2.78-.94-4.18l.57-25.61,1.1-49.42,19.33-2.15,201.16-22.35c20.43-9.87,38.27-18.82,53.99-26.93,70.73-36.52,98.45-56.15,125.37-66.43,37.53-14.31,49.92-.87,49.92-.87,0,0,10.36,1.42,18.57,6.85,2.36,1.56,4.54,3.46,6.24,5.75,8.77,11.81,7.3,29.3,7.3,29.3,0,0,4.31,14.11-2.1,27.49-40.87,85.39-153.65,112.6-153.65,112.6,0,0,8.66,9.71,26.91,48.61,7.77,16.56,17.27,38.42,28.57,67.05,23.81,60.3,42.69,137.07,42.69,137.07,0,0,39.62,8.26,54.39,30.38,4.11,6.17,6.3,13.4,5.16,21.84Z"/>
      <g class="cls-12">
        <path class="cls-1" d="M807.52,577.52c-40.87,85.39-153.65,112.6-153.65,112.6,0,0,8.66,9.71,26.91,48.61-35.72-40.1-51.06-59.23-49.85-67.29,1.08-7.17,41.88-6.13,76.55-19.06,33.79-12.61,78.23-51.22,85.64-74.83,7.4-23.6-7.47-34.01-7.47-34.01,0,0,8.96-2.93,12.17-6.2,4.81-4.9,3.32-15.03-1.74-22.35,2.36,1.56,4.54,3.46,6.24,5.75,8.77,11.81,7.3,29.3,7.3,29.3,0,0,4.31,14.11-2.1,27.49Z"/>
      </g>
      <g class="cls-12">
        <path class="cls-1" d="M811.6,995.09c-.74,5.4-6.34,8.87-6.34,8.87,0,0-.71,6.9-6.4,11.86-13.61,11.88-42.55,11.52-42.55,11.52,0,0-5.7,3.58-23.21,6.15-25.81,3.8-74.94-.89-88.82-10.71-21.04-14.89-24.11-35.54-38.41-65.48-22.95-48.02-78.83-49.75-134.45-46.96-30.78,1.55-46.86,17.77-53.62,36.41-9.44,26.1-9.23,55.78-38.01,76.83-28.4,20.78-86.1,5.45-86.1,5.45,0,0-17.52,6.2-39.4-.41-13.84-4.18-21.34-16.27-21.34-16.27,0,0-9.97-3.3-13.01-13.28-1.91-6.26-1.54-11.95.31-17.04,1.13,2.66,3.05,5.39,6.3,7.37,4.8,2.94,9.5-5.83,15.9-6.33,0,0-10.89,20.77,10.9,28.07,25.08,8.4,28.82-13.07,43.72-13.07,0,0,13.11,14.27,33.71,17.4,33.37,5.08,56.7-17.56,61.42-37.41,4.27-17.96,13.26-40.38,16.28-54.28,6.14-28.28-14.72-49.32-7.87-52.75,5.2-2.6,47.05,24.13,88.7,23.67,72.82-.8,106.78-23.19,118.17-27.2,12.13-4.26-5.72,24.54-1.33,43.47,2.73,11.76,8.94,18.27,15.21,33.87,5.16,12.84,13.86,49.63,35.74,62.96,21.87,13.31,109.76,11.06,88.62-11.08,0,0,54.9,24.41,48.3-15.57,0,0,16.19,9.83,12.44-7.94,4.11,6.17,6.3,13.4,5.16,21.84Z"/>
      </g>
      <path class="cls-6" d="M304.85,371.11s-31.04-64.01-79.02-51.72c-38.67,9.91-60.13,47.4-41.74,82.56,23.67,45.24,73.46,40.31,73.46,40.31"/>
      <path class="cls-5" d="M278.08,378.19s-17.28-35.63-43.99-28.79c-21.53,5.52-33.47,26.38-23.23,45.96,13.17,25.18,40.89,22.44,40.89,22.44"/>
      <path class="cls-8" d="M278.08,378.19l-20.36,30.63-5.97,8.99s-27.72,2.74-40.89-22.44c-10.25-19.59,1.7-40.45,23.23-45.97,6.65-1.7,12.71-.78,18.08,1.58,16.16,7.11,25.9,27.21,25.9,27.21Z"/>
      <g class="cls-12">
        <path class="cls-1" d="M278.08,378.19l-20.36,30.63c-6.16-3.31-12.28-8.63-16.74-17.15-8.12-15.52-2.29-31.85,11.2-40.69,16.16,7.11,25.9,27.21,25.9,27.21Z"/>
      </g>
      <g class="cls-12">
        <path class="cls-1" d="M602.23,575.43c-32.8,64.22-112.01,95.42-162.29,105.77-28.14,5.78-63.67,6.01-99.11-1.5-4.74-1-9.46-2.14-14.18-3.42-76.89-20.93-148.62-79.93-137.78-199.32,19.52-13.63,39.28-18.99,53.31-17.04,3.05.42,8.38,2.09,8.38,2.09,0,0,16.43-.49,27.9,6.98,13.68,8.91,16.32,19.75,16.32,19.75,0,0,8.84,9.78,9.03,22.4.66,41.72-23.48,52.39-9.78,97.61.86.09,52.73,13.34,53.36,13.36,0,0-.01,0-.01.01l-.3,2.58,201.16-22.35c20.43-9.87,38.27-18.82,53.99-26.93Z"/>
      </g>
      <path class="cls-6" d="M508.24,632.95c83.35-36.61,125.2-96.92,113.49-151.04-16.16-74.66-73.08-152.32-154.55-179.3-21.2-4.37-39.89-3.23-72.09-8.79-36.1-6.24-80.51-14.59-102.66-4.85-21.6,9.49,5.35,32.89,5.35,32.89,0,0-59.66,8.58-62.16,24.12-2.54,15.81,28.12,20.95,28.12,20.95,0,0-32.53,29.36-38.69,76.93-3.3,25.49-2.61,45.76-3.77,65.99-1.58,27.65-11.11,42.13-5.69,74.01,6.37,37.46,47.1,71.54,126.75,75.63,0,0,36.17,3.63,73.22-2.54,66.49-11.07,92.67-24.01,92.67-24.01Z"/>
      <g class="cls-12">
        <path class="cls-1" d="M621.72,481.91c11.72,54.12-30.14,114.43-113.48,151.03,0,0-26.17,12.95-92.67,24.02-37.05,6.17-73.23,2.54-73.23,2.54-73.6-3.77-113.97-33.16-124.7-67.17,16.12,28.21,54.98,50.86,118.97,54.14,0,0,36.17,3.63,73.23-2.54,66.5-11.07,92.67-24.02,92.67-24.02,83.34-36.62,125.2-96.93,113.48-151.03-2.87-13.25-7.03-26.6-12.37-39.75,8.17,17.28,14.28,35.11,18.1,52.78Z"/>
      </g>
      <g>
        <ellipse class="cls-8" cx="273.27" cy="594.59" rx="23.62" ry="12.45" transform="translate(-64.35 34.03) rotate(-6.38)"/>
        <ellipse class="cls-8" cx="478.15" cy="568.79" rx="28.2" ry="12.45" transform="translate(-86.36 85.59) rotate(-9.39)"/>
      </g>
      <path class="cls-9" d="M269.49,562.55c.13-1.69.31-3.02.6-4.48.26-1.43.65-2.83,1.06-4.23.85-2.8,1.99-5.54,3.44-8.21,1.48-2.66,3.26-5.27,5.52-7.67,2.24-2.4,4.97-4.61,8.19-6.29,3.2-1.69,6.91-2.75,10.6-2.98,3.72-.22,7.28.43,10.47,1.52,6.36,2.28,11.25,6.13,14.83,10.66,1.86,2.34,1.46,5.75-.88,7.6-1.54,1.22-3.53,1.47-5.24.83l-.22-.08c-4.64-1.73-8.89-3.18-12.55-3.65-3.7-.44-6.36.02-9.13,1.4-2.78,1.37-5.73,3.98-8.51,7.31-1.41,1.65-2.76,3.47-4.11,5.36-.71.94-1.32,1.93-2.01,2.91-.66.95-1.34,2.07-1.96,2.86l-.61.79c-1.79,2.32-5.12,2.75-7.44.96-1.46-1.12-2.17-2.89-2.05-4.6Z"/>
      <path class="cls-9" d="M462.67,538.66c-.56-.44-1.36-1.33-2.22-2.1-.89-.78-1.74-1.62-2.73-2.36-1.88-1.53-3.86-2.94-5.86-4.12-3.99-2.41-8.03-3.9-11.71-4.17-3.69-.28-7.29.54-11.3,2.47-3.97,2-8.03,5.04-12.38,8.42l-.17.13c-2.35,1.82-5.73,1.4-7.55-.95-1.25-1.62-1.44-3.73-.67-5.48,2.55-5.77,6.54-11.17,12.18-15.49,2.84-2.14,6.18-3.89,9.85-5.04,3.66-1.13,7.66-1.57,11.53-1.21,3.87.35,7.57,1.43,10.87,2.99,3.32,1.54,6.24,3.57,8.84,5.83,2.58,2.29,4.83,4.81,6.71,7.62.93,1.4,1.81,2.86,2.57,4.43.76,1.59,1.43,3.19,1.92,5.43.59,2.72-1.13,5.4-3.85,6-1.52.33-3.04-.06-4.18-.95l-1.83-1.44Z"/>
      <path class="cls-8" d="M420.06,580.85c3.67,23.17-16.56,45.32-45.19,49.47-28.62,4.15-54.8-11.27-58.46-34.45-3.67-23.17,17.8-37.52,46.42-41.67,28.62-4.15,53.56,3.48,57.23,26.65Z"/>
      <path class="cls-6" d="M454.82,338.73s1.87-71.12,50.65-79.71c39.32-6.93,74.33,18.37,72.08,57.99-2.89,50.98-50.29,67.03-50.29,67.03"/>
      <path class="cls-5" d="M482.12,334.14s1.04-39.59,28.19-44.37c21.89-3.86,41.37,10.22,40.12,32.28-1.61,28.38-27.99,37.31-27.99,37.31"/>
      <path class="cls-8" d="M482.12,334.14l31.18,19.5,9.14,5.72s26.38-8.93,27.99-37.3c1.25-22.07-18.24-36.14-40.12-32.29-6.76,1.19-11.9,4.54-15.82,8.9-11.79,13.15-12.37,35.47-12.37,35.47Z"/>
      <g class="cls-12">
        <path class="cls-1" d="M482.12,334.14l31.18,19.5c4.24-5.56,7.63-12.93,8.17-22.52,1-17.49-11.05-29.96-26.99-32.44-11.79,13.15-12.37,35.47-12.37,35.47Z"/>
      </g>
      <path class="cls-9" d="M402.33,585.59c0,2.63-.71,5.12-1.84,7.28-1.12,2.18-2.6,4.11-4.34,5.79-3.47,3.32-8.07,5.72-13.22,6.2-2.55.24-5.2-.02-7.67-.76-2.48-.74-4.78-1.93-6.82-3.37-4.13-2.88-7.15-6.67-9.68-10.55h0c-1.91.18-3.61-1.22-3.79-3.13-.18-1.91,1.22-3.61,3.13-3.79l4.22-.4h0s.56-.05.56-.05c2.58-.25,4.87,1.65,5.12,4.23.06.59,0,1.19-.16,1.73-.64,2.25-1.32,4.49-2.34,6.69-.97,2.19-2.19,4.35-3.75,6.33-1.55,1.98-3.43,3.79-5.62,5.2-2.19,1.41-4.67,2.38-7.19,2.84-5.08.91-10.12-.12-14.37-2.31-2.13-1.11-4.1-2.53-5.8-4.26-1.71-1.72-3.13-3.86-3.93-6.36-.42-1.29.29-2.68,1.59-3.1,1.21-.39,2.51.21,3.01,1.35l.06.14c1.27,2.93,4.38,5.33,7.68,6.65,3.33,1.33,7.02,1.61,10.15.69,3.15-.9,5.67-3.01,7.44-5.86.91-1.41,1.62-3.01,2.17-4.72.6-1.68.95-3.51,1.29-5.34l5.52,5.9h0s3.56-7.32,3.56-7.32c1.72,3.31,3.78,6.42,6.37,8.62,2.56,2.24,5.6,3.59,8.88,3.6,3.27.04,6.71-1.24,9.53-3.44,2.77-2.19,5.03-5.39,5.33-8.56v-.14c.14-1.35,1.34-2.34,2.7-2.21,1.27.12,2.22,1.2,2.23,2.44Z"/>
      <path class="cls-9" d="M380.91,569.6c1.81,11.45-17.61,19.53-17.61,19.53,0,0-21.05-2.21-22.86-13.66-.93-5.88,19.31-8.81,19.31-8.81,0,0,20.23-2.93,21.16,2.94Z"/>
      <g class="cls-13">
        <path class="cls-10" d="M369.3,570.1c.47,2.97-4.34,5.03-8.03,5.56-3.69.54-8.92-.07-9.39-3.04-.24-1.52,8.47-2.78,8.47-2.78,0,0,8.71-1.26,8.95.26Z"/>
      </g>
      <path class="cls-6" d="M148.57,620.94c-19.37-40.63-11.23-86.73,12.38-116.47,26.78-33.75,61.06-47.49,82.27-44.55,3.05.42,8.39,2.1,8.39,2.1,0,0,16.42-.5,27.89,6.97,13.68,8.91,16.32,19.76,16.32,19.76,0,0,8.83,9.78,9.03,22.39.66,41.72-87.2,81.2-73.5,126.44,0,0-81.46-13.86-82.78-16.63Z"/>
      <path class="cls-9" d="M264.86,488.86c2.34-1.63,4.74-2.87,7.35-3.92,2.59-1.04,5.33-1.79,8.17-2.24,1.42-.27,2.86-.33,4.32-.44,1.46.02,2.94-.05,4.41.14,2.98.2,5.9.97,8.8,1.89,2.61.83,4.06,3.62,3.23,6.23-.83,2.61-3.62,4.06-6.23,3.23-.36-.11-.7-.26-1.01-.45l-.18-.11c-1.92-1.14-3.92-2.27-6.13-2.94-1.08-.43-2.23-.63-3.37-.93-1.16-.17-2.33-.42-3.53-.47-2.39-.19-4.87-.12-7.33.24-2.45.35-4.97,1-7.23,1.88l-.1.04c-.63.25-1.35-.06-1.6-.7-.21-.54-.01-1.14.44-1.46Z"/>
      <path class="cls-9" d="M227.36,470.57c1.6-1.65,3.25-3.09,5.04-4.48,1.78-1.38,3.66-2.64,5.64-3.8,1.98-1.17,4.07-2.19,6.26-3.07,2.18-.92,4.51-1.56,6.89-2.12,2.68-.63,5.36,1.03,5.99,3.7.63,2.68-1.03,5.36-3.7,5.99-.46.11-.93.15-1.38.13h-.09c-1.86-.1-3.78-.17-5.73.05-1.95.17-3.92.5-5.88,1-1.96.48-3.93,1.09-5.86,1.85-1.92.75-3.86,1.64-5.61,2.64l-.07.04c-.59.34-1.35.13-1.68-.47-.28-.49-.18-1.08.19-1.47Z"/>
      <path class="cls-9" d="M781.69,543.64c2.51-.74,4.99-1.23,7.58-1.59,2.57-.34,5.21-.53,7.93-.36,2.71.18,5.52.54,8.35,1.65,2.81,1.09,5.62,2.86,7.88,5.44l.16.19c1.81,2.07,1.61,5.22-.46,7.03-2.07,1.81-5.22,1.61-7.03-.46-.29-.33-.54-.72-.73-1.1-.69-1.41-1.82-2.79-3.41-3.96-1.58-1.18-3.63-2.03-5.77-2.73-2.16-.69-4.48-1.12-6.85-1.4-2.36-.27-4.82-.39-7.19-.3h-.06c-.68.03-1.26-.5-1.28-1.19-.02-.58.36-1.08.89-1.23Z"/>
      <path class="cls-9" d="M748.93,512.92c1.99-1.73,4.24-3.02,6.53-4.12,2.31-1.09,4.69-1.99,7.12-2.76,4.87-1.51,9.93-2.48,15.2-2.84h.06c2.74-.19,5.11,1.88,5.29,4.61.19,2.74-1.88,5.11-4.62,5.29-.43.03-.87,0-1.27-.08-4.35-.83-8.95-1.15-13.56-.94-2.3.11-4.6.36-6.87.79-2.26.43-4.48,1.06-6.48,2.04l-.07.03c-.61.3-1.35.05-1.65-.56-.25-.51-.12-1.12.3-1.48Z"/>
      <path class="cls-9" d="M290.74,1030.68c-.51-.91-.78-1.53-1.11-2.29-.3-.72-.6-1.44-.85-2.18-.53-1.46-.95-2.94-1.29-4.46-.67-3.02-.94-6.18-.66-9.34.22-3.16,1.22-6.3,2.71-9.06,1.42-2.84,3.64-5.06,5.84-7.06,1-.91,2.55-.84,3.46.16.82.9.84,2.25.11,3.17l-.19.24c-1.52,1.92-2.96,3.85-3.63,6.06-.76,2.16-1.12,4.4-.92,6.68.16,2.27.7,4.54,1.55,6.72.43,1.09.92,2.17,1.48,3.19.27.52.58,1.02.88,1.51.29.45.66,1.02.88,1.26,1.8,2.07,1.57,5.21-.5,7-2.07,1.8-5.21,1.57-7-.5-.22-.25-.41-.52-.57-.8l-.18-.33Z"/>
      <path class="cls-9" d="M751.84,1025.27c.08-.11.27-.52.4-.8l.42-.98c.27-.67.51-1.36.74-2.06.43-1.39.76-2.82.96-4.24.4-2.84.25-5.67-.61-8.25-.89-2.56-2.48-4.9-4.75-6.79-2.25-1.9-5.02-3.4-8.01-4.51h-.02c-1.28-.48-1.92-1.9-1.45-3.18.44-1.18,1.69-1.83,2.89-1.54,3.5.84,7,2.16,10.24,4.27,3.24,2.08,6.09,5.18,7.89,8.86,1.78,3.7,2.47,7.79,2.4,11.71-.03,1.97-.24,3.9-.58,5.81-.18.95-.39,1.9-.64,2.84-.13.47-.26.95-.41,1.42-.17.51-.28.89-.55,1.56l-.25.62c-1.04,2.55-3.94,3.78-6.49,2.74-2.55-1.04-3.78-3.94-2.74-6.49.14-.35.34-.7.55-1Z"/>
      <path class="cls-9" d="M800.35,1003.7s.02-.16.03-.3c.02-.13.02-.29.02-.45.01-.32.02-.64,0-.97,0-.66-.08-1.35-.13-2.03-.18-1.37-.43-2.75-.83-4.09-.79-2.69-1.97-5.31-3.64-7.66-.38-.61-.89-1.13-1.32-1.71l-.68-.86-.78-.78c-.52-.51-1.03-1.06-1.57-1.56l-1.74-1.41-.88-.71-.95-.61-1.92-1.24c-1.33-.76-2.73-1.41-4.1-2.14l-.27-.14c-1.2-.63-1.66-2.11-1.02-3.31.58-1.1,1.88-1.58,3.02-1.16,1.61.6,3.26,1.13,4.87,1.8l2.37,1.14,1.19.58,1.14.69,2.27,1.41c.73.52,1.43,1.09,2.14,1.64l1.07.84.98.94c.64.65,1.35,1.24,1.93,1.94,2.49,2.71,4.48,5.9,5.98,9.33.75,1.71,1.33,3.51,1.81,5.34.2.93.42,1.85.56,2.82.08.47.14.97.19,1.47.03.25.05.5.06.77.01.27.03.51.03.93-.14,2.71-2.46,4.8-5.17,4.66-2.71-.14-4.8-2.46-4.66-5.17Z"/>
      <path class="cls-9" d="M228.16,1013.54c-.31-1.79-.4-3.17-.48-4.75-.07-1.53-.08-3.05.01-4.59.17-3.06.59-6.13,1.53-9.15.95-3.01,2.4-5.95,4.44-8.48,2.09-2.54,4.83-4.38,7.67-5.69,1.23-.57,2.69-.03,3.26,1.2.51,1.11.13,2.4-.85,3.06l-.22.15c-1.99,1.35-3.71,2.93-4.89,4.9-1.14,2-1.86,4.22-2.23,6.58-.37,2.36-.33,4.84-.1,7.3.11,1.23.3,2.47.54,3.68.1.61.27,1.21.4,1.81.15.56.32,1.23.47,1.62.95,2.56-.36,5.41-2.92,6.36-2.56.95-5.41-.36-6.36-2.92-.1-.28-.18-.57-.23-.86l-.04-.23Z"/>
    </g>
  </g>
</svg>